<svg width="85" height="78" viewBox="0 0 85 78" fill="none" xmlns="http://www.w3.org/2000/svg">
<path d="M80 13.75H71.25V5C71.25 4.31 70.69 3.75 70 3.75C69.31 3.75 68.75 4.31 68.75 5V13.75H60C59.31 13.75 58.75 14.31 58.75 15C58.75 15.69 59.31 16.25 60 16.25H68.75V25C68.75 25.69 69.31 26.25 70 26.25C70.69 26.25 71.25 25.69 71.25 25V16.25H80C80.69 16.25 81.25 15.69 81.25 15C81.25 14.31 80.69 13.75 80 13.75Z" fill="#00C24E"/>
<path d="M12.75 20.25H47.25V75.75H12.75V20.25Z" fill="#DFF0FE"/>
<path d="M41.5 21C44.2614 21 46.5 23.2386 46.5 26V70C46.5 72.7614 44.2614 75 41.5 75H18.5C15.7386 75 13.5 72.7614 13.5 70V26C13.5 23.2386 15.7386 21 18.5 21H41.5ZM48 24.5C48 21.7386 45.7614 19.5 43 19.5H17C14.2386 19.5 12 21.7386 12 24.5V71.5C12 74.2614 14.2386 76.5 17 76.5H43C45.7614 76.5 48 74.2614 48 71.5V24.5Z" fill="#4788C7"/>
<path d="M18.75 26.25H41.25V53.25H18.75V26.25Z" fill="#98CCFD"/>
<path d="M40.5 27V52.5H19.5V27H40.5ZM42 25.5H18V54H42V25.5Z" fill="#4788C7"/>
<path d="M42 34.5V36H18V34.5H42Z" fill="#4788C7"/>
<path d="M42 43.5V45H18V43.5H42Z" fill="#4788C7"/>
<path d="M33 39.75C33 39.336 33.336 39 33.75 39H36.75C37.164 39 37.5 39.336 37.5 39.75C37.5 40.164 37.164 40.5 36.75 40.5H33.75C33.336 40.5 33 40.164 33 39.75ZM33 48.75C33 48.336 33.336 48 33.75 48H36.75C37.164 48 37.5 48.336 37.5 48.75C37.5 49.164 37.164 49.5 36.75 49.5H33.75C33.336 49.5 33 49.164 33 48.75ZM33 30.75C33 30.336 33.336 30 33.75 30H36.75C37.164 30 37.5 30.336 37.5 30.75C37.5 31.164 37.164 31.5 36.75 31.5H33.75C33.336 31.5 33 31.164 33 30.75Z" fill="white"/>
<path d="M30 59.25C29.0054 59.25 28.0516 59.6451 27.3483 60.3483C26.6451 61.0516 26.25 62.0054 26.25 63C26.25 63.9946 26.6451 64.9484 27.3483 65.6517C28.0516 66.3549 29.0054 66.75 30 66.75C30.9946 66.75 31.9484 66.3549 32.6517 65.6517C33.3549 64.9484 33.75 63.9946 33.75 63C33.75 62.0054 33.3549 61.0516 32.6517 60.3483C31.9484 59.6451 30.9946 59.25 30 59.25Z" fill="#98CCFD"/>
<path d="M30 60C31.6545 60 33 61.3455 33 63C33 64.6545 31.6545 66 30 66C28.3455 66 27 64.6545 27 63C27 61.3455 28.3455 60 30 60ZM30 58.5C27.5145 58.5 25.5 60.5145 25.5 63C25.5 65.4855 27.5145 67.5 30 67.5C32.4855 67.5 34.5 65.4855 34.5 63C34.5 60.5145 32.4855 58.5 30 58.5Z" fill="#4788C7"/>
</svg>
