<svg width="83" height="87" viewBox="0 0 83 87" fill="none" xmlns="http://www.w3.org/2000/svg">
<path d="M78 13.75H69.25V5C69.25 4.31 68.69 3.75 68 3.75C67.31 3.75 66.75 4.31 66.75 5V13.75H58C57.31 13.75 56.75 14.31 56.75 15C56.75 15.69 57.31 16.25 58 16.25H66.75V25C66.75 25.69 67.31 26.25 68 26.25C68.69 26.25 69.25 25.69 69.25 25V16.25H78C78.69 16.25 79.25 15.69 79.25 15C79.25 14.31 78.69 13.75 78 13.75Z" fill="#00C24E"/>
<path d="M59.0402 33.5937C59.0402 30.4207 56.8973 27.8245 54.2783 27.8245H6.65923C4.04018 27.8245 1.89732 30.4207 1.89732 33.5937V78.5937C1.89732 81.7668 4.04018 84.363 6.65923 84.363H54.2783C56.8973 84.363 59.0402 81.7668 59.0402 78.5937V33.5937Z" fill="#DFF0FE"/>
<path d="M16.183 84.363C21.3735 61.5745 36.2783 52.0553 59.0402 57.5937V78.5937C59.0402 81.7668 56.8973 84.363 54.2783 84.363H16.183Z" fill="#DFF0FE"/>
<path d="M58.7545 59.2668C58.8497 59.2668 58.9449 59.3245 59.0402 59.3245C59.8497 59.3245 60.4688 58.5745 60.4688 57.5937V33.5937C60.4688 29.4399 57.7068 26.0938 54.2783 26.0938H6.65923C3.23065 26.0938 0.46875 29.4399 0.46875 33.5937V78.5937C0.46875 82.7476 3.23065 86.0937 6.65923 86.0937H54.2783C57.7068 86.0937 60.4688 82.7476 60.4688 78.5937V69.1322C60.4688 68.1514 59.8497 67.4014 59.0402 67.4014C58.2307 67.4014 57.6116 68.1514 57.6116 69.1322V78.5937C57.6116 80.8437 56.1354 82.6322 54.2783 82.6322H18.0878C23.564 62.2091 37.564 54.1322 58.7545 59.2668ZM15.1354 82.6322H6.65923C4.80208 82.6322 3.32589 80.8437 3.32589 78.5937V33.5937C3.32589 31.3437 4.80208 29.5553 6.65923 29.5553H54.2783C56.1354 29.5553 57.6116 31.3437 57.6116 33.5937V55.4591C35.6592 50.8438 20.6592 60.4207 15.1354 82.6322Z" fill="#4788C7"/>
<path d="M21.4378 35.5784C19.315 35.5784 17.4321 36.7342 16.4207 39.2262L14.0321 44.8157L11.1607 37.2693L11.155 37.257C10.5607 35.8536 8.99496 35.19 7.63781 35.8383C6.26638 36.4957 5.72353 38.2324 6.34067 39.6359L10.615 49.9495V49.9526C10.9721 50.7843 11.3578 51.4814 11.9064 51.9982C12.4578 52.5149 13.1864 52.7993 13.9921 52.7993C14.8464 52.7993 15.5864 52.4874 16.1235 51.9584C16.6635 51.4294 17.015 50.7445 17.3664 49.9648L17.3692 49.9587L17.3721 49.9465C17.3721 49.9465 20.2978 42.9658 20.6378 42.1677C20.7864 41.8191 20.9807 41.5195 21.1778 41.3299C21.3778 41.1434 21.555 41.0578 21.8035 41.0578C22.4092 41.0578 22.9007 41.5837 22.9007 42.2319V49.9618C22.9007 51.4845 24.0264 52.7993 25.475 52.7993C26.9264 52.7993 28.0207 51.4692 28.0207 49.9618V42.2319C28.0207 41.5837 28.5121 41.0578 29.1178 41.0578C29.7235 41.0578 30.215 41.5837 30.215 42.2319V50.0596C30.215 51.564 31.3692 52.7993 32.775 52.7993C34.1807 52.7993 35.335 51.564 35.335 50.0596V42.2319C35.335 41.5837 35.8264 41.0578 36.4321 41.0578C37.0378 41.0578 37.5292 41.5837 37.5292 42.2319V50.0596C37.5292 51.564 38.6835 52.7993 40.0892 52.7993C41.495 52.7993 42.6492 51.564 42.6492 50.0596V41.3391C42.6492 37.9939 40.0864 35.5784 37.1007 35.5784C34.7492 35.5784 33.4064 36.7556 32.8235 37.3335C31.8492 36.3061 30.5721 35.5814 28.7064 35.5814C26.7464 35.5814 25.6264 36.6822 25.0778 37.3029C24.0378 36.2572 22.7007 35.5784 21.4378 35.5784ZM8.72924 37.1347C9.20353 37.1103 9.60353 37.3946 9.82067 37.9022L13.9521 48.7631L17.7578 39.8591L17.7607 39.85C18.5978 37.7952 19.7464 37.1439 21.4378 37.1439C22.4007 37.1439 23.8435 37.8135 24.5464 38.7951L25.1207 39.5962L25.7035 38.7981C25.7035 38.7981 26.9692 37.147 28.7064 37.147C30.5835 37.147 31.4835 37.731 32.2492 38.7951L32.7835 39.5411L33.3721 38.844C33.3721 38.844 34.8121 37.1439 37.1007 37.1439C39.375 37.1439 41.1864 38.8287 41.1864 41.3391V50.0596C41.1864 50.7078 40.695 51.2338 40.0892 51.2338C39.4835 51.2338 38.9921 50.7078 38.9921 50.0596V42.2319C38.9921 40.7275 37.8378 39.4922 36.4321 39.4922C35.0264 39.4922 33.8721 40.7275 33.8721 42.2319V50.0596C33.8721 50.7078 33.3807 51.2338 32.775 51.2338C32.1692 51.2338 31.6778 50.7078 31.6778 50.0596V42.2319C31.6778 40.7275 30.5235 39.4922 29.1178 39.4922C27.7121 39.4922 26.5578 40.7275 26.5578 42.2319V49.9618C26.5578 50.717 26.1235 51.2338 25.475 51.2338C24.8292 51.2338 24.3635 50.6987 24.3635 49.9618V42.2319C24.3635 40.7275 23.2092 39.4922 21.8035 39.4922C21.175 39.4922 20.615 39.7735 20.2064 40.1618C19.8007 40.5471 19.5207 41.0272 19.3121 41.5133C18.9407 42.3787 16.055 49.2677 16.0435 49.2921C15.7207 50.0076 15.4292 50.5183 15.135 50.8057C14.8407 51.0992 14.5607 51.2338 13.9921 51.2338C13.4664 51.2338 13.175 51.1053 12.8721 50.821C12.5692 50.5366 12.2607 50.0351 11.9464 49.3013L7.66638 38.9755V38.9663C7.36353 38.2875 7.56924 37.5873 8.23781 37.2693C8.40638 37.1867 8.5721 37.1439 8.72924 37.1347Z" fill="#4788C7"/>
</svg>
