<svg width="30" height="30" viewBox="0 0 30 30" fill="none" xmlns="http://www.w3.org/2000/svg">
<g clip-path="url(#clip0_1724_204)">
<path d="M20.1984 27.7359L21.3094 22.1906C21.4517 21.4769 21.7582 20.806 22.2047 20.2313L27.2484 13.7484C28.2311 12.4872 28.7196 10.9106 28.622 9.31471C28.5245 7.71882 27.8477 6.21343 26.7187 5.08125L24.9563 3.32813C23.8253 2.19779 22.3205 1.51926 20.7246 1.42C19.1286 1.32075 17.5514 1.80758 16.2891 2.78906L9.80156 7.83281C9.2268 8.27932 8.55596 8.58585 7.84219 8.72813L2.29688 9.84375" fill="#B6DCFE"/>
<path d="M2.12926 10.0033C1.84633 10.2863 1.79765 10.7979 1.98601 11.509C2.17436 12.2202 2.59606 13.1169 3.22702 14.148C3.85798 15.1791 4.68585 16.3243 5.66336 17.5184C6.64086 18.7124 7.74887 19.9319 8.92411 21.1071C10.0994 22.2824 11.3188 23.3904 12.5129 24.3679C13.7069 25.3454 14.8522 26.1733 15.8833 26.8042C16.9143 27.4352 17.8111 27.8569 18.5222 28.0452C19.2333 28.2336 19.745 28.1849 20.0279 27.902C20.3108 27.6191 20.3595 27.1074 20.1712 26.3963C19.9828 25.6851 19.5611 24.7884 18.9301 23.7573C18.2992 22.7263 17.4713 21.581 16.4938 20.3869C15.5163 19.1929 14.4083 17.9734 13.233 16.7982C12.0578 15.623 10.8383 14.5149 9.64429 13.5374C8.45024 12.5599 7.30497 11.7321 6.27389 11.1011C5.24281 10.4701 4.3461 10.0484 3.63496 9.86009C2.92383 9.67173 2.41219 9.72041 2.12926 10.0033Z" fill="#4FB4ED"/>
<path d="M13.2188 17.9906C12.43 17.9849 11.6592 18.2263 11.0145 18.6808C10.3699 19.1353 9.88362 19.7802 9.62399 20.5251C9.36435 21.2699 9.34435 22.0773 9.56679 22.8341C9.78923 23.5909 10.243 24.259 10.8643 24.7449C11.4857 25.2308 12.2436 25.51 13.0317 25.5434C13.8197 25.5768 14.5985 25.3627 15.2588 24.9311C15.919 24.4995 16.4276 23.8721 16.7133 23.1368C16.9989 22.4016 17.0473 21.5954 16.8516 20.8312C16.1953 20.0062 15.4453 19.1484 14.6531 18.2766C14.1984 18.088 13.711 17.9909 13.2188 17.9906Z" fill="#B6DCFE"/>
<path d="M16.3734 23.7656C16.0732 24.2431 15.6692 24.6467 15.1914 24.9464C14.7137 25.2461 14.1744 25.4341 13.6139 25.4966C13.0534 25.559 12.486 25.4942 11.954 25.307C11.422 25.1198 10.939 24.8149 10.5411 24.4152C10.1432 24.0155 9.84062 23.5312 9.65582 22.9984C9.47102 22.4655 9.40879 21.8978 9.47376 21.3376C9.53873 20.7774 9.72924 20.239 10.0311 19.7626C10.3329 19.2862 10.7384 18.884 11.2172 18.5859L16.3734 23.7656Z" fill="#B6DCFE"/>
<path d="M16.9688 21.7406C16.962 21.9549 16.8923 22.1625 16.7683 22.3375C16.6444 22.5124 16.4717 22.647 16.2717 22.7245C16.0718 22.802 15.8535 22.8189 15.644 22.7731C15.4345 22.7274 15.2432 22.621 15.0938 22.4672L12.4688 19.8609C12.315 19.7115 12.2086 19.5202 12.1628 19.3107C12.117 19.1012 12.1339 18.8829 12.2114 18.683C12.2889 18.483 12.4235 18.3103 12.5985 18.1864C12.7734 18.0624 12.981 17.9927 13.1953 17.9859C13.6876 17.9862 14.175 18.0833 14.6297 18.2719C15.4688 19.1484 16.1906 20.0016 16.875 20.8313C16.9421 21.1296 16.9736 21.4349 16.9688 21.7406Z" fill="#4FB4ED"/>
<path d="M24.0422 4.24688C23.8551 4.43456 23.6095 4.55269 23.346 4.58167C23.0826 4.61066 22.8172 4.54877 22.5937 4.40625C21.859 3.93785 20.9972 3.70845 20.1268 3.74958C19.2564 3.79071 18.4201 4.10034 17.7328 4.63594L14.6156 7.10156C14.3785 7.28892 14.0779 7.377 13.7772 7.34728C13.4765 7.31755 13.199 7.17234 13.0031 6.94219C12.9007 6.82238 12.8236 6.68308 12.7765 6.53268C12.7294 6.38228 12.7133 6.2239 12.7291 6.06708C12.7448 5.91027 12.7922 5.75828 12.8683 5.62027C12.9444 5.48226 13.0477 5.36109 13.1719 5.26406C14.5781 4.14844 16.2937 2.77969 16.2937 2.77969C17.3636 1.95101 18.6634 1.47334 20.0153 1.41208C21.3672 1.35082 22.7049 1.70898 23.8453 2.4375C23.9918 2.53208 24.1154 2.65817 24.207 2.80656C24.2985 2.95496 24.3559 3.12193 24.3747 3.29529C24.3936 3.46866 24.3735 3.64405 24.316 3.80867C24.2585 3.97329 24.1649 4.123 24.0422 4.24688Z" fill="#F2FAFF"/>
<path d="M27.9797 5.925L28.5937 4.6875C28.8244 4.22967 28.9032 3.71031 28.819 3.20465C28.7347 2.69899 28.4916 2.23329 28.125 1.875C27.7654 1.52251 27.3047 1.29106 26.8073 1.21291C26.3098 1.13476 25.8004 1.21382 25.35 1.43906L24.1078 2.05312C22.8841 1.26827 21.4473 0.881995 19.995 0.947473C18.5428 1.01295 17.1465 1.52696 15.9984 2.41875L9.51562 7.4625C8.99865 7.86439 8.39523 8.14042 7.75312 8.26875L2.59687 9.30469H2.48906L2.20781 9.375C2.14332 9.38864 2.08243 9.41573 2.02912 9.4545C1.97581 9.49327 1.93128 9.54285 1.89843 9.6C1.86562 9.62344 1.82812 9.64219 1.79999 9.67031C0.168745 11.3062 3.98437 16.8281 8.59687 21.4406L8.99999 21.8391C9.02571 22.9408 9.48151 23.9887 10.2699 24.7587C11.0583 25.5287 12.1167 25.9597 13.2187 25.9594C13.3974 25.9604 13.5759 25.9494 13.7531 25.9266C15.9375 27.5531 17.9812 28.5937 19.2937 28.5937C19.4886 28.605 19.6837 28.5767 19.8674 28.5107C20.051 28.4446 20.2194 28.3421 20.3625 28.2094C20.3909 28.1765 20.4176 28.1421 20.4422 28.1062C20.4966 28.0735 20.5437 28.03 20.5808 27.9784C20.6179 27.9268 20.6441 27.8683 20.6578 27.8062L21.7687 22.2609C21.8971 21.6188 22.1731 21.0154 22.575 20.4984L27.6187 14.0344C28.5098 12.8858 29.023 11.4893 29.0876 10.037C29.1523 8.58478 28.7652 7.14819 27.9797 5.925ZM25.7812 2.26875C26.0592 2.12863 26.3743 2.07993 26.6816 2.1296C26.9888 2.17927 27.2725 2.32476 27.4922 2.54531C27.7085 2.76568 27.8506 3.04817 27.8985 3.35326C27.9464 3.65836 27.8978 3.97079 27.7594 4.24687L27.3422 5.08125C27.2391 4.96406 27.1406 4.84687 27.0281 4.73906L25.2891 2.99531C25.1812 2.8875 25.0641 2.78437 24.9469 2.68125L25.7812 2.26875ZM2.46562 10.3125C2.50546 10.2751 2.55368 10.2478 2.60624 10.2328L2.77968 10.2H2.89687C3.41718 10.2 4.40624 10.4906 6.03749 11.4891C8.53173 13.1005 10.8368 14.9874 12.9094 17.1141L13.2984 17.5078H13.2187C12.2883 17.5077 11.3839 17.8151 10.6464 18.3822C9.90881 18.9494 9.37943 19.7445 9.14062 20.6437C3.96562 15.4687 1.72499 11.0766 2.46562 10.3125ZM13.2187 25.0219C12.966 25.0235 12.7141 24.9935 12.4687 24.9328C11.9557 24.8142 11.4787 24.5737 11.0781 24.2319C10.6775 23.89 10.365 23.4568 10.1672 22.9687C10.0138 22.5857 9.93583 22.1767 9.93749 21.7641C9.93749 21.6703 9.93749 21.5766 9.93749 21.4828C9.97743 20.9754 10.1349 20.4842 10.3973 20.0481C10.6598 19.612 11.0202 19.243 11.4499 18.9702C11.8796 18.6973 12.3668 18.5282 12.8732 18.4762C13.3795 18.4241 13.891 18.4906 14.3672 18.6703C14.7328 19.0687 15.0891 19.4719 15.4266 19.8656C15.7641 20.2594 16.0922 20.6531 16.4062 21.0375C16.4574 21.2668 16.4841 21.501 16.4859 21.7359C16.4856 22.4714 16.2383 23.1855 15.7835 23.7635C15.3287 24.3416 14.6929 24.7501 13.9781 24.9234C13.7298 24.9862 13.4749 25.0192 13.2187 25.0219ZM14.9156 25.6031C15.5746 25.3132 16.1484 24.8595 16.5824 24.2851C17.0164 23.7108 17.2963 23.0349 17.3953 22.3219C19.0266 24.5625 19.8422 26.3062 19.8375 27.1406L19.7719 27.4687C19.7541 27.5067 19.7304 27.5415 19.7016 27.5719C19.2516 28.0219 17.4422 27.3656 14.9156 25.6031ZM26.8781 13.4625L21.8344 19.9453C21.3441 20.5784 21.0072 21.3164 20.85 22.1016L20.2312 25.2C19.2908 23.2876 18.1059 21.5055 16.7062 19.8984L16.1625 19.2562L15.5906 18.6094C15.3937 18.3937 15.1969 18.1734 14.9953 17.9578C14.5266 17.4562 14.0578 16.9594 13.5891 16.4719C11.4676 14.2939 9.10916 12.36 6.55781 10.7062C6.02094 10.373 5.46358 10.074 4.88906 9.81094L7.97343 9.19219C8.75887 9.03596 9.49713 8.69893 10.1297 8.20781L16.575 3.15937C17.7473 2.24803 19.212 1.79609 20.694 1.88844C22.176 1.9808 23.5733 2.6111 24.6234 3.66094L26.3719 5.41406C27.4224 6.46356 28.0536 7.86054 28.1468 9.34256C28.24 10.8246 27.7889 12.2896 26.8781 13.4625Z" fill="#2395EC"/>
<path d="M19.0078 4.39688C19.0728 4.38578 19.1348 4.3611 19.1896 4.32443C19.2444 4.28776 19.2909 4.23993 19.3259 4.18408C19.361 4.12823 19.3839 4.0656 19.3931 4.00029C19.4023 3.93499 19.3977 3.86847 19.3794 3.8051C19.3612 3.74172 19.3297 3.68291 19.2872 3.6325C19.2447 3.5821 19.192 3.54124 19.1326 3.51259C19.0732 3.48394 19.0084 3.46815 18.9425 3.46625C18.8765 3.46435 18.811 3.47639 18.75 3.50157C18.1539 3.68277 17.5962 3.97195 17.1047 4.35469L15.2297 5.79375C15.1315 5.87021 15.0677 5.98255 15.0523 6.10606C15.0369 6.22957 15.0712 6.35413 15.1477 6.45235C15.2241 6.55056 15.3365 6.61438 15.46 6.62976C15.5835 6.64515 15.708 6.61083 15.8063 6.53438L17.6813 5.09532C18.0775 4.78405 18.527 4.54739 19.0078 4.39688ZM22.0922 4.11563C22.1111 4.05685 22.1183 3.9949 22.1132 3.93336C22.1081 3.87181 22.0909 3.81187 22.0626 3.75699C22.0343 3.7021 21.9954 3.65336 21.9482 3.61354C21.901 3.57373 21.8464 3.54364 21.7875 3.525C21.4566 3.41882 21.1158 3.34657 20.7703 3.30938C20.7088 3.30291 20.6465 3.30864 20.5872 3.32622C20.5278 3.34381 20.4725 3.37291 20.4244 3.41187C20.3763 3.45083 20.3364 3.49887 20.3069 3.55327C20.2773 3.60767 20.2588 3.66735 20.2523 3.72891C20.2459 3.79047 20.2516 3.85269 20.2692 3.91204C20.2868 3.97138 20.3159 4.02668 20.3548 4.07478C20.3938 4.12288 20.4418 4.16283 20.4962 4.19236C20.5506 4.22189 20.6103 4.24041 20.6719 4.24688C20.9553 4.2779 21.2349 4.33758 21.5063 4.425C21.565 4.44394 21.627 4.45107 21.6885 4.446C21.7501 4.44092 21.81 4.42373 21.8649 4.39542C21.9198 4.36711 21.9685 4.32823 22.0083 4.28102C22.0481 4.2338 22.0782 4.17919 22.0969 4.12032L22.0922 4.11563ZM17.6859 17.2828C17.5963 17.206 17.4809 17.1659 17.3629 17.1704C17.245 17.175 17.1331 17.2239 17.0496 17.3074C16.9661 17.3909 16.9172 17.5028 16.9126 17.6208C16.9081 17.7387 16.9482 17.8541 17.025 17.9438L17.6859 18.6047C17.7756 18.6815 17.891 18.7216 18.0089 18.7171C18.1269 18.7125 18.2388 18.6636 18.3223 18.5801C18.4058 18.4966 18.4547 18.3847 18.4592 18.2667C18.4638 18.1488 18.4237 18.0334 18.3469 17.9438L17.6859 17.2828ZM19.3453 15.6281C19.2556 15.5513 19.1403 15.5112 19.0223 15.5158C18.9043 15.5203 18.7924 15.5692 18.709 15.6527C18.6255 15.7362 18.5766 15.8481 18.572 15.9661C18.5675 16.084 18.6076 16.1994 18.6844 16.2891L19.3453 16.95C19.435 17.0268 19.5503 17.0669 19.6683 17.0624C19.7863 17.0578 19.8982 17.0089 19.9817 16.9254C20.0652 16.8419 20.1141 16.73 20.1186 16.6121C20.1232 16.4941 20.083 16.3787 20.0063 16.2891L19.3453 15.6281ZM21.0047 13.9688C20.915 13.892 20.7997 13.8518 20.6817 13.8564C20.5637 13.8609 20.4518 13.9099 20.3683 13.9933C20.2849 14.0768 20.2359 14.1887 20.2314 14.3067C20.2268 14.4247 20.267 14.54 20.3438 14.6297L21.0047 15.2906C21.0944 15.3674 21.2097 15.4075 21.3277 15.403C21.4457 15.3984 21.5576 15.3495 21.641 15.266C21.7245 15.1826 21.7734 15.0707 21.778 14.9527C21.7826 14.8347 21.7424 14.7194 21.6656 14.6297L21.0047 13.9688ZM22.6594 12.3141C22.5697 12.2373 22.4544 12.1971 22.3364 12.2017C22.2184 12.2063 22.1065 12.2552 22.023 12.3386C21.9395 12.4221 21.8906 12.534 21.8861 12.652C21.8815 12.77 21.9216 12.8853 21.9984 12.975L22.6594 13.6359C22.7491 13.7127 22.8644 13.7529 22.9824 13.7483C23.1003 13.7437 23.2123 13.6948 23.2957 13.6114C23.3792 13.5279 23.4281 13.416 23.4327 13.298C23.4372 13.18 23.3971 13.0647 23.3203 12.975L22.6594 12.3141ZM24.3188 10.6547C24.2311 10.5664 24.112 10.5166 23.9876 10.5161C23.8632 10.5157 23.7437 10.5647 23.6555 10.6523C23.5672 10.74 23.5174 10.8591 23.5169 10.9835C23.5165 11.1079 23.5655 11.2274 23.6531 11.3156L24.3141 11.9813C24.4017 12.0695 24.5208 12.1194 24.6452 12.1198C24.7696 12.1202 24.8891 12.0712 24.9773 11.9836C25.0656 11.896 25.1154 11.7768 25.1159 11.6524C25.1163 11.5281 25.0673 11.4086 24.9797 11.3203L24.3188 10.6547ZM25.9734 8.99532C25.8852 8.90767 25.7657 8.85868 25.6413 8.85912C25.5169 8.85956 25.3978 8.90939 25.3102 8.99766C25.2225 9.08593 25.1735 9.2054 25.174 9.32979C25.1744 9.45417 25.2242 9.57329 25.3125 9.66094L25.9734 10.3125C26.0631 10.3893 26.1785 10.4294 26.2964 10.4249C26.4144 10.4203 26.5263 10.3714 26.6098 10.2879C26.6933 10.2044 26.7422 10.0925 26.7467 9.97456C26.7513 9.85659 26.7112 9.74124 26.6344 9.65157L25.9734 8.99532Z" fill="#2395EC"/>
</g>
<defs>
<clipPath id="clip0_1724_204">
<rect width="30" height="30" fill="white"/>
</clipPath>
</defs>
</svg>
