<svg width="35" height="50" viewBox="0 0 35 50" fill="none" xmlns="http://www.w3.org/2000/svg">
<path d="M17.2451 0C7.72996 0 0 7.72996 0 17.2451C0 19.7489 1.07843 22.8974 2.64476 26.3202C4.21109 29.743 6.28575 33.4151 8.3575 36.7982C12.501 43.5643 16.6418 49.1814 16.6418 49.1814L17.2451 50L17.8485 49.1814C17.8485 49.1814 21.9892 43.5643 26.1327 36.7982C28.2045 33.4151 30.2791 29.743 31.8455 26.3202C33.4118 22.8974 34.4902 19.7489 34.4902 17.2451C34.4902 7.72996 26.7603 0 17.2451 0ZM17.2451 1.49958C25.9498 1.49958 32.9907 8.54043 32.9907 17.2451C32.9907 19.2963 32.0072 22.3605 30.4806 25.6963C28.9541 29.0322 26.9049 32.6637 24.8528 36.0147C21.2311 41.9288 18.0472 46.3365 17.2451 47.4387C16.443 46.3365 13.2591 41.9288 9.63741 36.0147C7.58532 32.6637 5.53615 29.0322 4.00961 25.6963C2.48306 22.3605 1.49958 19.2963 1.49958 17.2451C1.49958 8.54043 8.54043 1.49958 17.2451 1.49958ZM17.2451 2.99915C17.0463 2.99915 16.8555 3.07815 16.7149 3.21876C16.5743 3.35937 16.4953 3.55008 16.4953 3.74894C16.4953 3.94779 16.5743 4.13851 16.7149 4.27912C16.8555 4.41973 17.0463 4.49873 17.2451 4.49873C17.444 4.49873 17.6347 4.41973 17.7753 4.27912C17.9159 4.13851 17.9949 3.94779 17.9949 3.74894C17.9949 3.55008 17.9159 3.35937 17.7753 3.21876C17.6347 3.07815 17.444 2.99915 17.2451 2.99915ZM13.7056 3.45898C13.6551 3.46222 13.605 3.47056 13.5562 3.48388C13.461 3.50936 13.3717 3.55338 13.2935 3.61341C13.2152 3.67345 13.1496 3.74832 13.1004 3.83375C13.0512 3.91917 13.0192 4.01347 13.0065 4.11124C12.9937 4.20901 13.0004 4.30834 13.0261 4.40354C13.0776 4.59558 13.2032 4.75932 13.3754 4.85874C13.5476 4.95815 13.7522 4.9851 13.9443 4.93366C14.0397 4.90834 14.1291 4.86443 14.2075 4.80446C14.2859 4.7445 14.3516 4.66964 14.401 4.5842C14.4504 4.49876 14.4825 4.40441 14.4953 4.30656C14.5081 4.20871 14.5015 4.10929 14.4759 4.014C14.4344 3.85933 14.3445 3.72201 14.2193 3.62214C14.0942 3.52226 13.9403 3.46509 13.7803 3.45898C13.7554 3.45774 13.7305 3.45774 13.7056 3.45898ZM20.7319 3.46045C20.5679 3.46195 20.4089 3.51719 20.2793 3.6177C20.1497 3.71822 20.0566 3.85846 20.0144 4.01693C19.9629 4.20899 19.9899 4.41361 20.0893 4.5858C20.1887 4.75799 20.3524 4.88364 20.5445 4.93513C20.7365 4.98656 20.9412 4.95961 21.1133 4.8602C21.2855 4.76078 21.4112 4.59705 21.4627 4.405C21.5141 4.21294 21.4872 4.00832 21.3877 3.83613C21.2883 3.66394 21.1246 3.53829 20.9325 3.48681C20.8672 3.46899 20.7997 3.46013 20.7319 3.46045ZM10.478 4.80772C10.3523 4.81091 10.2294 4.84566 10.1207 4.90877C9.94872 5.00829 9.82329 5.17199 9.77195 5.36392C9.7206 5.55585 9.74753 5.76031 9.84682 5.9324C9.9461 6.1046 10.1097 6.23034 10.3016 6.28196C10.4936 6.33359 10.6982 6.30688 10.8705 6.20771C10.9559 6.15855 11.0308 6.09302 11.0909 6.01487C11.151 5.93672 11.1951 5.84748 11.2207 5.75226C11.2463 5.65705 11.2528 5.55772 11.24 5.45997C11.2271 5.36223 11.1951 5.26798 11.1458 5.18261C11.0784 5.06588 10.9809 4.96945 10.8634 4.90348C10.7458 4.83751 10.6127 4.80443 10.478 4.80772ZM23.9566 4.80918C23.8311 4.81526 23.7091 4.85277 23.6019 4.91828C23.4947 4.98378 23.4057 5.07518 23.343 5.18408C23.2438 5.35634 23.2171 5.56094 23.2687 5.75289C23.3204 5.94484 23.4461 6.10843 23.6183 6.20771C23.7904 6.307 23.9949 6.33393 24.1868 6.28259C24.3787 6.23124 24.5424 6.10582 24.6419 5.93387C24.6913 5.84859 24.7234 5.75442 24.7364 5.65673C24.7494 5.55904 24.743 5.45975 24.7175 5.36455C24.6921 5.26934 24.6481 5.18008 24.5882 5.10188C24.5282 5.02367 24.4534 4.95805 24.3681 4.90877C24.2433 4.83673 24.1005 4.80216 23.9566 4.80918ZM7.71315 6.95164C7.61272 6.9501 7.51301 6.96875 7.41993 7.00649C7.32686 7.04422 7.24231 7.10027 7.17131 7.17131C7.03073 7.31192 6.95176 7.5026 6.95176 7.70143C6.95176 7.90026 7.03073 8.09095 7.17131 8.23156C7.31192 8.37213 7.5026 8.45111 7.70143 8.45111C7.90026 8.45111 8.09095 8.37213 8.23156 8.23156C8.37213 8.09095 8.45111 7.90026 8.45111 7.70143C8.45111 7.5026 8.37213 7.31192 8.23156 7.17131C8.09385 7.03352 7.90792 6.95474 7.71315 6.95164ZM26.7976 6.95164C26.6974 6.9503 26.598 6.96904 26.5052 7.00677C26.4123 7.0445 26.328 7.10045 26.2572 7.17131C26.1166 7.31192 26.0377 7.5026 26.0377 7.70143C26.0377 7.90026 26.1166 8.09095 26.2572 8.23156C26.3978 8.37213 26.5885 8.45111 26.7873 8.45111C26.9862 8.45111 27.1769 8.37213 27.3175 8.23156C27.458 8.09095 27.537 7.90026 27.537 7.70143C27.537 7.5026 27.458 7.31192 27.3175 7.17131C27.1794 7.03317 26.9929 6.95436 26.7976 6.95164ZM28.9137 9.74724C28.7881 9.74998 28.6653 9.78422 28.5564 9.84682C28.471 9.8961 28.3962 9.96172 28.3363 10.0399C28.2763 10.1181 28.2324 10.2074 28.2069 10.3026C28.1815 10.3978 28.1751 10.4971 28.1881 10.5948C28.201 10.6925 28.2331 10.7866 28.2825 10.8719C28.382 11.0439 28.5457 11.1693 28.7377 11.2206C28.9296 11.272 29.1341 11.2451 29.3062 11.1458C29.4781 11.0462 29.6035 10.8825 29.6549 10.6906C29.7062 10.4987 29.6793 10.2942 29.58 10.1221C29.5128 10.0056 29.4154 9.90934 29.2982 9.84338C29.181 9.77742 29.0482 9.74421 28.9137 9.74724ZM5.5209 9.7487C5.39554 9.75462 5.27367 9.79192 5.16647 9.85716C5.05927 9.9224 4.97015 10.0135 4.9073 10.1221C4.80801 10.2942 4.78108 10.4987 4.83243 10.6906C4.88378 10.8825 5.0092 11.0462 5.18115 11.1458C5.26642 11.1952 5.3606 11.2273 5.45829 11.2402C5.55597 11.2532 5.65526 11.2468 5.75047 11.2213C5.84567 11.1959 5.93493 11.152 6.01314 11.092C6.09135 11.032 6.15697 10.9573 6.20625 10.8719C6.30542 10.6997 6.33212 10.4951 6.2805 10.3031C6.22887 10.1112 6.10314 9.94756 5.93094 9.84828C5.80661 9.77652 5.66429 9.74196 5.5209 9.7487ZM12.0171 12.8811V23.447H13.6573V12.8811H12.0171ZM17.0503 12.8811V23.4455H18.6905V19.8869H21.1361C23.2085 19.8869 24.6727 18.468 24.6727 16.4031C24.6727 14.3089 23.2523 12.8811 21.1874 12.8811H17.0503ZM30.3093 13.0027C30.2343 12.9998 30.1592 13.0082 30.0867 13.0276C29.9915 13.0529 29.9022 13.0967 29.8239 13.1566C29.7456 13.2165 29.6799 13.2912 29.6306 13.3765C29.5812 13.4617 29.5491 13.5559 29.5362 13.6536C29.5232 13.7513 29.5297 13.8506 29.5551 13.9458C29.5806 14.041 29.6246 14.1303 29.6846 14.2085C29.7447 14.2867 29.8196 14.3523 29.905 14.4016C29.9904 14.4508 30.0847 14.4827 30.1825 14.4955C30.2802 14.5082 30.3796 14.5016 30.4748 14.4759C30.6668 14.4244 30.8305 14.2987 30.93 14.1266C31.0294 13.9544 31.0563 13.7497 31.0049 13.5577C30.9634 13.403 30.8735 13.2657 30.7483 13.1658C30.6232 13.0659 30.4693 13.0088 30.3093 13.0027ZM4.20145 13.0041C4.03763 13.0055 3.87879 13.0606 3.7492 13.1608C3.61962 13.261 3.52643 13.4009 3.48388 13.5591C3.43244 13.7512 3.45939 13.9558 3.5588 14.128C3.65822 14.3002 3.82195 14.4259 4.014 14.4773C4.20606 14.5288 4.41068 14.5018 4.58287 14.4024C4.75506 14.303 4.88072 14.1393 4.9322 13.9472C4.98364 13.7552 4.95668 13.5505 4.85727 13.3783C4.75786 13.2062 4.59412 13.0805 4.40207 13.029C4.33663 13.0117 4.26914 13.0033 4.20145 13.0041ZM18.6905 14.3294H20.7554C22.1979 14.3294 22.9959 15.0632 22.9959 16.4031C22.9959 17.7137 22.1687 18.4459 20.7554 18.4459H18.6905V14.3294ZM3.74894 16.4953C3.55008 16.4953 3.35937 16.5743 3.21876 16.7149C3.07815 16.8555 2.99915 17.0463 2.99915 17.2451C2.99915 17.444 3.07815 17.6347 3.21876 17.7753C3.35937 17.9159 3.55008 17.9949 3.74894 17.9949C3.94779 17.9949 4.13851 17.9159 4.27912 17.7753C4.41973 17.6347 4.49873 17.444 4.49873 17.2451C4.49873 17.0463 4.41973 16.8555 4.27912 16.7149C4.13851 16.5743 3.94779 16.4953 3.74894 16.4953ZM30.7413 16.4953C30.5424 16.4953 30.3517 16.5743 30.2111 16.7149C30.0705 16.8555 29.9915 17.0463 29.9915 17.2451C29.9915 17.444 30.0705 17.6347 30.2111 17.7753C30.3517 17.9159 30.5424 17.9949 30.7413 17.9949C30.9401 17.9949 31.1309 17.9159 31.2715 17.7753C31.4121 17.6347 31.4911 17.444 31.4911 17.2451C31.4911 17.0463 31.4121 16.8555 31.2715 16.7149C31.1309 16.5743 30.9401 16.4953 30.7413 16.4953ZM4.23659 19.9895C4.16157 19.9866 4.08653 19.995 4.014 20.0144C3.82195 20.0658 3.65822 20.1915 3.5588 20.3637C3.45939 20.5359 3.43244 20.7405 3.48388 20.9325C3.53536 21.1246 3.66101 21.2883 3.8332 21.3877C4.00539 21.4872 4.21002 21.5141 4.40207 21.4627C4.59412 21.4112 4.75786 21.2855 4.85727 21.1133C4.95668 20.9412 4.98364 20.7365 4.9322 20.5445C4.89072 20.3898 4.80081 20.2525 4.67564 20.1526C4.55047 20.0527 4.39661 19.9956 4.23659 19.9895ZM30.2741 19.9909C30.1103 19.9923 29.9515 20.0474 29.8219 20.1476C29.6923 20.2478 29.5991 20.3877 29.5566 20.5459C29.5051 20.738 29.5321 20.9426 29.6315 21.1148C29.7309 21.287 29.8946 21.4127 30.0867 21.4641C30.2788 21.5156 30.4834 21.4886 30.6556 21.3892C30.8278 21.2898 30.9534 21.1261 31.0049 20.934C31.0563 20.742 31.0294 20.5373 30.93 20.3651C30.8305 20.1929 30.6668 20.0673 30.4748 20.0158C30.4093 19.9985 30.3418 19.9901 30.2741 19.9909Z" fill="#BC5205"/>
</svg>
