<svg width="60" height="60" viewBox="0 0 60 60" fill="none" xmlns="http://www.w3.org/2000/svg">
<path d="M30 10C28.5824 10 27.4194 11.045 27.4194 12.3188V13.1692C22.9539 14.0852 19.4438 17.3146 18.5874 21.4266C17.6763 21.866 16.9688 22.6229 16.8511 23.6017L14.8664 40.0996C14.7044 41.4494 13.4462 42.4638 11.9355 42.4638H11.2903V45.942H25.4839C25.4839 48.1764 27.5133 50 30 50C32.4867 50 34.5161 48.1764 34.5161 45.942H48.7097V42.4638H48.0645C46.5538 42.4638 45.2956 41.4494 45.1336 40.0996L43.1489 23.6017C43.0312 22.6229 42.3237 21.866 41.4125 21.4266C40.5562 17.3146 37.0461 14.0852 32.5806 13.1692V12.3188C32.5806 11.045 31.4176 10 30 10ZM30 11.1594C30.7204 11.1594 31.2903 11.6715 31.2903 12.3188V12.9699C30.8657 12.9274 30.4368 12.8986 30 12.8986C29.5632 12.8986 29.1343 12.9274 28.7097 12.9699V12.3188C28.7097 11.6715 29.2796 11.1594 30 11.1594ZM30 14.058C35.1142 14.058 39.3914 17.3961 40.2029 21.8365L40.2646 22.1683L40.6149 22.2849C41.2845 22.5089 41.785 23.0514 41.8662 23.7262L43.8508 40.2242C43.8731 40.4096 43.917 40.5873 43.968 40.762C43.8449 40.8033 43.7388 40.8773 43.6638 40.9742C43.5888 41.0711 43.5486 41.1863 43.5484 41.3043C43.5484 41.4581 43.6164 41.6055 43.7373 41.7143C43.8583 41.823 44.0224 41.8841 44.1935 41.8841C44.2976 41.8838 44.4001 41.8608 44.4922 41.8173C45.1399 42.7121 46.1988 43.3382 47.4194 43.5134V44.7826H12.5806V43.5134C13.8012 43.3382 14.8601 42.7121 15.5078 41.8173C15.5999 41.8608 15.7024 41.8838 15.8065 41.8841C15.9776 41.8841 16.1417 41.823 16.2626 41.7143C16.3836 41.6055 16.4516 41.4581 16.4516 41.3043C16.4514 41.1863 16.4112 41.0711 16.3362 40.9742C16.2612 40.8773 16.1551 40.8033 16.032 40.762C16.083 40.5873 16.1269 40.4096 16.1492 40.2242L18.1338 23.7262C18.215 23.0514 18.7155 22.5089 19.3851 22.2849L19.7354 22.1683L19.7971 21.8365C20.6086 17.3961 24.8858 14.058 30 14.058ZM20.9677 21.0145C20.7966 21.0145 20.6325 21.0756 20.5115 21.1843C20.3906 21.293 20.3226 21.4405 20.3226 21.5942C20.3226 21.748 20.3906 21.8954 20.5115 22.0041C20.6325 22.1128 20.7966 22.1739 20.9677 22.1739C21.1388 22.1739 21.3029 22.1128 21.4239 22.0041C21.5449 21.8954 21.6129 21.748 21.6129 21.5942C21.6129 21.4405 21.5449 21.293 21.4239 21.1843C21.3029 21.0756 21.1388 21.0145 20.9677 21.0145ZM23.5484 21.0145C23.3773 21.0145 23.2132 21.0756 23.0922 21.1843C22.9712 21.293 22.9032 21.4405 22.9032 21.5942C22.9032 21.748 22.9712 21.8954 23.0922 22.0041C23.2132 22.1128 23.3773 22.1739 23.5484 22.1739C23.7195 22.1739 23.8836 22.1128 24.0046 22.0041C24.1256 21.8954 24.1935 21.748 24.1935 21.5942C24.1935 21.4405 24.1256 21.293 24.0046 21.1843C23.8836 21.0756 23.7195 21.0145 23.5484 21.0145ZM26.129 21.0145C25.9579 21.0145 25.7938 21.0756 25.6728 21.1843C25.5518 21.293 25.4839 21.4405 25.4839 21.5942C25.4839 21.748 25.5518 21.8954 25.6728 22.0041C25.7938 22.1128 25.9579 22.1739 26.129 22.1739C26.3001 22.1739 26.4642 22.1128 26.5852 22.0041C26.7062 21.8954 26.7742 21.748 26.7742 21.5942C26.7742 21.4405 26.7062 21.293 26.5852 21.1843C26.4642 21.0756 26.3001 21.0145 26.129 21.0145ZM28.7097 21.0145C28.5386 21.0145 28.3745 21.0756 28.2535 21.1843C28.1325 21.293 28.0645 21.4405 28.0645 21.5942C28.0645 21.748 28.1325 21.8954 28.2535 22.0041C28.3745 22.1128 28.5386 22.1739 28.7097 22.1739C28.8808 22.1739 29.0449 22.1128 29.1659 22.0041C29.2869 21.8954 29.3548 21.748 29.3548 21.5942C29.3548 21.4405 29.2869 21.293 29.1659 21.1843C29.0449 21.0756 28.8808 21.0145 28.7097 21.0145ZM31.2903 21.0145C31.1192 21.0145 30.9551 21.0756 30.8341 21.1843C30.7131 21.293 30.6452 21.4405 30.6452 21.5942C30.6452 21.748 30.7131 21.8954 30.8341 22.0041C30.9551 22.1128 31.1192 22.1739 31.2903 22.1739C31.4614 22.1739 31.6255 22.1128 31.7465 22.0041C31.8675 21.8954 31.9355 21.748 31.9355 21.5942C31.9355 21.4405 31.8675 21.293 31.7465 21.1843C31.6255 21.0756 31.4614 21.0145 31.2903 21.0145ZM33.871 21.0145C33.6999 21.0145 33.5358 21.0756 33.4148 21.1843C33.2938 21.293 33.2258 21.4405 33.2258 21.5942C33.2258 21.748 33.2938 21.8954 33.4148 22.0041C33.5358 22.1128 33.6999 22.1739 33.871 22.1739C34.0421 22.1739 34.2062 22.1128 34.3272 22.0041C34.4482 21.8954 34.5161 21.748 34.5161 21.5942C34.5161 21.4405 34.4482 21.293 34.3272 21.1843C34.2062 21.0756 34.0421 21.0145 33.871 21.0145ZM36.4516 21.0145C36.2805 21.0145 36.1164 21.0756 35.9954 21.1843C35.8744 21.293 35.8065 21.4405 35.8065 21.5942C35.8065 21.748 35.8744 21.8954 35.9954 22.0041C36.1164 22.1128 36.2805 22.1739 36.4516 22.1739C36.6227 22.1739 36.7868 22.1128 36.9078 22.0041C37.0288 21.8954 37.0968 21.748 37.0968 21.5942C37.0968 21.4405 37.0288 21.293 36.9078 21.1843C36.7868 21.0756 36.6227 21.0145 36.4516 21.0145ZM39.0323 21.0145C38.8611 21.0145 38.6971 21.0756 38.5761 21.1843C38.4551 21.293 38.3871 21.4405 38.3871 21.5942C38.3871 21.748 38.4551 21.8954 38.5761 22.0041C38.6971 22.1128 38.8611 22.1739 39.0323 22.1739C39.2034 22.1739 39.3675 22.1128 39.4885 22.0041C39.6094 21.8954 39.6774 21.748 39.6774 21.5942C39.6774 21.4405 39.6094 21.293 39.4885 21.1843C39.3675 21.0756 39.2034 21.0145 39.0323 21.0145ZM12.2379 23.2994L11.7755 23.6107L11.7124 23.8077L11.7049 23.8644L11.9078 24.3512L12.4622 24.4973L12.9246 24.1859L12.9877 23.99L12.9952 23.9323L12.7936 23.4454L12.2379 23.2994ZM47.3979 23.3345L47.0212 23.7285L47.0048 23.9323L47.0123 23.99L47.3248 24.426L47.902 24.4622L48.2787 24.0693L48.2951 23.8644L48.2875 23.8077L47.975 23.3707L47.3979 23.3345ZM11.9544 25.6624L11.4919 25.9737L11.4277 26.1707L11.4214 26.2285L11.623 26.7142L12.1774 26.8603L12.6399 26.5489L12.7041 26.353L12.7104 26.2953L12.5088 25.8084L11.9544 25.6624ZM47.6827 25.6975L47.3047 26.0915L47.2896 26.2953L47.2959 26.353L47.6096 26.7889L48.1855 26.8252L48.5635 26.4323L48.5786 26.2285L48.5723 26.1707L48.2586 25.7337L47.6827 25.6975ZM11.6696 28.0254L11.2072 28.3367L11.1442 28.5337L11.1366 28.5915L11.3382 29.0772L11.8939 29.2233L12.3551 28.9119L12.4194 28.716L12.4269 28.6583L12.224 28.1714L11.6696 28.0254ZM47.9662 28.0605L47.5895 28.4545L47.5731 28.6583L47.5806 28.716L47.8931 29.1519L48.4703 29.1882L48.847 28.7953L48.8634 28.5915L48.8558 28.5337L48.5433 28.0967L47.9662 28.0605ZM11.3848 30.3884L10.9236 30.7009L10.8594 30.8967L10.8518 30.9545L11.0547 31.4402L11.6091 31.5863L12.0716 31.2749L12.1346 31.079L12.1421 31.0213L11.9405 30.5344L11.3848 30.3884ZM48.251 30.4235L47.8742 30.8175L47.8579 31.0213L47.8654 31.079L48.1779 31.5149L48.755 31.5512L49.1318 31.1583L49.1482 30.9545L49.1406 30.8967L48.8281 30.4597L48.251 30.4235ZM11.1013 32.7514L10.6389 33.0639L10.5746 33.2597L10.5683 33.3175L10.7699 33.8043L11.3243 33.9493L11.7868 33.6379L11.8511 33.442L11.8574 33.3843L11.6557 32.8974L11.1013 32.7514ZM48.5358 32.7865L48.1578 33.1805L48.1426 33.3843L48.1489 33.442L48.4627 33.8779L49.0386 33.9142L49.4166 33.5213L49.4317 33.3175L49.4254 33.2597L49.1116 32.8227L48.5358 32.7865ZM10.8165 35.1144L10.3541 35.4269L10.2911 35.6227L10.2835 35.6805L10.4851 36.1673L11.0408 36.3123L11.5033 36.0009L11.5663 35.805L11.5738 35.7473L11.371 35.2604L10.8165 35.1144ZM48.8193 35.1495L48.4425 35.5435L48.4262 35.7473L48.4337 35.805L48.7462 36.2409L49.3233 36.2772L49.7001 35.8843L49.7165 35.6805L49.7089 35.6227L49.3964 35.1857L48.8193 35.1495ZM10.533 37.4774L10.0706 37.7899L10.0063 37.9857L10 38.0435L10.2016 38.5303L10.756 38.6764L11.2185 38.3639L11.2828 38.168L11.2891 38.1103L11.0874 37.6234L10.533 37.4774ZM49.1041 37.5125L48.7261 37.9065L48.7109 38.1103L48.7172 38.168L49.031 38.6039L49.6069 38.6402L49.9849 38.2473L50 38.0435L49.9937 37.9857L49.6812 37.5487L49.1041 37.5125ZM18.3871 40.7246C18.216 40.7246 18.0519 40.7857 17.9309 40.8944C17.8099 41.0031 17.7419 41.1506 17.7419 41.3043C17.7419 41.4581 17.8099 41.6055 17.9309 41.7143C18.0519 41.823 18.216 41.8841 18.3871 41.8841C18.5582 41.8841 18.7223 41.823 18.8433 41.7143C18.9643 41.6055 19.0323 41.4581 19.0323 41.3043C19.0323 41.1506 18.9643 41.0031 18.8433 40.8944C18.7223 40.7857 18.5582 40.7246 18.3871 40.7246ZM20.9677 40.7246C20.7966 40.7246 20.6325 40.7857 20.5115 40.8944C20.3906 41.0031 20.3226 41.1506 20.3226 41.3043C20.3226 41.4581 20.3906 41.6055 20.5115 41.7143C20.6325 41.823 20.7966 41.8841 20.9677 41.8841C21.1388 41.8841 21.3029 41.823 21.4239 41.7143C21.5449 41.6055 21.6129 41.4581 21.6129 41.3043C21.6129 41.1506 21.5449 41.0031 21.4239 40.8944C21.3029 40.7857 21.1388 40.7246 20.9677 40.7246ZM23.5484 40.7246C23.3773 40.7246 23.2132 40.7857 23.0922 40.8944C22.9712 41.0031 22.9032 41.1506 22.9032 41.3043C22.9032 41.4581 22.9712 41.6055 23.0922 41.7143C23.2132 41.823 23.3773 41.8841 23.5484 41.8841C23.7195 41.8841 23.8836 41.823 24.0046 41.7143C24.1256 41.6055 24.1935 41.4581 24.1935 41.3043C24.1935 41.1506 24.1256 41.0031 24.0046 40.8944C23.8836 40.7857 23.7195 40.7246 23.5484 40.7246ZM26.129 40.7246C25.9579 40.7246 25.7938 40.7857 25.6728 40.8944C25.5518 41.0031 25.4839 41.1506 25.4839 41.3043C25.4839 41.4581 25.5518 41.6055 25.6728 41.7143C25.7938 41.823 25.9579 41.8841 26.129 41.8841C26.3001 41.8841 26.4642 41.823 26.5852 41.7143C26.7062 41.6055 26.7742 41.4581 26.7742 41.3043C26.7742 41.1506 26.7062 41.0031 26.5852 40.8944C26.4642 40.7857 26.3001 40.7246 26.129 40.7246ZM28.7097 40.7246C28.5386 40.7246 28.3745 40.7857 28.2535 40.8944C28.1325 41.0031 28.0645 41.1506 28.0645 41.3043C28.0645 41.4581 28.1325 41.6055 28.2535 41.7143C28.3745 41.823 28.5386 41.8841 28.7097 41.8841C28.8808 41.8841 29.0449 41.823 29.1659 41.7143C29.2869 41.6055 29.3548 41.4581 29.3548 41.3043C29.3548 41.1506 29.2869 41.0031 29.1659 40.8944C29.0449 40.7857 28.8808 40.7246 28.7097 40.7246ZM31.2903 40.7246C31.1192 40.7246 30.9551 40.7857 30.8341 40.8944C30.7131 41.0031 30.6452 41.1506 30.6452 41.3043C30.6452 41.4581 30.7131 41.6055 30.8341 41.7143C30.9551 41.823 31.1192 41.8841 31.2903 41.8841C31.4614 41.8841 31.6255 41.823 31.7465 41.7143C31.8675 41.6055 31.9355 41.4581 31.9355 41.3043C31.9355 41.1506 31.8675 41.0031 31.7465 40.8944C31.6255 40.7857 31.4614 40.7246 31.2903 40.7246ZM33.871 40.7246C33.6999 40.7246 33.5358 40.7857 33.4148 40.8944C33.2938 41.0031 33.2258 41.1506 33.2258 41.3043C33.2258 41.4581 33.2938 41.6055 33.4148 41.7143C33.5358 41.823 33.6999 41.8841 33.871 41.8841C34.0421 41.8841 34.2062 41.823 34.3272 41.7143C34.4482 41.6055 34.5161 41.4581 34.5161 41.3043C34.5161 41.1506 34.4482 41.0031 34.3272 40.8944C34.2062 40.7857 34.0421 40.7246 33.871 40.7246ZM36.4516 40.7246C36.2805 40.7246 36.1164 40.7857 35.9954 40.8944C35.8744 41.0031 35.8065 41.1506 35.8065 41.3043C35.8065 41.4581 35.8744 41.6055 35.9954 41.7143C36.1164 41.823 36.2805 41.8841 36.4516 41.8841C36.6227 41.8841 36.7868 41.823 36.9078 41.7143C37.0288 41.6055 37.0968 41.4581 37.0968 41.3043C37.0968 41.1506 37.0288 41.0031 36.9078 40.8944C36.7868 40.7857 36.6227 40.7246 36.4516 40.7246ZM39.0323 40.7246C38.8611 40.7246 38.6971 40.7857 38.5761 40.8944C38.4551 41.0031 38.3871 41.1506 38.3871 41.3043C38.3871 41.4581 38.4551 41.6055 38.5761 41.7143C38.6971 41.823 38.8611 41.8841 39.0323 41.8841C39.2034 41.8841 39.3675 41.823 39.4885 41.7143C39.6094 41.6055 39.6774 41.4581 39.6774 41.3043C39.6774 41.1506 39.6094 41.0031 39.4885 40.8944C39.3675 40.7857 39.2034 40.7246 39.0323 40.7246ZM41.6129 40.7246C41.4418 40.7246 41.2777 40.7857 41.1567 40.8944C41.0357 41.0031 40.9677 41.1506 40.9677 41.3043C40.9677 41.4581 41.0357 41.6055 41.1567 41.7143C41.2777 41.823 41.4418 41.8841 41.6129 41.8841C41.784 41.8841 41.9481 41.823 42.0691 41.7143C42.1901 41.6055 42.2581 41.4581 42.2581 41.3043C42.2581 41.1506 42.1901 41.0031 42.0691 40.8944C41.9481 40.7857 41.784 40.7246 41.6129 40.7246ZM26.7742 45.942H33.2258C33.2258 47.55 31.7895 48.8406 30 48.8406C28.2105 48.8406 26.7742 47.55 26.7742 45.942Z" fill="#2395EC"/>
</svg>
