<svg width="30" height="30" viewBox="0 0 30 30" fill="none" xmlns="http://www.w3.org/2000/svg">
<path d="M3.94737 0C1.7767 0 0 1.8754 0 4.16667V25.8333C0 28.1246 1.7767 30 3.94737 30H26.0526C28.2233 30 30 28.1246 30 25.8333V4.16667C30 1.8754 28.2233 0 26.0526 0H3.94737ZM3.94737 1.66667H26.0526C27.3699 1.66667 28.4211 2.77626 28.4211 4.16667V25.8333C28.4211 27.2237 27.3699 28.3333 26.0526 28.3333H3.94737C2.63014 28.3333 1.57895 27.2237 1.57895 25.8333V4.16667C1.57895 2.77626 2.63014 1.66667 3.94737 1.66667ZM16.5789 5C15.2803 5 14.2105 6.12919 14.2105 7.5C14.2105 8.87081 15.2803 10 16.5789 10H17.3684V11.6667H16.5789C15.2803 11.6667 14.2105 12.7959 14.2105 14.1667C14.2105 15.5375 15.2803 16.6667 16.5789 16.6667C17.8776 16.6667 18.9474 15.5375 18.9474 14.1667V13.3333H20.5263V14.1667C20.5263 15.5375 21.5961 16.6667 22.8947 16.6667C24.1934 16.6667 25.2632 15.5375 25.2632 14.1667C25.2632 12.7959 24.1934 11.6667 22.8947 11.6667H22.1053V10H22.8947C24.1934 10 25.2632 8.87081 25.2632 7.5C25.2632 6.12919 24.1934 5 22.8947 5C21.5961 5 20.5263 6.12919 20.5263 7.5V8.33333H18.9474V7.5C18.9474 6.12919 17.8776 5 16.5789 5ZM16.5789 6.66667C17.025 6.66667 17.3684 7.02914 17.3684 7.5V8.33333H16.5789C16.1329 8.33333 15.7895 7.97086 15.7895 7.5C15.7895 7.02914 16.1329 6.66667 16.5789 6.66667ZM22.8947 6.66667C23.3408 6.66667 23.6842 7.02914 23.6842 7.5C23.6842 7.97086 23.3408 8.33333 22.8947 8.33333H22.1053V7.5C22.1053 7.02914 22.4487 6.66667 22.8947 6.66667ZM18.9474 10H20.5263V11.6667H18.9474V10ZM16.5789 13.3333H17.3684V14.1667C17.3684 14.6375 17.025 15 16.5789 15C16.1329 15 15.7895 14.6375 15.7895 14.1667C15.7895 13.6958 16.1329 13.3333 16.5789 13.3333ZM22.1053 13.3333H22.8947C23.3408 13.3333 23.6842 13.6958 23.6842 14.1667C23.6842 14.6375 23.3408 15 22.8947 15C22.4487 15 22.1053 14.6375 22.1053 14.1667V13.3333Z" fill="#03B3FF"/>
</svg>
