<svg width="85" height="72" viewBox="0 0 85 72" fill="none" xmlns="http://www.w3.org/2000/svg">
<path d="M78.215 42.71C79.35 40.555 80 38.105 80 35.5C80 28.879 75.841 23.243 69.999 21.022C69.999 21.015 70 21.008 70 21C70 9.402 60.598 0 49 0C39.216 0 31.019 6.701 28.687 15.757C27.211 15.272 25.638 15 24 15C16.308 15 9.977 20.793 9.11 28.252C3.906 29.353 0 33.969 0 39.5C0 45.851 5.149 51 11.5 51C11.677 51 11.852 50.988 12.026 50.978C12.022 51.153 12 51.324 12 51.5C12 62.822 21.178 72 32.5 72C38.937 72 44.675 69.028 48.434 64.386C50.612 66.611 53.64 68 57 68C61.65 68 65.674 65.35 67.666 61.482C68.718 61.817 69.837 62 71 62C77.075 62 82 57.075 82 51C82 47.689 80.53 44.727 78.215 42.71Z" fill="#74BCFF"/>
<path d="M62 58H56.25C53.765 58.75 51.75 56.735 51.75 54.25C51.75 51.917 53.532 50.021 55.805 49.795C55.783 49.614 55.75 49.437 55.75 49.25C55.75 46.765 57.765 44.75 60.25 44.75C61.688 44.75 62.953 45.436 63.777 46.486C63.917 43.85 66.079 41.75 68.75 41.75C71.511 41.75 73.75 43.989 73.75 46.75C73.75 47.196 73.673 47.62 73.563 48.032C74.205 47.255 75.163 46.75 76.25 46.75C78.031 46.75 79.484 48.085 79.705 49.805C79.886 49.783 80.063 49.75 80.25 49.75C82.735 49.75 84.75 51.765 84.75 54.25C84.75 56.735 82.735 58.75 80.25 58H70.75H65V59H62V58Z" fill="#FDFCEF"/>
<path d="M68.5 41C71.533 41 74 43.467 74 46.5C74 46.516 74 46.531 74 46.547C74.602 46.192 75.29 46 76 46C77.831 46 79.411 47.261 79.858 49.005C79.905 49.002 79.952 49 80 49C83.099 49 85.549 51.834 84.893 55.047C84.413 57.398 82.204 59 79.804 59H65.125C64.849 59 64.625 58.776 64.625 58.5C64.625 58.224 64.849 58 65.125 58H79.843C81.763 58 83.53 56.718 83.914 54.837C84.439 52.267 82.479 50 80 50C79.883 50 79.77 50.017 79.657 50.032L79.516 50.051C79.495 50.054 79.475 50.055 79.454 50.055C79.208 50.055 78.992 49.87 78.959 49.618C78.768 48.125 77.496 47 76 47C75.115 47 74.277 47.401 73.699 48.1C73.601 48.218 73.458 48.282 73.313 48.282C73.235 48.282 73.157 48.264 73.085 48.226C72.876 48.119 72.771 47.88 72.831 47.653C72.991 47.053 73.033 46.584 72.978 46.104C72.738 43.977 71.019 42.195 68.886 42.016C66.335 41.801 64.161 43.744 64.027 46.262C64.016 46.47 63.877 46.649 63.678 46.712C63.628 46.728 63.577 46.736 63.526 46.736C63.376 46.736 63.23 46.667 63.134 46.544C62.362 45.563 61.221 45 60 45C57.794 45 56 46.794 56 49C56 49.117 56.017 49.23 56.032 49.343L56.051 49.484C56.067 49.618 56.029 49.752 55.945 49.857C55.861 49.962 55.738 50.029 55.605 50.042C53.253 50.276 51.563 52.471 52.101 54.907C52.509 56.76 54.275 58 56.173 58H62.125C62.401 58 62.625 58.224 62.625 58.5C62.625 58.776 62.401 59 62.125 59H56.187C53.72 59 51.479 57.296 51.072 54.862C50.61 52.099 52.416 49.642 55.003 49.122C55.001 49.082 55 49.041 55 49C55 46.243 57.243 44 60 44C61.176 44 62.293 44.416 63.183 45.164C63.781 42.76 65.945 41 68.5 41Z" fill="#4C4C4C"/>
<path d="M70.25 48.25C71.653 48.25 72.859 49.249 73.163 50.591C73.53 50.369 73.949 50.25 74.375 50.25C75.577 50.25 76.573 51.147 76.728 52.318C76.931 52.273 77.124 52.25 77.313 52.25C78.842 52.25 80.124 53.45 80.231 54.982C80.24 55.12 80.137 55.239 79.999 55.249C79.993 55.249 79.987 55.249 79.981 55.249C79.851 55.249 79.741 55.148 79.732 55.017C79.643 53.746 78.581 52.749 77.313 52.749C77.084 52.749 76.843 52.791 76.575 52.876C76.553 52.883 76.53 52.886 76.508 52.886C76.453 52.886 76.398 52.866 76.352 52.832C76.288 52.785 76.25 52.703 76.25 52.623C76.25 51.589 75.409 50.748 74.375 50.748C73.928 50.748 73.49 50.916 73.144 51.221C73.097 51.262 73.038 51.284 72.979 51.284C72.947 51.284 72.916 51.278 72.886 51.265C72.798 51.23 72.738 51.148 72.731 51.053C72.629 49.761 71.54 48.748 70.252 48.748C70.044 48.748 69.827 48.782 69.57 48.855C69.547 48.862 69.523 48.865 69.5 48.865C69.391 48.865 69.293 48.792 69.261 48.683C69.223 48.55 69.3 48.412 69.433 48.374C69.733 48.29 69.994 48.25 70.25 48.25ZM56.367 49.75C57.693 49.75 58.875 50.647 59.241 51.932C59.279 52.065 59.202 52.203 59.069 52.241C59.046 52.248 59.023 52.251 59.001 52.251C58.892 52.251 58.792 52.179 58.761 52.069C58.456 50.998 57.472 50.251 56.368 50.251C56.251 50.251 56.138 50.265 56.026 50.28C56.014 50.282 56.003 50.283 55.991 50.283C55.87 50.283 55.762 50.191 55.745 50.066C55.726 49.929 55.822 49.803 55.959 49.785C56.092 49.766 56.228 49.75 56.367 49.75Z" fill="#4C4C4C"/>
<path d="M74.405 34H64.5C64.224 34 64 33.776 64 33.5C64 33.224 64.224 33 64.5 33H74.405C74.681 33 74.905 33.224 74.905 33.5C74.905 33.776 74.682 34 74.405 34ZM77.5 34H76.5C76.224 34 76 33.776 76 33.5C76 33.224 76.224 33 76.5 33H77.5C77.776 33 78 33.224 78 33.5C78 33.776 77.777 34 77.5 34ZM82.491 36H73.5C73.224 36 73 35.776 73 35.5C73 35.224 73.224 35 73.5 35H82.491C82.767 35 82.991 35.224 82.991 35.5C82.991 35.776 82.767 36 82.491 36ZM71.5 36H70.5C70.224 36 70 35.776 70 35.5C70 35.224 70.224 35 70.5 35H71.5C71.776 35 72 35.224 72 35.5C72 35.776 71.777 36 71.5 36ZM68.5 36H66.5C66.224 36 66 35.776 66 35.5C66 35.224 66.224 35 66.5 35H68.5C68.776 35 69 35.224 69 35.5C69 35.776 68.777 36 68.5 36ZM74.5 38H72.5C72.224 38 72 37.776 72 37.5C72 37.224 72.224 37 72.5 37H74.5C74.776 37 75 37.224 75 37.5C75 37.776 74.776 38 74.5 38ZM77.5 29C77.323 29 76.677 29 76.5 29C76.224 29 76 29.224 76 29.5C76 29.776 76.224 30 76.5 30C76.677 30 77.323 30 77.5 30C77.776 30 78 29.776 78 29.5C78 29.224 77.776 29 77.5 29ZM77.5 31C77.323 31 72.677 31 72.5 31C72.224 31 72 31.224 72 31.5C72 31.776 72.224 32 72.5 32C72.677 32 77.323 32 77.5 32C77.776 32 78 31.776 78 31.5C78 31.224 77.776 31 77.5 31ZM82.5 33C82.323 33 79.677 33 79.5 33C79.224 33 79 33.224 79 33.5C79 33.776 79.224 34 79.5 34C79.677 34 82.323 34 82.5 34C82.776 34 83 33.776 83 33.5C83 33.224 82.776 33 82.5 33ZM27 66H17C16.724 66 16.5 65.776 16.5 65.5C16.5 65.224 16.724 65 17 65H27C27.276 65 27.5 65.224 27.5 65.5C27.5 65.776 27.276 66 27 66ZM31 66H29C28.724 66 28.5 65.776 28.5 65.5C28.5 65.224 28.724 65 29 65H31C31.276 65 31.5 65.224 31.5 65.5C31.5 65.776 31.276 66 31 66ZM36 68H26C25.724 68 25.5 67.776 25.5 67.5C25.5 67.224 25.724 67 26 67H36C36.276 67 36.5 67.224 36.5 67.5C36.5 67.776 36.277 68 36 68ZM24 68H23C22.724 68 22.5 67.776 22.5 67.5C22.5 67.224 22.724 67 23 67H24C24.276 67 24.5 67.224 24.5 67.5C24.5 67.776 24.276 68 24 68ZM20.875 68H19C18.724 68 18.5 67.776 18.5 67.5C18.5 67.224 18.724 67 19 67H20.875C21.151 67 21.375 67.224 21.375 67.5C21.375 67.776 21.151 68 20.875 68ZM30 64H25C24.724 64 24.5 63.776 24.5 63.5C24.5 63.224 24.724 63 25 63H30C30.276 63 30.5 63.224 30.5 63.5C30.5 63.776 30.277 64 30 64ZM27 70H25C24.724 70 24.5 69.776 24.5 69.5C24.5 69.224 24.724 69 25 69H27C27.276 69 27.5 69.224 27.5 69.5C27.5 69.776 27.276 70 27 70Z" fill="white"/>
<path d="M18 23C18 23 16.183 23 14.25 23C12.317 23 10.75 21.433 10.75 19.5C10.75 17.719 12.085 16.266 13.805 16.045C13.777 15.866 13.75 15.687 13.75 15.5C13.75 13.567 15.317 12 17.25 12C18.282 12 19.2 12.455 19.84 13.165C20.225 11.357 21.828 10 23.75 10C25.959 10 27.75 11.791 27.75 14C27.75 14.191 27.72 14.374 27.694 14.558C28.122 14.214 28.658 14 29.25 14C30.478 14 31.495 14.887 31.705 16.055C31.884 16.027 32.063 16 32.25 16C34.183 16 35.75 17.567 35.75 19.5C35.75 21.433 34.183 23 32.25 23C30.317 23 25 23 25 23V24H18V23Z" fill="#FDFCEF"/>
<path d="M16 18.5C16.138 18.5 16.25 18.388 16.25 18.25C16.25 17.027 15.255 16.032 14.032 16.032C13.998 16.041 13.295 16.031 12.788 16.168C12.655 16.204 12.576 16.341 12.612 16.474C12.648 16.608 12.785 16.687 12.918 16.65C13.362 16.53 14.018 16.53 14.031 16.532C14.979 16.532 15.75 17.303 15.75 18.25C15.75 18.388 15.862 18.5 16 18.5ZM22.5 23C22.3674 23 22.2402 23.0527 22.1465 23.1464C22.0527 23.2402 22 23.3674 22 23.5C22 23.6326 22.0527 23.7598 22.1465 23.8536C22.2402 23.9473 22.3674 24 22.5 24C22.6326 24 22.7598 23.9473 22.8536 23.8536C22.9473 23.7598 23 23.6326 23 23.5C23 23.3674 22.9473 23.2402 22.8536 23.1464C22.7598 23.0527 22.6326 23 22.5 23Z" fill="#4C4C4C"/>
<path d="M10.418 21.157C10.923 22.889 12.622 24 14.426 24H17.75C18.026 24 18.25 23.776 18.25 23.5C18.25 23.224 18.026 23 17.75 23H14.355C13.112 23 11.92 22.299 11.469 21.141C10.714 19.202 12.005 17.28 13.868 17.041C14.002 17.023 14.123 16.953 14.204 16.845C14.285 16.737 14.319 16.601 14.298 16.468C14.275 16.314 14.25 16.16 14.25 16C14.25 14.346 15.596 13 17.25 13C18.1 13 18.888 13.355 19.469 14C19.594 14.139 19.79 14.198 19.969 14.148C20.151 14.099 20.29 13.953 20.329 13.769C20.67 12.165 22.109 11 23.75 11C25.68 11 27.25 12.57 27.25 14.5C27.25 14.643 27.229 14.78 27.209 14.918C27.18 15.121 27.272 15.356 27.451 15.458C27.63 15.56 27.847 15.576 28.007 15.448C28.372 15.155 28.801 15 29.25 15C30.216 15 31.042 15.691 31.213 16.644C31.261 16.911 31.509 17.09 31.782 17.049C31.936 17.025 32.09 17 32.25 17C34.22 17 35.753 18.908 35.096 20.974C34.7 22.218 33.46 23 32.154 23H24.75C24.474 23 24.25 23.224 24.25 23.5C24.25 23.776 24.474 24 24.75 24H32.093C34.013 24 35.78 22.718 36.164 20.837C36.689 18.267 34.729 16 32.25 16C32.191 16 32.134 16.002 32.076 16.006C31.662 14.82 30.539 14 29.25 14C28.901 14 28.561 14.061 28.239 14.18C28.074 11.847 26.124 10 23.75 10C21.919 10 20.284 11.127 19.597 12.774C18.917 12.276 18.095 12 17.25 12C15.044 12 13.25 13.794 13.25 16C13.25 16.048 13.251 16.095 13.254 16.142C11.152 16.682 9.75 18.869 10.418 21.157Z" fill="#4C4C4C"/>
<path d="M19.75 23C19.909 23 20.591 23 20.75 23C21.026 23 21.25 23.224 21.25 23.5C21.25 23.776 21.026 24 20.75 24C20.591 24 19.909 24 19.75 24C19.474 24 19.25 23.776 19.25 23.5C19.25 23.224 19.474 23 19.75 23Z" fill="#4C4C4C"/>
<path d="M54.407 32.474C53.984 32.474 53.562 32.447 53.147 32.394C53.091 31.244 52.439 30.297 51.373 29.846L51.242 29.79H51.22C50.925 29.686 50.618 29.634 50.307 29.634C49.603 29.634 48.921 29.902 48.363 30.395C47.707 29.887 47.122 29.304 46.616 28.656C47.632 27.506 47.476 26.364 47.146 25.586C46.685 24.516 45.816 23.919 44.622 23.848C44.515 23.032 44.513 22.204 44.617 21.385C45.858 21.318 46.747 20.693 47.198 19.566C47.498 18.788 47.616 17.663 46.602 16.552C47.107 15.896 47.69 15.31 48.339 14.803C48.928 15.35 49.578 15.629 50.275 15.629C50.654 15.629 51.046 15.544 51.44 15.377C52.224 15.051 53.136 14.338 53.193 12.786C53.592 12.736 54.001 12.711 54.408 12.711C54.82 12.711 55.238 12.736 55.656 12.789C55.716 14.474 56.748 15.184 57.636 15.482C57.948 15.586 58.26 15.639 58.564 15.639C59.273 15.639 59.927 15.361 60.514 14.812C61.163 15.316 61.743 15.901 62.248 16.559C61.186 17.703 61.327 18.863 61.652 19.657C62.114 20.77 63.006 21.377 64.24 21.423C64.327 22.044 64.317 23.244 64.222 23.886C62.634 23.965 61.928 24.91 61.615 25.708C61.316 26.47 61.193 27.585 62.186 28.704C61.674 29.352 61.085 29.933 60.43 30.433C59.84 29.91 59.196 29.641 58.515 29.641C58.074 29.641 57.619 29.756 57.162 29.983C56.201 30.471 55.683 31.284 55.615 32.402C55.213 32.449 54.807 32.474 54.407 32.474ZM54.41 20.518C53.268 20.518 52.34 21.447 52.34 22.588C52.34 23.729 53.269 24.658 54.41 24.658C55.551 24.658 56.48 23.729 56.48 22.588C56.48 21.447 55.552 20.518 54.41 20.518Z" fill="#9EABB7"/>
<path d="M54.408 13.409C54.61 13.409 54.813 13.416 55.02 13.43C55.252 14.749 56.078 15.696 57.413 16.144C57.797 16.273 58.184 16.338 58.564 16.338C59.081 16.338 59.782 16.214 60.507 15.713C60.805 15.975 61.086 16.259 61.349 16.562C60.647 17.577 60.521 18.742 61.006 19.927C61.491 21.095 62.394 21.831 63.591 22.052C63.606 22.429 63.603 22.879 63.582 23.255C62.35 23.49 61.435 24.249 60.962 25.451C60.522 26.576 60.64 27.693 61.29 28.68C61.019 28.985 60.728 29.272 60.418 29.538C59.824 29.14 59.187 28.939 58.514 28.939C57.964 28.939 57.404 29.078 56.839 29.359C56.103 29.733 55.256 30.443 54.991 31.754C54.796 31.766 54.6 31.772 54.407 31.772C54.192 31.772 53.977 31.764 53.764 31.75C53.518 30.608 52.754 29.669 51.644 29.199L51.382 29.088H51.329C50.996 28.984 50.652 28.931 50.303 28.931C49.619 28.931 48.956 29.131 48.377 29.502C48.067 29.232 47.776 28.943 47.506 28.636C48.174 27.624 48.277 26.469 47.784 25.301C47.3 24.177 46.42 23.46 45.259 23.223C45.231 22.82 45.23 22.415 45.257 22.005C46.465 21.766 47.369 21.009 47.85 19.806C48.292 18.661 48.162 17.534 47.496 16.556C47.758 16.255 48.04 15.971 48.344 15.703C48.939 16.116 49.584 16.324 50.271 16.324C50.744 16.324 51.228 16.221 51.7 16.021C52.873 15.533 53.604 14.629 53.822 13.425C54.02 13.416 54.214 13.409 54.408 13.409ZM54.41 25.358C55.937 25.358 57.18 24.115 57.18 22.588C57.18 21.061 55.937 19.818 54.41 19.818C52.883 19.818 51.64 21.061 51.64 22.588C51.64 24.115 52.883 25.358 54.41 25.358ZM54.408 12.009C53.848 12.009 53.292 12.054 52.743 12.143C52.591 12.169 52.485 12.302 52.492 12.454C52.545 13.592 52.108 14.34 51.168 14.731C50.859 14.862 50.562 14.927 50.276 14.927C49.678 14.927 49.124 14.642 48.6 14.069C48.539 14.005 48.457 13.971 48.376 13.971C48.315 13.971 48.254 13.99 48.203 14.03C47.29 14.692 46.489 15.499 45.834 16.413C45.748 16.532 45.761 16.704 45.874 16.81C46.688 17.565 46.906 18.379 46.549 19.305C46.178 20.232 45.473 20.69 44.393 20.69C44.355 20.69 44.317 20.689 44.278 20.688C44.274 20.688 44.27 20.688 44.265 20.688C44.118 20.688 43.993 20.798 43.973 20.946C43.794 22.045 43.794 23.17 43.98 24.288C44.006 24.434 44.132 24.539 44.278 24.539C44.31 24.538 44.341 24.538 44.372 24.538C45.431 24.538 46.122 24.975 46.502 25.856C46.899 26.796 46.694 27.63 45.886 28.404C45.78 28.503 45.76 28.675 45.846 28.795C46.508 29.708 47.309 30.503 48.215 31.158C48.228 31.171 48.248 31.178 48.268 31.184C48.303 31.2 48.342 31.207 48.382 31.207C48.461 31.207 48.544 31.178 48.606 31.125C48.632 31.105 48.652 31.085 48.666 31.072C49.131 30.589 49.717 30.333 50.307 30.333C50.566 30.333 50.825 30.382 51.075 30.483C51.082 30.483 51.095 30.49 51.101 30.49C51.961 30.854 52.464 31.642 52.451 32.601C52.451 32.78 52.517 33.005 52.848 33.058C53.366 33.136 53.887 33.174 54.409 33.174C54.907 33.174 55.405 33.139 55.9 33.071C55.94 33.058 55.986 33.051 56.026 33.045L56.066 33.038C56.205 33.012 56.311 32.879 56.311 32.733C56.291 31.707 56.668 31.019 57.476 30.608C57.835 30.43 58.182 30.34 58.517 30.34C59.102 30.34 59.653 30.613 60.183 31.164C60.242 31.223 60.32 31.254 60.399 31.254C60.46 31.254 60.522 31.235 60.574 31.198C61.494 30.543 62.295 29.749 62.957 28.848C63.043 28.729 63.03 28.557 62.917 28.451C62.123 27.69 61.911 26.876 62.268 25.962C62.635 25.029 63.352 24.578 64.444 24.578C64.475 24.578 64.507 24.578 64.538 24.579C64.543 24.579 64.547 24.579 64.552 24.579C64.685 24.579 64.798 24.488 64.836 24.367C65.048 23.672 65.061 21.548 64.849 20.925C64.811 20.804 64.692 20.719 64.565 20.719C64.56 20.719 64.556 20.719 64.551 20.719C64.497 20.721 64.445 20.722 64.393 20.722C63.362 20.722 62.673 20.283 62.301 19.388C61.911 18.435 62.129 17.601 62.976 16.82C63.089 16.714 63.108 16.542 63.022 16.423C62.36 15.496 61.559 14.689 60.646 14.034C60.593 13.995 60.531 13.976 60.471 13.976C60.388 13.976 60.306 14.012 60.249 14.08C59.739 14.648 59.175 14.936 58.565 14.936C58.336 14.936 58.101 14.896 57.86 14.815C56.794 14.458 56.305 13.69 56.358 12.452C56.365 12.293 56.252 12.161 56.1 12.141C55.532 12.054 54.968 12.009 54.408 12.009ZM54.41 23.958C53.652 23.958 53.04 23.346 53.04 22.588C53.04 21.83 53.652 21.218 54.41 21.218C55.168 21.218 55.78 21.83 55.78 22.588C55.78 23.346 55.168 23.958 54.41 23.958Z" fill="#4C4C4C"/>
<path d="M54.411 17.609C51.667 17.609 49.432 19.843 49.432 22.588C49.432 25.333 51.666 27.567 54.411 27.567C57.155 27.567 59.39 25.333 59.39 22.588C59.39 21.558 59.075 20.6 58.537 19.805C58.332 19.502 58.094 19.222 57.828 18.971C57.508 18.668 57.147 18.407 56.756 18.197C56.403 18.008 56.025 17.86 55.629 17.76C55.238 17.661 54.831 17.609 54.411 17.609ZM54.411 20.297C55.671 20.297 56.702 21.328 56.702 22.588C56.702 23.848 55.671 24.879 54.411 24.879C53.151 24.879 52.12 23.848 52.12 22.588C52.12 21.328 53.151 20.297 54.411 20.297Z" fill="#4C4C4C"/>
<path d="M29.671 58.179C28.337 57.849 26.988 57.301 25.724 56.558C26.386 54.857 26.099 53.389 24.872 52.186C24.101 51.442 23.226 51.066 22.268 51.066C21.723 51.066 21.143 51.19 20.541 51.435C19.797 50.198 19.237 48.872 18.885 47.503C20.603 46.763 21.448 45.503 21.408 43.751C21.368 42.062 20.503 40.864 18.836 40.188C19.177 38.789 19.715 37.462 20.44 36.225C21.063 36.484 21.66 36.615 22.219 36.615C23.213 36.615 24.11 36.213 24.882 35.42C26.097 34.191 26.34 32.704 25.606 31.004C26.828 30.264 28.151 29.709 29.55 29.346C30.256 31.076 31.482 31.957 33.192 31.957C33.313 31.957 33.436 31.952 33.563 31.943C35.138 31.824 36.292 30.921 36.916 29.327C38.273 29.665 39.613 30.217 40.865 30.965C40.142 32.697 40.404 34.193 41.643 35.416C42.416 36.18 43.3 36.566 44.27 36.566C44.835 36.566 45.437 36.431 46.062 36.167C46.59 36.931 47.5 39.138 47.683 40.114C45.953 40.853 45.097 42.115 45.129 43.87C45.169 45.535 46.022 46.732 47.665 47.435C47.316 48.815 46.766 50.139 46.026 51.371C45.426 51.138 44.848 51.018 44.308 51.018C43.212 51.018 42.248 51.496 41.443 52.437C40.443 53.596 40.253 54.968 40.878 56.516C39.615 57.265 38.295 57.81 36.917 58.161C36.297 56.598 34.921 55.652 33.258 55.652H33.093L33.067 55.663C31.562 55.735 30.276 56.686 29.671 58.179ZM33.252 40.29C31.346 40.29 29.795 41.841 29.795 43.747C29.795 45.653 31.346 47.204 33.252 47.204C35.158 47.204 36.709 45.653 36.709 43.747C36.709 41.841 35.158 40.29 33.252 40.29Z" fill="#9EABB7"/>
<path d="M37.3 30.163C38.234 30.437 39.138 30.81 40.005 31.281C39.326 33.472 40.218 34.993 41.151 35.915C42.06 36.812 43.109 37.267 44.269 37.267C44.747 37.267 45.243 37.187 45.755 37.025C46.129 37.738 46.62 38.914 46.865 39.73C44.831 40.826 44.404 42.558 44.428 43.891C44.458 45.135 44.918 46.756 46.835 47.809C46.555 48.753 46.175 49.663 45.703 50.526C45.222 50.389 44.755 50.32 44.307 50.32C42.997 50.32 41.854 50.88 40.915 51.979C40.161 52.853 39.451 54.266 40.023 56.201C39.157 56.67 38.246 57.048 37.301 57.33C36.466 55.849 34.967 54.953 33.256 54.953L32.88 54.96L32.846 54.977C31.34 55.11 30.042 55.983 29.291 57.344C28.349 57.07 27.436 56.697 26.569 56.233C27.178 54.085 26.282 52.592 25.352 51.68C24.451 50.808 23.412 50.366 22.265 50.366C21.81 50.366 21.338 50.438 20.856 50.581C20.379 49.713 19.998 48.81 19.715 47.877C21.72 46.779 22.136 45.056 22.106 43.734C22.076 42.465 21.607 40.823 19.66 39.8C19.929 38.861 20.297 37.952 20.759 37.085C21.259 37.238 21.747 37.315 22.218 37.315C23.408 37.315 24.473 36.842 25.376 35.915C26.293 34.986 27.162 33.464 26.469 31.312C27.32 30.844 28.221 30.466 29.165 30.18C30.226 32.203 31.902 32.656 33.19 32.656C33.327 32.656 33.467 32.651 33.617 32.64C35.242 32.518 36.52 31.657 37.3 30.163ZM33.252 47.904C35.544 47.904 37.409 46.039 37.409 43.747C37.409 41.455 35.544 39.59 33.252 39.59C30.96 39.59 29.095 41.455 29.095 43.747C29.095 46.039 30.96 47.904 33.252 47.904ZM36.744 28.585C36.56 28.585 36.391 28.702 36.333 28.887C35.823 30.348 34.879 31.141 33.514 31.244C33.404 31.252 33.297 31.256 33.192 31.256C31.715 31.256 30.715 30.483 30.123 28.887C30.054 28.709 29.889 28.598 29.709 28.598C29.673 28.598 29.636 28.602 29.6 28.612C27.96 29.012 26.43 29.66 25.044 30.528C24.851 30.645 24.782 30.886 24.879 31.093C25.596 32.602 25.437 33.864 24.383 34.932C23.742 35.59 23.025 35.916 22.221 35.916C21.694 35.916 21.129 35.776 20.523 35.498C20.462 35.47 20.399 35.456 20.336 35.456C20.185 35.456 20.041 35.534 19.958 35.67C19.096 37.09 18.469 38.634 18.104 40.246C18.049 40.46 18.166 40.687 18.38 40.763C19.917 41.321 20.675 42.307 20.709 43.768C20.743 45.291 19.999 46.325 18.421 46.938C18.214 47.014 18.097 47.241 18.152 47.455C18.538 49.054 19.186 50.577 20.061 51.99C20.15 52.123 20.295 52.2 20.444 52.2C20.503 52.2 20.563 52.188 20.62 52.162C21.209 51.898 21.757 51.766 22.269 51.766C23.051 51.766 23.75 52.074 24.383 52.686C25.451 53.734 25.651 54.974 24.996 56.49C24.906 56.69 24.982 56.924 25.168 57.041C26.588 57.903 28.118 58.53 29.724 58.902C29.752 58.909 29.779 58.909 29.807 58.909C29.979 58.909 30.159 58.792 30.234 58.633C30.262 58.592 30.275 58.557 30.289 58.523C30.792 57.2 31.916 56.373 33.218 56.359C33.232 56.352 33.246 56.352 33.259 56.352C34.637 56.352 35.761 57.138 36.291 58.447C36.377 58.647 36.543 58.871 36.868 58.871C36.935 58.871 37.009 58.861 37.09 58.84C38.551 58.468 39.943 57.889 41.232 57.124C41.287 57.09 41.342 57.048 41.391 57.021L41.439 56.987C41.618 56.87 41.687 56.635 41.604 56.436C40.991 55.058 41.108 53.9 41.976 52.894C42.647 52.109 43.418 51.721 44.308 51.721C44.818 51.721 45.367 51.848 45.959 52.102C46.013 52.125 46.07 52.135 46.127 52.135C46.278 52.135 46.425 52.058 46.511 51.922C47.386 50.509 48.02 48.979 48.399 47.38C48.447 47.166 48.337 46.946 48.13 46.87C46.614 46.284 45.863 45.299 45.828 43.858C45.8 42.342 46.552 41.301 48.13 40.688C48.316 40.619 48.426 40.426 48.406 40.233C48.303 39.165 47.103 36.277 46.469 35.553C46.383 35.458 46.261 35.407 46.139 35.407C46.075 35.407 46.011 35.421 45.952 35.449C45.352 35.727 44.792 35.867 44.268 35.867C43.481 35.867 42.775 35.552 42.133 34.919C41.058 33.858 40.886 32.59 41.589 31.053C41.685 30.846 41.617 30.605 41.424 30.488C39.997 29.606 38.46 28.972 36.848 28.6C36.814 28.589 36.779 28.585 36.744 28.585ZM33.252 46.504C31.729 46.504 30.495 45.27 30.495 43.747C30.495 42.224 31.729 40.99 33.252 40.99C34.775 40.99 36.009 42.224 36.009 43.747C36.009 45.27 34.775 46.504 33.252 46.504Z" fill="#4C4C4C"/>
<path d="M33.252 35.034C28.448 35.034 24.539 38.942 24.539 43.747C24.539 48.552 28.447 52.46 33.252 52.46C38.057 52.46 41.965 48.552 41.965 43.747C41.965 38.942 38.056 35.034 33.252 35.034ZM33.252 49.348C30.165 49.348 27.651 46.834 27.651 43.747C27.651 40.66 30.165 38.146 33.252 38.146C36.339 38.146 38.853 40.66 38.853 43.747C38.853 46.834 36.338 49.348 33.252 49.348Z" fill="#4C4C4C"/>
<path d="M33.75 52.695C33.618 52.695 33.508 52.592 33.5 52.46C33.492 52.321 33.598 52.203 33.735 52.195C35.352 52.103 36.9 51.551 38.214 50.598C38.324 50.517 38.481 50.541 38.563 50.654C38.644 50.765 38.62 50.922 38.507 51.003C37.116 52.013 35.477 52.598 33.765 52.695C33.76 52.695 33.755 52.695 33.75 52.695ZM32.467 52.675C32.46 52.675 32.452 52.675 32.445 52.674C28.56 52.324 25.371 49.532 24.509 45.727C24.479 45.592 24.564 45.458 24.697 45.427C24.842 45.398 24.967 45.482 24.997 45.616C25.81 49.21 28.821 51.845 32.489 52.176C32.627 52.189 32.728 52.31 32.716 52.447C32.704 52.577 32.595 52.675 32.467 52.675ZM39.583 49.977C39.521 49.977 39.46 49.955 39.411 49.909C39.31 49.814 39.307 49.656 39.401 49.555C39.925 49 40.375 48.375 40.734 47.699C40.798 47.576 40.952 47.533 41.072 47.595C41.194 47.659 41.24 47.811 41.176 47.933C40.795 48.65 40.321 49.311 39.765 49.899C39.716 49.95 39.649 49.977 39.583 49.977ZM33.252 49.598C30.025 49.598 27.4 46.973 27.4 43.747C27.4 40.52 30.025 37.895 33.252 37.895C36.478 37.895 39.103 40.52 39.103 43.747C39.103 46.973 36.478 49.598 33.252 49.598ZM33.252 38.396C30.301 38.396 27.9 40.796 27.9 43.748C27.9 46.698 30.3 49.099 33.252 49.099C36.202 49.099 38.603 46.699 38.603 43.748C38.603 40.796 36.202 38.396 33.252 38.396ZM41.581 46.556C41.557 46.556 41.532 46.552 41.508 46.545C41.376 46.504 41.302 46.364 41.342 46.232C41.589 45.43 41.714 44.593 41.714 43.747C41.714 40.755 40.105 37.955 37.515 36.438C37.396 36.369 37.356 36.215 37.425 36.096C37.495 35.975 37.649 35.936 37.767 36.006C40.51 37.611 42.214 40.577 42.214 43.746C42.214 44.642 42.081 45.528 41.82 46.378C41.787 46.486 41.688 46.556 41.581 46.556ZM24.539 43.997C24.401 43.997 24.289 43.885 24.289 43.747C24.289 38.805 28.31 34.784 33.252 34.784C33.826 34.784 34.403 34.84 34.969 34.949C35.104 34.975 35.193 35.106 35.166 35.242C35.14 35.377 35.014 35.472 34.873 35.439C34.34 35.336 33.794 35.284 33.252 35.284C28.586 35.284 24.789 39.081 24.789 43.747C24.789 43.885 24.677 43.997 24.539 43.997ZM36.8 36.04C36.766 36.04 36.731 36.033 36.697 36.019C36.412 35.89 36.115 35.777 35.816 35.682C35.685 35.64 35.612 35.499 35.654 35.368C35.696 35.237 35.836 35.164 35.968 35.206C36.284 35.307 36.599 35.427 36.902 35.562C37.028 35.619 37.084 35.767 37.028 35.893C36.986 35.985 36.896 36.04 36.8 36.04Z" fill="#4C4C4C"/>
<path d="M41.915 44.285C41.898 44.285 41.881 44.283 41.863 44.28L38.775 43.63C38.64 43.601 38.553 43.469 38.582 43.333C38.611 43.198 38.738 43.117 38.879 43.14L41.967 43.79C42.102 43.819 42.189 43.951 42.16 44.087C42.135 44.204 42.031 44.285 41.915 44.285ZM38.563 42.161C38.425 42.161 38.313 42.05 38.313 41.912C38.313 41.773 38.424 41.661 38.562 41.661L41.717 41.65C41.855 41.65 41.968 41.761 41.968 41.899C41.968 42.038 41.857 42.15 41.719 42.15L38.563 42.161ZM59.22 23.772C59.196 23.772 59.17 23.768 59.145 23.76L56.267 22.854C56.135 22.813 56.062 22.672 56.104 22.541C56.145 22.41 56.282 22.336 56.417 22.378L59.295 23.284C59.427 23.325 59.5 23.466 59.458 23.597C59.425 23.704 59.326 23.772 59.22 23.772ZM52.858 27.558C52.813 27.558 52.767 27.546 52.727 27.521C52.609 27.449 52.573 27.294 52.645 27.177L54.43 24.284C54.503 24.165 54.659 24.129 54.774 24.202C54.892 24.274 54.928 24.429 54.856 24.546L53.071 27.439C53.023 27.516 52.942 27.558 52.858 27.558ZM50.987 26.22C50.911 26.22 50.836 26.185 50.787 26.119C50.704 26.008 50.727 25.851 50.838 25.769L53.299 23.94C53.411 23.859 53.567 23.881 53.649 23.992C53.732 24.103 53.709 24.26 53.598 24.342L51.137 26.171C51.092 26.204 51.039 26.22 50.987 26.22ZM52.873 21.715C52.756 21.715 52.652 21.633 52.628 21.515L51.966 18.248C51.939 18.112 52.027 17.98 52.161 17.953C52.295 17.927 52.428 18.014 52.456 18.148L53.118 21.415C53.145 21.551 53.057 21.683 52.923 21.71C52.906 21.713 52.89 21.715 52.873 21.715ZM54.128 20.917C54.12 20.917 54.111 20.917 54.103 20.916C53.966 20.902 53.866 20.779 53.879 20.642L54.179 17.655C54.194 17.518 54.298 17.418 54.453 17.431C54.59 17.445 54.69 17.568 54.677 17.705L54.377 20.692C54.363 20.821 54.255 20.917 54.128 20.917ZM32.942 38.418C32.924 38.418 32.906 38.416 32.887 38.412C32.752 38.381 32.667 38.247 32.698 38.113L33.394 35.035C33.424 34.901 33.554 34.813 33.693 34.846C33.828 34.877 33.913 35.011 33.882 35.145L33.186 38.223C33.16 38.339 33.057 38.418 32.942 38.418ZM29.872 39.383C29.748 39.383 29.641 39.291 29.624 39.166L29.208 36.038C29.19 35.901 29.286 35.775 29.423 35.757C29.571 35.743 29.686 35.835 29.704 35.972L30.12 39.1C30.138 39.237 30.042 39.363 29.905 39.381C29.894 39.382 29.883 39.383 29.872 39.383ZM31.38 38.668C31.379 38.668 31.379 38.668 31.378 38.668C31.24 38.667 31.129 38.555 31.13 38.416L31.152 35.261C31.153 35.123 31.264 35.013 31.402 35.013C31.403 35.013 31.403 35.013 31.404 35.013C31.542 35.014 31.653 35.126 31.652 35.265L31.63 38.42C31.629 38.558 31.518 38.668 31.38 38.668ZM37.728 40.594C37.601 40.594 37.493 40.498 37.479 40.37C37.465 40.232 37.565 40.109 37.702 40.095L40.841 39.765C40.983 39.751 41.102 39.851 41.116 39.988C41.13 40.126 41.03 40.249 40.893 40.263L37.754 40.593C37.745 40.594 37.736 40.594 37.728 40.594ZM30.819 52.306C30.778 52.306 30.736 52.296 30.698 52.275C30.577 52.209 30.534 52.056 30.6 51.935L32.127 49.174C32.194 49.054 32.348 49.009 32.467 49.076C32.588 49.142 32.631 49.295 32.565 49.416L31.038 52.177C30.992 52.259 30.907 52.306 30.819 52.306ZM28.49 51.145C28.412 51.145 28.335 51.108 28.286 51.04C28.206 50.927 28.233 50.77 28.346 50.691L30.923 48.871C31.036 48.791 31.193 48.819 31.272 48.931C31.352 49.044 31.325 49.201 31.212 49.28L28.635 51.1C28.591 51.13 28.54 51.145 28.49 51.145ZM26.791 49.763C26.699 49.763 26.61 49.712 26.566 49.623C26.505 49.5 26.556 49.35 26.68 49.288L29.509 47.891C29.631 47.83 29.782 47.88 29.844 48.005C29.905 48.128 29.854 48.278 29.73 48.34L26.901 49.737C26.866 49.755 26.828 49.763 26.791 49.763Z" fill="#4C4C4C"/>
<path d="M25.691 48.22C25.587 48.22 25.489 48.154 25.454 48.049C25.41 47.918 25.481 47.777 25.612 47.733L28.606 46.735C28.736 46.693 28.878 46.762 28.922 46.893C28.966 47.024 28.895 47.165 28.764 47.209L25.77 48.207C25.744 48.216 25.718 48.22 25.691 48.22Z" fill="#4C4C4C"/>
<path d="M54.411 27.816C51.527 27.816 49.182 25.47 49.182 22.587C49.182 22.449 49.294 22.337 49.432 22.337C49.57 22.337 49.682 22.449 49.682 22.587C49.682 25.194 51.804 27.316 54.411 27.316C55.156 27.316 55.869 27.147 56.532 26.812C56.655 26.753 56.805 26.799 56.868 26.923C56.93 27.046 56.881 27.196 56.757 27.259C56.034 27.624 55.224 27.816 54.411 27.816ZM57.819 26.463C57.753 26.463 57.686 26.437 57.636 26.384C57.542 26.283 57.547 26.125 57.648 26.03C58.595 25.139 59.139 23.884 59.139 22.588C59.139 21.44 58.719 20.33 57.957 19.465C57.865 19.361 57.876 19.203 57.979 19.112C58.081 19.02 58.24 19.03 58.332 19.134C59.175 20.09 59.639 21.317 59.639 22.587C59.639 24.021 59.038 25.408 57.99 26.395C57.942 26.44 57.881 26.463 57.819 26.463ZM54.411 25.128C53.01 25.128 51.87 23.988 51.87 22.588C51.87 21.187 53.01 20.047 54.411 20.047C55.811 20.047 56.951 21.187 56.951 22.588C56.951 23.988 55.812 25.128 54.411 25.128ZM54.411 20.547C53.286 20.547 52.37 21.463 52.37 22.588C52.37 23.713 53.286 24.628 54.411 24.628C55.536 24.628 56.451 23.713 56.451 22.588C56.451 21.463 55.536 20.547 54.411 20.547ZM50.173 20.228C50.128 20.228 50.082 20.216 50.041 20.191C49.924 20.118 49.888 19.964 49.96 19.846C50.923 18.289 52.587 17.36 54.411 17.36C54.848 17.36 55.282 17.415 55.704 17.522C55.838 17.556 55.919 17.692 55.885 17.826C55.852 17.96 55.714 18.039 55.581 18.007C55.199 17.909 54.806 17.861 54.411 17.861C52.762 17.861 51.257 18.702 50.386 20.111C50.338 20.186 50.257 20.228 50.173 20.228ZM57.462 18.907C57.408 18.907 57.355 18.889 57.309 18.854C57.05 18.653 56.774 18.48 56.487 18.339C56.363 18.278 56.311 18.129 56.372 18.005C56.432 17.88 56.582 17.827 56.706 17.89C57.024 18.045 57.331 18.238 57.616 18.459C57.725 18.544 57.745 18.701 57.66 18.81C57.61 18.874 57.536 18.907 57.462 18.907Z" fill="#4C4C4C"/>
</svg>
