<svg width="30" height="30" viewBox="0 0 30 30" fill="none" xmlns="http://www.w3.org/2000/svg">
<path d="M16.95 1.8C14.5824 1.8 12.916 3.56148 11.7562 5.45508C10.7381 7.11705 10.0229 8.92883 9.46756 10.8H5.99998L5.39998 12H9.1324C8.82694 13.1786 8.5702 14.3724 8.34021 15.5637C7.90941 17.7957 7.54425 20.0429 7.00545 22.2527C6.63225 23.7839 6.1493 26.957 4.3031 27.4922C3.2777 27.7898 2.60986 27.2204 2.85466 26.7902C3.24946 26.5586 3.5254 26.1551 3.5824 25.6793C3.6016 25.6103 3.61258 25.5468 3.59998 25.5C3.59998 24.6714 2.92858 24 2.09998 24C1.27198 24 0.599977 24.6714 0.599977 25.5C0.599977 25.5 0.533977 28.2 3.44998 28.2C7.37038 28.2 9.14919 23.8804 10.0828 20.707C10.9212 17.8566 11.3558 14.9067 11.9719 12H15.6L16.2 10.8H12.239C12.5651 9.41241 12.9495 8.03696 13.4601 6.70547C13.9179 5.51147 14.7108 2.91042 16.098 2.50782C17.1234 2.21022 17.7913 2.78014 17.5465 3.21094C17.1493 3.44374 16.8722 3.85068 16.8176 4.33008C16.7984 4.39548 16.7886 4.4562 16.8 4.5C16.8 5.3286 17.4714 6 18.3 6C19.1286 6 19.8 5.3286 19.8 4.5C19.8 4.5 19.866 1.8 16.95 1.8ZM20.7269 10.8C18.9791 10.8 17.6316 12.7861 16.8 14.6941L17.9965 14.8734C18.4093 13.7574 19.0869 12.6 19.9605 12.6C20.9061 12.6 21.217 13.4466 21.4324 14.5266L21.8883 16.8H21.8824C21.9003 16.8782 21.9464 17.077 21.9668 17.1656L18.7969 20.7094C18.5845 20.5192 18.3072 20.4 18 20.4C17.337 20.4 16.8 20.937 16.8 21.6C16.8 22.263 17.337 22.8 18 22.8C18.3702 22.8 18.6974 22.6292 18.9176 22.3652L18.9211 22.3688L22.2972 18.5953C22.3751 18.9307 22.4077 19.0717 22.5058 19.4941C22.9438 21.3541 23.5676 22.8 25.4636 22.8C27.2156 22.8 28.566 20.8139 29.4 18.9059L28.2 18.7266C27.786 19.8426 27.1084 21 26.2324 21C25.2844 21 24.9718 20.1534 24.7558 19.0734L24.3 16.8C24.2828 16.7249 24.2386 16.5333 24.2191 16.4484L27.4019 12.8906C27.6143 13.0808 27.8922 13.2 28.2 13.2C28.863 13.2 29.4 12.663 29.4 12C29.4 11.337 28.863 10.8 28.2 10.8C27.8394 10.8 27.5202 10.9623 27.3 11.2137L27.2953 11.2102L23.8886 15.0188C23.81 14.6795 23.7771 14.5348 23.6777 14.1059C23.2409 12.2459 22.6181 10.8 20.7269 10.8Z" fill="#B6296C"/>
</svg>
