<svg width="30" height="30" viewBox="0 0 30 30" fill="none" xmlns="http://www.w3.org/2000/svg">
<path d="M11.25 23.75H10.625C8.5625 23.75 6.875 22.0625 6.875 20V15.625H8.125V20C8.125 21.375 9.25 22.5 10.625 22.5H11.25V23.75Z" fill="#CFD8DC"/>
<path d="M18.4375 2.5C17.0285 2.5 15.6773 3.05971 14.681 4.056C13.6847 5.05228 13.125 6.40354 13.125 7.8125C13.125 9.22146 13.6847 10.5727 14.681 11.569C15.6773 12.5653 17.0285 13.125 18.4375 13.125C19.8465 13.125 21.1977 12.5653 22.194 11.569C23.1903 10.5727 23.75 9.22146 23.75 7.8125C23.75 6.40354 23.1903 5.05228 22.194 4.056C21.1977 3.05971 19.8465 2.5 18.4375 2.5Z" fill="#66B4EF"/>
<path d="M23.125 8.6875C21.9647 8.6875 20.8519 9.14844 20.0314 9.96891C19.2109 10.7894 18.75 11.9022 18.75 13.0625C18.75 14.2228 19.2109 15.3356 20.0314 16.1561C20.8519 16.9766 21.9647 17.4375 23.125 17.4375C24.2853 17.4375 25.3981 16.9766 26.2186 16.1561C27.0391 15.3356 27.5 14.2228 27.5 13.0625C27.5 11.9022 27.0391 10.7894 26.2186 9.96891C25.3981 9.14844 24.2853 8.6875 23.125 8.6875ZM6.875 8.75C5.71468 8.75 4.60188 9.21094 3.78141 10.0314C2.96094 10.8519 2.5 11.9647 2.5 13.125C2.5 14.2853 2.96094 15.3981 3.78141 16.2186C4.60188 17.0391 5.71468 17.5 6.875 17.5C8.03532 17.5 9.14812 17.0391 9.96859 16.2186C10.7891 15.3981 11.25 14.2853 11.25 13.125C11.25 11.9647 10.7891 10.8519 9.96859 10.0314C9.14812 9.21094 8.03532 8.75 6.875 8.75Z" fill="#66B4EF"/>
<path d="M10.9375 4.375C9.86006 4.375 8.82675 4.80301 8.06488 5.56488C7.30301 6.32675 6.875 7.36006 6.875 8.4375C6.875 9.51494 7.30301 10.5483 8.06488 11.3101C8.82675 12.072 9.86006 12.5 10.9375 12.5C12.0149 12.5 13.0483 12.072 13.8101 11.3101C14.572 10.5483 15 9.51494 15 8.4375C15 7.36006 14.572 6.32675 13.8101 5.56488C13.0483 4.80301 12.0149 4.375 10.9375 4.375Z" fill="#66B4EF"/>
<path d="M15.625 7.4375C14.4647 7.4375 13.3519 7.89844 12.5314 8.71891C11.7109 9.53938 11.25 10.6522 11.25 11.8125C11.25 12.9728 11.7109 14.0856 12.5314 14.9061C13.3519 15.7266 14.4647 16.1875 15.625 16.1875C16.7853 16.1875 17.8981 15.7266 18.7186 14.9061C19.5391 14.0856 20 12.9728 20 11.8125C20 10.6522 19.5391 9.53938 18.7186 8.71891C17.8981 7.89844 16.7853 7.4375 15.625 7.4375Z" fill="#66B4EF"/>
<path d="M4.375 15C4.375 16.375 5.5 17.5 6.875 17.5H22.5C23.875 17.5 25 16.375 25 15V14.375C25 13 23.875 11.875 22.5 11.875H6.875C5.5 11.875 4.375 13 4.375 14.375V15Z" fill="#66B4EF"/>
<path d="M17.5 21.875H23.125V20.625H17.5V21.875ZM17.5 25.625H23.125V24.375H17.5V25.625Z" fill="#FFC107"/>
<path d="M18.125 20H15.625L13.75 21.875V24.375L15.625 26.25H18.125V20Z" fill="#90A4AE"/>
<path d="M13.75 21.875H11.25V24.375H13.75V21.875ZM20 27.5H17.5V18.75H20V27.5Z" fill="#546E7A"/>
</svg>
