<svg width="30" height="30" viewBox="0 0 30 30" fill="none" xmlns="http://www.w3.org/2000/svg">
<g clip-path="url(#clip0_1616_10)">
<path d="M29.7044 12.4044C29.6231 12.3406 28.8638 11.775 27.2619 11.775C26.8388 11.7769 26.4169 11.8125 26 11.8819C25.69 9.78562 23.9881 8.80062 23.9094 8.75499L23.4794 8.50999L23.1963 8.91249C22.8419 9.45374 22.5288 10.0125 22.3769 10.6394C22.09 11.8362 22.2644 12.96 22.8806 13.9206C22.1356 14.33 20.8663 14.3662 20.625 14.375H0.988754C0.472504 14.3756 0.0537543 14.7875 0.0506293 15.2962C0.0275043 17.0044 0.271254 18.7669 0.866879 20.3706C1.5475 22.1319 2.56063 23.4294 3.87813 24.2231C5.35438 25.115 7.75313 25.625 10.4725 25.625C11.7006 25.6287 12.9269 25.5194 14.1344 25.2975C15.8131 24.9931 17.4288 24.4144 18.9138 23.585C20.1375 22.8856 21.2388 21.9962 22.1756 20.9506C23.7413 19.2019 24.6738 17.255 25.3675 15.5244C25.4606 15.5244 25.5538 15.5244 25.6438 15.5244C27.3581 15.5244 28.4119 14.8475 28.9931 14.2806C29.3794 13.9187 29.6813 13.4781 29.8769 12.99L30 12.635L29.7044 12.4044Z" fill="#2395EC"/>
<path d="M5 13.75H3.125C2.78 13.75 2.5 13.47 2.5 13.125V11.25C2.5 10.905 2.78 10.625 3.125 10.625H5C5.345 10.625 5.625 10.905 5.625 11.25V13.125C5.625 13.47 5.345 13.75 5 13.75Z" fill="#2395EC"/>
<path d="M8.75 13.75H6.875C6.53 13.75 6.25 13.47 6.25 13.125V11.25C6.25 10.905 6.53 10.625 6.875 10.625H8.75C9.095 10.625 9.375 10.905 9.375 11.25V13.125C9.375 13.47 9.095 13.75 8.75 13.75Z" fill="#2395EC"/>
<path d="M12.5 13.75H10.625C10.28 13.75 10 13.47 10 13.125V11.25C10 10.905 10.28 10.625 10.625 10.625H12.5C12.845 10.625 13.125 10.905 13.125 11.25V13.125C13.125 13.47 12.845 13.75 12.5 13.75Z" fill="#2395EC"/>
<path d="M16.25 13.75H14.375C14.03 13.75 13.75 13.47 13.75 13.125V11.25C13.75 10.905 14.03 10.625 14.375 10.625H16.25C16.595 10.625 16.875 10.905 16.875 11.25V13.125C16.875 13.47 16.595 13.75 16.25 13.75Z" fill="#2395EC"/>
<path d="M8.75 10H6.875C6.53 10 6.25 9.72 6.25 9.375V7.5C6.25 7.155 6.53 6.875 6.875 6.875H8.75C9.095 6.875 9.375 7.155 9.375 7.5V9.375C9.375 9.72 9.095 10 8.75 10Z" fill="#2395EC"/>
<path d="M12.5 10H10.625C10.28 10 10 9.72 10 9.375V7.5C10 7.155 10.28 6.875 10.625 6.875H12.5C12.845 6.875 13.125 7.155 13.125 7.5V9.375C13.125 9.72 12.845 10 12.5 10Z" fill="#2395EC"/>
<path d="M16.25 10H14.375C14.03 10 13.75 9.72 13.75 9.375V7.5C13.75 7.155 14.03 6.875 14.375 6.875H16.25C16.595 6.875 16.875 7.155 16.875 7.5V9.375C16.875 9.72 16.595 10 16.25 10Z" fill="#2395EC"/>
<path d="M16.25 6.25H14.375C14.03 6.25 13.75 5.97 13.75 5.625V3.75C13.75 3.405 14.03 3.125 14.375 3.125H16.25C16.595 3.125 16.875 3.405 16.875 3.75V5.625C16.875 5.97 16.595 6.25 16.25 6.25Z" fill="#2395EC"/>
<path d="M20 13.75H18.125C17.78 13.75 17.5 13.47 17.5 13.125V11.25C17.5 10.905 17.78 10.625 18.125 10.625H20C20.345 10.625 20.625 10.905 20.625 11.25V13.125C20.625 13.47 20.345 13.75 20 13.75Z" fill="#2395EC"/>
</g>
<defs>
<clipPath id="clip0_1616_10">
<rect width="30" height="30" fill="white"/>
</clipPath>
</defs>
</svg>
