<svg width="85" height="60" viewBox="0 0 85 60" fill="none" xmlns="http://www.w3.org/2000/svg">
<path d="M80 13.75H71.25V5C71.25 4.31 70.69 3.75 70 3.75C69.31 3.75 68.75 4.31 68.75 5V13.75H60C59.31 13.75 58.75 14.31 58.75 15C58.75 15.69 59.31 16.25 60 16.25H68.75V25C68.75 25.69 69.31 26.25 70 26.25C70.69 26.25 71.25 25.69 71.25 25V16.25H80C80.69 16.25 81.25 15.69 81.25 15C81.25 14.31 80.69 13.75 80 13.75Z" fill="#00C24E"/>
<path d="M33.9 3.60001C29.1648 3.60001 25.8321 7.12296 23.5125 10.9102C21.4761 14.2341 20.0459 17.8577 18.9352 21.6H12L10.8 24H18.2648C17.6539 26.3572 17.1404 28.7449 16.6805 31.1273C15.8189 35.5913 15.0885 40.0859 14.0109 44.5055C13.2645 47.5679 12.2986 53.914 8.60625 54.9844C6.55545 55.5796 5.21978 54.4409 5.70937 53.5805C6.49897 53.1173 7.05084 52.3102 7.16484 51.3586C7.20324 51.2206 7.2252 51.0936 7.2 51C7.2 49.3428 5.8572 48 4.2 48C2.544 48 1.2 49.3428 1.2 51C1.2 51 1.068 56.4 6.9 56.4C14.7408 56.4 18.2984 47.7609 20.1656 41.4141C21.8425 35.7133 22.7116 29.8134 23.9437 24H31.2L32.4 21.6H24.4781C25.1302 18.8248 25.899 16.0739 26.9203 13.4109C27.8359 11.0229 29.4217 5.82083 32.1961 5.01563C34.2469 4.42043 35.5826 5.56028 35.093 6.42188C34.2986 6.88748 33.7444 7.70136 33.6352 8.66016C33.5968 8.79096 33.5772 8.91241 33.6 9.00001C33.6 10.6572 34.9428 12 36.6 12C38.2572 12 39.6 10.6572 39.6 9.00001C39.6 9.00001 39.732 3.60001 33.9 3.60001ZM41.4539 21.6C37.9583 21.6 35.2632 25.5723 33.6 29.3883L35.993 29.7469C36.8186 27.5149 38.1739 25.2 39.9211 25.2C41.8123 25.2 42.434 26.8931 42.8648 29.0531L43.7766 33.6H43.7648C43.8007 33.7563 43.8928 34.1539 43.9336 34.3313L37.5937 41.4188C37.1689 41.0384 36.6144 40.8 36 40.8C34.674 40.8 33.6 41.874 33.6 43.2C33.6 44.526 34.674 45.6 36 45.6C36.7404 45.6 37.3948 45.2585 37.8352 44.7305L37.8422 44.7375L44.5945 37.1906C44.7502 37.8614 44.8155 38.1434 45.0117 38.9883C45.8877 42.7083 47.1353 45.6 50.9273 45.6C54.4313 45.6 57.132 41.6277 58.8 37.8117L56.4 37.4531C55.572 39.6851 54.2168 42 52.4648 42C50.5688 42 49.9437 40.3069 49.5117 38.1469L48.6 33.6C48.5657 33.4497 48.4772 33.0666 48.4383 32.8969L54.8039 25.7813C55.2287 26.1617 55.7844 26.4 56.4 26.4C57.726 26.4 58.8 25.326 58.8 24C58.8 22.674 57.726 21.6 56.4 21.6C55.6788 21.6 55.0404 21.9245 54.6 22.4273L54.5906 22.4203L47.7773 30.0375C47.6201 29.3589 47.5543 29.0697 47.3555 28.2117C46.4819 24.4917 45.2363 21.6 41.4539 21.6Z" fill="#B6296C"/>
</svg>
