<svg width="89" height="78" viewBox="0 0 89 78" fill="none" xmlns="http://www.w3.org/2000/svg">
<path d="M84 13.75H75.25V5C75.25 4.31 74.69 3.75 74 3.75C73.31 3.75 72.75 4.31 72.75 5V13.75H64C63.31 13.75 62.75 14.31 62.75 15C62.75 15.69 63.31 16.25 64 16.25H72.75V25C72.75 25.69 73.31 26.25 74 26.25C74.69 26.25 75.25 25.69 75.25 25V16.25H84C84.69 16.25 85.25 15.69 85.25 15C85.25 14.31 84.69 13.75 84 13.75Z" fill="#00C24E"/>
<g clip-path="url(#clip0_1616_2)">
<path d="M59.72 28.195C59.5575 28.0612 59.35 27.9912 59.1388 28C58.56 28 57.8112 28.3925 57.4075 28.6037L57.2475 28.685C56.5713 29.0125 55.835 29.1975 55.085 29.2287C54.3163 29.2537 53.6525 29.2987 52.79 29.3887C47.6762 29.915 45.395 33.8337 43.1975 37.625C42.0012 39.6875 40.765 41.8287 39.0712 43.465C38.7212 43.805 38.3487 44.1212 37.9562 44.4125C36.2037 45.715 34.0025 46.6462 32.29 47.305C30.6413 47.935 28.8412 48.5012 27.1025 49.05C25.5087 49.5512 24.005 50.0262 22.6225 50.5387C21.9987 50.77 21.4687 50.9475 21 51.1037C19.74 51.5125 18.8313 51.8262 17.5038 52.74C16.9863 53.0937 16.4663 53.4762 16.115 53.7625C15.0613 54.6037 14.1288 55.5862 13.3438 56.6812C12.6688 57.6925 11.8887 58.6287 11.0162 59.475C10.7362 59.7487 10.2387 59.8837 9.49375 59.8837C8.62375 59.8862 6.23 59.25 4.62375 59.25C2.48375 59.25 0.26 60.0337 0 60.5C0 60.5 3.63875 62.8675 3.7675 62.995C3.62875 63.2 1.495 66.1237 1.265 66.7587C4.3825 66.8375 6.21 66.3762 7.96 65.53C8.4675 65.285 8.9825 65.0325 9.59625 64.7737C10.6188 64.33 11.72 63.6225 12.8875 62.8737C14.415 61.8775 16.0137 60.855 17.5637 60.3612C18.8375 59.9725 20.165 59.7862 21.4975 59.8087C23.1337 59.8087 24.8563 60.0275 26.5175 60.24C27.755 60.4 29.9925 60.425 31.25 60.5C31.5862 60.52 33.55 60.5425 34.9325 60.5337C33.4475 63.8025 31.25 66.75 31.25 66.75C31.25 66.75 38.75 66.75 41.935 59.5237C41.9775 59.44 42.0138 59.3537 42.055 59.27C44.03 58.7987 49.0925 56.1287 50.4375 48.7637C51.0675 46.6237 51.53 44.4987 51.9375 42.6275C52.4237 40.3775 52.8438 38.4487 53.3238 37.7C54.0788 36.5262 55.23 35.7325 56.345 34.9612C56.4963 34.8575 56.65 34.7562 56.7987 34.6462C58.2 33.6625 59.5925 32.5275 59.9 30.41V30.3612C60.1225 28.7825 59.935 28.3787 59.72 28.195Z" fill="url(#paint0_linear_1616_2)"/>
</g>
<defs>
<linearGradient id="paint0_linear_1616_2" x1="27.3662" y1="27.3512" x2="33.56" y2="68.18" gradientUnits="userSpaceOnUse">
<stop stop-color="#00A3A6"/>
<stop offset="0.5" stop-color="#038489"/>
<stop offset="1" stop-color="#026D71"/>
</linearGradient>
<clipPath id="clip0_1616_2">
<rect width="60" height="60" fill="white" transform="translate(0 18)"/>
</clipPath>
</defs>
</svg>
