<svg width="82" height="81" viewBox="0 0 82 81" fill="none" xmlns="http://www.w3.org/2000/svg">
<path d="M77 13.75H68.25V5C68.25 4.31 67.69 3.75 67 3.75C66.31 3.75 65.75 4.31 65.75 5V13.75H57C56.31 13.75 55.75 14.31 55.75 15C55.75 15.69 56.31 16.25 57 16.25H65.75V25C65.75 25.69 66.31 26.25 67 26.25C67.69 26.25 68.25 25.69 68.25 25V16.25H77C77.69 16.25 78.25 15.69 78.25 15C78.25 14.31 77.69 13.75 77 13.75Z" fill="#00C24E"/>
<path d="M30 78.6885C27.4425 77.5755 6.954 67.4805 6.7515 30.5505L30 23.2845L53.2485 30.5505C53.046 67.4445 32.5605 77.5695 30 78.6885Z" fill="#F8F8F8"/>
<path d="M30 24.072L52.494 31.101C52.107 65.886 33.366 76.2795 29.994 77.8665C26.6025 76.3035 7.89 66.0855 7.506 31.101L30 24.072ZM30 22.5L6 30C6 70.7115 30 79.5 30 79.5C30 79.5 54 70.602 54 30L30 22.5Z" fill="#4788C7"/>
<path d="M43.5 49.5C43.5 57.015 37.377 63 30 63C22.6245 63 16.5 57.015 16.5 49.5C16.5 41.985 22.485 36 30 36C37.515 36 43.5 41.985 43.5 49.5Z" fill="#F8F8F8"/>
<path d="M38.0805 59.337C37.9725 58.9965 37.863 58.638 37.7925 58.2795L37.773 58.1835L37.728 58.092C37.458 57.5505 37.3185 56.9955 37.1715 56.406C37.119 56.2425 37.095 56.1135 37.0695 55.9755C36.9795 55.5285 36.861 54.927 36.438 54.45C36.1875 54.051 35.811 53.919 35.58 53.8395C35.52 53.8185 35.4585 53.799 35.3955 53.7675C34.8135 53.5155 34.2495 53.4945 33.7545 53.478C33.0105 53.4495 32.6835 53.4075 32.4525 53.082C32.3895 52.9875 32.391 52.8525 32.418 52.4925C32.424 52.3995 32.43 52.305 32.4345 52.2075C32.55 52.014 32.6475 51.822 32.7435 51.6285C32.8455 51.4245 32.946 51.222 33.081 51.0195L33.1245 50.9535L33.1545 50.8815C33.2595 50.613 33.3885 50.367 33.513 50.1255C33.7395 49.683 33.975 49.227 34.0965 48.6855C34.2045 48.4065 34.2045 48.1275 34.2045 47.9175C34.2045 47.886 34.2045 47.85 34.206 47.8155C34.3275 47.745 34.494 47.661 34.611 47.6025L34.7175 47.5485L34.8255 47.454C34.9815 47.3595 35.3565 47.13 35.3565 46.614C35.3565 46.464 35.3235 46.338 35.277 46.2375C35.283 46.23 35.2875 46.224 35.292 46.2195C35.6625 45.849 36.0375 45.513 36.411 45.177C36.7575 44.8635 37.107 44.5515 37.4535 44.211C37.671 44.1075 37.8255 43.923 37.9035 43.7145C38.0445 43.4715 38.0685 43.185 37.9605 42.9225C37.8435 42.639 37.584 42.4305 37.281 42.36C37.1445 42.2985 37.032 42.261 36.918 42.222C36.9135 42.2205 36.909 42.219 36.903 42.2175L37.647 41.1C37.7475 40.992 37.851 40.86 37.9545 40.722C38.0655 40.575 38.2725 40.305 38.3715 40.266C38.508 40.209 38.577 40.194 38.652 40.194C38.6835 40.194 38.718 40.197 38.7525 40.203C41.331 42.63 42.75 45.924 42.75 49.5C42.75 53.352 41.0565 56.9025 38.0805 59.337Z" fill="#4788C7"/>
<path d="M38.601 41.1075C40.7985 43.3515 42 46.305 42 49.5C42 52.737 40.728 55.7475 38.493 57.963L38.487 57.936L38.397 57.756C38.1615 57.285 38.0325 56.769 37.8975 56.2245L37.881 56.163L37.863 56.1105C37.836 56.0295 37.821 55.9305 37.8015 55.8285C37.704 55.3365 37.56 54.6135 37.0335 53.997C36.645 53.418 36.081 53.2215 35.8245 53.1315C35.7915 53.1195 35.757 53.1105 35.7285 53.097L35.691 53.0775L35.652 53.061C34.9785 52.7715 34.3125 52.7475 33.7785 52.728C33.5745 52.7205 33.2835 52.71 33.1485 52.695C33.1515 52.647 33.1575 52.5975 33.1605 52.545C33.1635 52.506 33.1665 52.467 33.168 52.428C33.2595 52.2645 33.3375 52.1085 33.4095 51.963C33.4965 51.7875 33.582 51.6105 33.699 51.435L33.786 51.3045L33.8445 51.159C33.942 50.916 34.059 50.691 34.173 50.4705C34.404 50.0205 34.665 49.5135 34.8105 48.8985C34.89 48.675 34.9245 48.459 34.9395 48.273C34.9485 48.2685 34.9575 48.264 34.9665 48.2595L35.181 48.1515L35.2875 48.045C35.9925 47.589 36.099 46.9545 36.099 46.6125C36.099 46.5705 36.0975 46.5255 36.093 46.479C36.3645 46.221 36.6345 45.978 36.9045 45.7335C37.2405 45.432 37.5765 45.129 37.9125 44.8035C38.2095 44.622 38.4435 44.3505 38.5785 44.0265C38.802 43.5975 38.8335 43.0905 38.6445 42.6345C38.517 42.324 38.295 42.063 38.0205 41.88L38.2335 41.559C38.334 41.445 38.4375 41.313 38.5425 41.1765C38.5635 41.157 38.583 41.133 38.601 41.1075ZM38.6475 39.4455C38.475 39.4455 38.3025 39.48 38.1315 39.5565C37.671 39.711 37.365 40.3245 37.0575 40.6305C36.75 41.091 36.444 41.5515 36.1365 42.0105C35.982 42.1635 35.829 42.471 35.982 42.624C35.982 42.777 36.1365 42.777 36.2895 42.777C36.597 42.9315 36.75 42.9315 37.0575 43.0845C37.2105 43.0845 37.365 43.239 37.2105 43.3905C37.2105 43.3905 37.2105 43.545 37.0575 43.545C36.2895 44.3115 35.523 44.925 34.7565 45.6915C34.6035 45.8445 34.449 46.152 34.449 46.305C34.449 46.458 34.602 46.458 34.602 46.611C34.602 46.7655 34.449 46.7655 34.296 46.9185C33.9885 47.073 33.6825 47.226 33.5295 47.379C33.3765 47.6865 33.5295 48.1455 33.3765 48.453C33.2235 49.2195 32.7615 49.833 32.4555 50.601C32.148 51.06 31.9965 51.522 31.689 51.981C31.689 52.5945 31.5345 53.055 31.842 53.5155C32.61 54.5895 33.99 53.976 35.064 54.4365C35.3715 54.5895 35.6775 54.5895 35.832 54.8955C36.291 55.356 36.291 56.124 36.4455 56.583C36.5985 57.1965 36.753 57.81 37.059 58.4235C37.212 59.1915 37.5195 59.958 37.6725 60.5715C37.773 60.4935 37.89 60.42 38.001 60.345C41.3175 57.9 43.5 53.9775 43.5 49.5C43.5 45.5235 41.814 41.9865 39.1215 39.5265C38.9655 39.4755 38.8065 39.4455 38.6475 39.4455Z" fill="#4788C7"/>
<path d="M30.456 41.469C30.444 41.2605 30.444 41.0445 30.444 40.938C30.444 40.719 30.5085 40.5165 30.5835 40.281C30.7065 39.8955 30.861 39.417 30.7365 38.796C30.7515 38.7795 30.591 37.4685 30.591 37.4685L30.528 36.9555L30.027 36.834C29.8875 36.7995 29.748 36.777 29.616 36.7575C29.742 36.753 29.871 36.75 30 36.75C31.386 36.75 32.745 36.969 34.0455 37.398C33.993 37.554 33.8895 37.791 33.702 38.148L33.6225 38.304C33.4335 38.85 33.1875 39.24 32.958 39.3945L32.8965 39.435L32.835 39.4965C32.553 39.7785 32.1255 40.206 31.7325 40.4655C31.4805 40.6335 31.2285 40.842 30.9765 41.052C30.8025 41.1975 30.6285 41.3445 30.456 41.469Z" fill="#4788C7"/>
<path d="M31.359 37.575C31.914 37.6365 32.4615 37.737 33 37.8735L32.9535 37.9635L32.9055 38.0595L32.871 38.1615C32.754 38.514 32.592 38.7285 32.5425 38.769L32.418 38.8515L32.313 38.9565C32.0955 39.174 31.7865 39.4815 31.4955 39.7095C31.536 39.432 31.5465 39.117 31.4895 38.7645C31.479 38.5995 31.446 38.274 31.359 37.575ZM30 36C29.7225 36 29.448 36.0135 29.175 36.03C28.983 36.3285 28.83 36.621 28.773 36.795C28.62 37.5615 29.2335 37.4085 29.847 37.5615C29.847 37.5615 30 38.7885 30 38.9415C30.153 39.7095 29.6925 40.1685 29.6925 40.935C29.6925 41.3955 29.6925 42.162 30 42.4695H30.153C30.306 42.4695 30.4605 42.3165 30.7665 42.162C31.227 41.8545 31.6875 41.3955 32.1465 41.088C32.607 40.7805 33.0675 40.3215 33.375 40.014C33.8355 39.7065 34.1415 39.093 34.296 38.6325C34.449 38.325 34.9755 37.422 34.821 36.9615C34.809 36.9375 34.7925 36.8955 34.7775 36.8565C33.2955 36.306 31.6875 36 30 36Z" fill="#4788C7"/>
<path d="M25.9425 61.575C25.305 61.359 24.693 61.101 24.114 60.7995C24.1005 60.696 24.0855 60.5805 24.069 60.465C24.0375 60.246 24.0045 60.0285 24 59.937L23.994 59.8395L23.9625 59.721C23.8875 59.5005 23.814 59.241 23.742 58.983C23.6625 58.7025 23.583 58.425 23.5035 58.1865C23.385 57.888 23.2515 57.6315 23.115 57.3705C22.8615 56.8845 22.6215 56.4255 22.6215 55.9695C22.6215 55.8255 22.6275 55.683 22.6335 55.539C22.6515 55.086 22.671 54.5955 22.5315 54.111H24.822C24.9105 54.138 25.0035 54.165 25.101 54.1935C25.296 54.2505 25.668 54.357 25.8555 54.4515C25.8705 54.501 25.8855 54.5565 25.899 54.618C25.9425 54.7905 25.995 55.005 26.1105 55.2315L26.1645 55.3395L26.2515 55.4265C26.955 56.1315 27.753 56.325 28.4565 56.493C28.686 56.5485 28.92 56.604 29.1525 56.682C29.1 56.6865 29.115 56.7465 29.1375 56.82C29.2035 57.018 29.1315 57.417 29.0265 57.63L28.9065 57.9735C28.815 58.2585 28.68 58.689 28.5525 58.818C28.3335 59.037 28.1115 59.148 27.8325 59.2875C27.3705 59.5875 27.108 59.9355 26.8515 60.2715C26.7135 60.4545 26.571 60.645 26.406 60.81L26.187 61.029V61.2015C26.127 61.3005 26.0325 61.4475 25.9425 61.575ZM18.6645 51.2955C18.1425 50.8185 17.721 50.2935 17.478 49.806C17.3985 49.6725 17.3235 49.557 17.25 49.4475C17.2635 45.984 18.612 42.7725 21.0555 40.3785C22.275 39.9825 23.5755 39.7395 24.483 39.7395C24.8535 39.7395 25.068 39.78 25.182 39.8145C25.4775 39.9135 25.8435 40.143 26.094 40.3935C26.1735 40.473 26.34 40.6395 26.469 40.8C26.268 40.7955 26.0865 40.785 25.9695 40.758L25.341 40.1295L25.1745 40.074C25.0335 40.0275 24.888 40.0035 24.7365 40.0035C23.3055 40.0035 21.93 42.204 21.7545 42.9045C21.603 43.359 21.582 44.1765 21.9285 44.775C22.1565 45.168 22.5105 45.423 22.9485 45.51C22.962 45.51 22.974 45.51 22.986 45.51C23.664 45.51 24.18 45.12 24.897 44.5305C25.071 44.385 25.2315 44.253 25.3545 44.172C25.4595 44.1255 25.599 44.0325 25.74 43.941C25.7925 43.9065 25.845 43.869 25.9035 43.8345C26.6955 43.8855 27.2385 44.5905 27.4365 45.288L27.444 45.489C27.2505 45.894 26.3475 46.425 25.188 46.8165C25.113 46.782 24.9735 46.743 24.8055 46.743C24.63 46.743 24.459 46.7835 24.2955 46.866C23.2905 47.2635 22.1925 48.444 22.1925 49.6845C22.1925 49.6845 22.191 49.6875 22.191 49.6905C22.1715 49.6785 22.152 49.668 22.131 49.659C21.9255 49.4775 21.7425 49.395 21.408 49.395C21.366 49.392 21.2385 49.3455 21.153 49.3125C20.943 49.233 20.682 49.1355 20.3715 49.1355C20.097 49.1355 19.8405 49.2135 19.611 49.3665C19.2465 49.71 18.663 50.3805 18.663 51.2175C18.6645 51.2385 18.6645 51.2655 18.6645 51.2955Z" fill="#4788C7"/>
<path d="M22.077 40.8615C21.5535 41.5155 21.192 42.21 21.06 42.6105C20.8335 43.293 20.8125 44.343 21.279 45.147C21.615 45.7245 22.155 46.1145 22.8015 46.2435L22.947 46.272H23.0955C23.9535 46.272 24.6735 45.681 25.3695 45.1095C25.4985 45.003 25.617 44.9025 25.7145 44.8305C25.854 44.7555 25.971 44.6805 26.085 44.6055C26.286 44.6985 26.5035 44.961 26.6385 45.276C26.3955 45.4725 25.8885 45.759 25.167 46.0215C25.062 46.002 24.939 45.987 24.804 45.987C24.5355 45.987 24.2745 46.044 24.0255 46.1565C23.0445 46.5645 22.026 47.5005 21.621 48.648C21.585 48.645 21.5475 48.642 21.51 48.6405C21.4785 48.63 21.447 48.6165 21.414 48.6045C21.1755 48.5145 20.814 48.3795 20.37 48.3795C19.95 48.3795 19.5435 48.5025 19.1925 48.7365L19.0695 48.819L18.9645 48.924C18.7755 49.113 18.5265 49.3995 18.3165 49.7655C18.2505 49.665 18.1935 49.566 18.144 49.4685L18.1185 49.4175L18.0885 49.368C18.06 49.32 18.03 49.272 17.9985 49.2225C18.066 46.1085 19.284 43.2225 21.45 41.037C21.66 40.9755 21.8685 40.9155 22.077 40.8615ZM24.711 54.8625C24.7695 54.879 24.8295 54.897 24.8895 54.915C24.9795 54.9405 25.107 54.978 25.2255 55.0155C25.272 55.1775 25.335 55.365 25.4355 55.5675L25.5435 55.785L25.716 55.9575C26.5695 56.8125 27.5145 57.0405 28.275 57.2235C28.3065 57.231 28.338 57.2385 28.3695 57.246C28.3635 57.264 28.3575 57.2805 28.3515 57.2925L28.3035 57.3885L28.269 57.4905L28.1865 57.747C28.131 57.921 28.0425 58.203 27.9795 58.3215C27.861 58.4295 27.729 58.4985 27.4875 58.6185L27.4035 58.6605L27.3255 58.713C26.844 59.034 26.526 59.4525 26.247 59.8215C26.1135 59.9985 25.9875 60.165 25.8705 60.2805L25.527 60.624C25.281 60.525 25.0395 60.42 24.804 60.306C24.7815 60.15 24.7605 60.0015 24.75 59.91V59.715L24.6735 59.484C24.603 59.2725 24.5325 59.025 24.462 58.7775C24.3795 58.488 24.2955 58.1985 24.213 57.951L24.1995 57.909L24.183 57.867C24.0705 57.5865 23.9265 57.306 23.778 57.021C23.568 56.6205 23.37 56.241 23.37 55.971C23.37 55.836 23.376 55.7025 23.3805 55.569C23.3895 55.3545 23.3985 55.116 23.3895 54.8625H24.711ZM24.483 38.9895C23.4075 38.9895 21.924 39.2925 20.6565 39.72C18.0915 42.171 16.5 45.63 16.5 49.5C16.5 49.5645 16.506 49.6275 16.5075 49.692C16.617 49.8465 16.722 49.9995 16.8075 50.1405C17.268 51.0615 18.1875 51.9825 19.1085 52.5945C19.722 53.055 20.949 53.055 21.5625 53.8215C22.023 54.4365 21.87 55.2015 21.87 55.9695C21.87 56.8905 22.4835 57.657 22.791 58.4235C22.944 58.884 23.0985 59.4975 23.2515 59.958C23.2515 60.111 23.4045 61.032 23.4045 61.185C23.454 61.209 23.4945 61.266 23.5305 61.335C24.3495 61.7835 25.221 62.145 26.1285 62.418C26.139 62.418 26.1525 62.412 26.1615 62.412C26.163 62.412 26.1645 62.412 26.166 62.412C26.319 62.412 26.9325 61.491 26.9325 61.338C27.393 60.8775 27.699 60.264 28.1595 59.958C28.467 59.805 28.773 59.6505 29.0805 59.343C29.388 59.0355 29.541 58.422 29.694 57.963C29.847 57.657 30.0015 57.0435 29.847 56.583C29.7495 56.292 29.694 56.1225 29.3865 55.9695C28.4655 55.662 27.546 55.662 26.778 54.8955C26.625 54.588 26.625 54.282 26.4705 53.9745C26.163 53.667 25.3965 53.514 24.936 53.361H22.941H21.87C21.4095 53.208 21.1035 52.5945 20.796 52.134C20.796 51.981 20.796 51.6735 20.4885 51.6735C20.424 51.642 20.3595 51.63 20.295 51.63C20.118 51.63 19.941 51.7185 19.764 51.7185C19.6995 51.7185 19.6335 51.7065 19.569 51.6735C19.416 51.5205 19.416 51.366 19.416 51.2145C19.416 50.754 19.7235 50.2935 20.0295 49.986C20.145 49.9095 20.259 49.881 20.3745 49.881C20.7195 49.881 21.0645 50.1405 21.4095 50.1405C21.5625 50.1405 21.5625 50.1405 21.717 50.2935C22.1775 50.4465 22.3305 51.06 22.3305 51.522V51.8295C22.3305 51.9825 22.4835 51.9825 22.6365 51.9825C22.7895 51.216 22.7895 50.448 22.944 49.6815C22.944 48.7605 23.865 47.8395 24.6315 47.5335C24.696 47.502 24.7545 47.49 24.807 47.49C24.954 47.49 25.0725 47.5785 25.221 47.5785C25.275 47.5785 25.3335 47.5665 25.398 47.5335C26.319 47.226 28.62 46.3065 28.1595 45.0795C27.873 44.0745 27.048 43.071 25.938 43.071C25.8615 43.071 25.7835 43.0755 25.7055 43.086C25.398 43.2405 25.245 43.3935 24.939 43.5465C24.4785 43.854 23.559 44.7735 23.0985 44.7735C22.332 44.6205 22.332 43.5465 22.485 43.086C22.6275 42.516 23.8305 40.7535 24.738 40.7535C24.807 40.7535 24.8745 40.764 24.939 40.785C25.092 40.938 25.3995 41.2455 25.5525 41.3985C25.86 41.5515 26.319 41.5515 26.7795 41.5515C26.9325 41.5515 27.087 41.5515 27.24 41.3985C27.393 41.2455 27.393 41.2455 27.393 41.091C27.393 40.6305 26.9325 40.17 26.6265 39.8625C26.319 39.555 25.86 39.249 25.3995 39.096C25.1535 39.024 24.8415 38.9895 24.483 38.9895Z" fill="#4788C7"/>
<path d="M30 37.5C36.729 37.5 42 42.771 42 49.5C42 56.1165 36.6165 61.5 30 61.5C23.3835 61.5 18 56.1165 18 49.5C18 42.771 23.271 37.5 30 37.5ZM30 36C22.485 36 16.5 41.985 16.5 49.5C16.5 57.015 22.6245 63 30 63C37.377 63 43.5 57.015 43.5 49.5C43.5 41.985 37.515 36 30 36Z" fill="#4788C7"/>
</svg>
