<svg width="85" height="82" viewBox="0 0 85 82" fill="none" xmlns="http://www.w3.org/2000/svg">
<path d="M80 13.75H71.25V5C71.25 4.31 70.69 3.75 70 3.75C69.31 3.75 68.75 4.31 68.75 5V13.75H60C59.31 13.75 58.75 14.31 58.75 15C58.75 15.69 59.31 16.25 60 16.25H68.75V25C68.75 25.69 69.31 26.25 70 26.25C70.69 26.25 71.25 25.69 71.25 25V16.25H80C80.69 16.25 81.25 15.69 81.25 15C81.25 14.31 80.69 13.75 80 13.75Z" fill="#00C24E"/>
<path d="M3.75 70.8445V52.75H24.75V73.6825L3.75 70.8445Z" fill="#8BB7F0"/>
<path d="M24 53.5V72.8245L4.5 70.189V53.5H24ZM25.5 52H3V71.5L25.5 74.5405V52Z" fill="#4E7AB5"/>
<path d="M27.75 74.089V52.75H57.75V78.142L27.75 74.089Z" fill="#8BB7F0"/>
<path d="M57 53.5V77.284L28.5 73.432V53.5H57ZM58.5 52H27V74.743L58.5 79V52Z" fill="#4E7AB5"/>
<path d="M3.75 49.75V31.6555L24.75 28.8175V49.75H3.75Z" fill="#8BB7F0"/>
<path d="M24 29.6755V49H4.5V32.311L24 29.6755ZM25.5 27.9595L3 31V50.5H25.5V27.9595Z" fill="#4E7AB5"/>
<path d="M27.75 49.75V28.411L57.75 24.358V49.75H27.75Z" fill="#8BB7F0"/>
<path d="M57 25.216V49H28.5V29.068L57 25.216ZM58.5 23.5L27 27.757V50.5H58.5V23.5Z" fill="#4E7AB5"/>
</svg>
