<svg width="85" height="60" viewBox="0 0 85 60" fill="none" xmlns="http://www.w3.org/2000/svg">
<path d="M80 13.75H71.25V5C71.25 4.31 70.69 3.75 70 3.75C69.31 3.75 68.75 4.31 68.75 5V13.75H60C59.31 13.75 58.75 14.31 58.75 15C58.75 15.69 59.31 16.25 60 16.25H68.75V25C68.75 25.69 69.31 26.25 70 26.25C70.69 26.25 71.25 25.69 71.25 25V16.25H80C80.69 16.25 81.25 15.69 81.25 15C81.25 14.31 80.69 13.75 80 13.75Z" fill="#00C24E"/>
<g clip-path="url(#clip0_1616_2)">
<path d="M59.4088 24.8088C59.2463 24.6813 57.7275 23.55 54.5238 23.55C53.6775 23.5538 52.8338 23.625 52 23.7638C51.38 19.5713 47.9763 17.6013 47.8188 17.51L46.9588 17.02L46.3925 17.825C45.6838 18.9075 45.0575 20.025 44.7538 21.2788C44.18 23.6725 44.5288 25.92 45.7613 27.8413C44.2713 28.66 41.7325 28.7325 41.25 28.75H1.9775C0.945001 28.7513 0.107501 29.575 0.101251 30.5925C0.055001 34.0088 0.542501 37.5338 1.73375 40.7413C3.095 44.2638 5.12125 46.8588 7.75625 48.4463C10.7088 50.23 15.5063 51.25 20.945 51.25C23.4013 51.2575 25.8538 51.0388 28.2688 50.595C31.6263 49.9863 34.8575 48.8288 37.8275 47.17C40.275 45.7713 42.4775 43.9925 44.3512 41.9013C47.4825 38.4038 49.3475 34.51 50.735 31.0488C50.9213 31.0488 51.1075 31.0488 51.2875 31.0488C54.7163 31.0488 56.8238 29.695 57.9863 28.5613C58.7588 27.8375 59.3625 26.9563 59.7538 25.98L60 25.27L59.4088 24.8088Z" fill="#2395EC"/>
<path d="M10 27.5H6.25C5.56 27.5 5 26.94 5 26.25V22.5C5 21.81 5.56 21.25 6.25 21.25H10C10.69 21.25 11.25 21.81 11.25 22.5V26.25C11.25 26.94 10.69 27.5 10 27.5Z" fill="#2395EC"/>
<path d="M17.5 27.5H13.75C13.06 27.5 12.5 26.94 12.5 26.25V22.5C12.5 21.81 13.06 21.25 13.75 21.25H17.5C18.19 21.25 18.75 21.81 18.75 22.5V26.25C18.75 26.94 18.19 27.5 17.5 27.5Z" fill="#2395EC"/>
<path d="M25 27.5H21.25C20.56 27.5 20 26.94 20 26.25V22.5C20 21.81 20.56 21.25 21.25 21.25H25C25.69 21.25 26.25 21.81 26.25 22.5V26.25C26.25 26.94 25.69 27.5 25 27.5Z" fill="#2395EC"/>
<path d="M32.5 27.5H28.75C28.06 27.5 27.5 26.94 27.5 26.25V22.5C27.5 21.81 28.06 21.25 28.75 21.25H32.5C33.19 21.25 33.75 21.81 33.75 22.5V26.25C33.75 26.94 33.19 27.5 32.5 27.5Z" fill="#2395EC"/>
<path d="M17.5 20H13.75C13.06 20 12.5 19.44 12.5 18.75V15C12.5 14.31 13.06 13.75 13.75 13.75H17.5C18.19 13.75 18.75 14.31 18.75 15V18.75C18.75 19.44 18.19 20 17.5 20Z" fill="#2395EC"/>
<path d="M25 20H21.25C20.56 20 20 19.44 20 18.75V15C20 14.31 20.56 13.75 21.25 13.75H25C25.69 13.75 26.25 14.31 26.25 15V18.75C26.25 19.44 25.69 20 25 20Z" fill="#2395EC"/>
<path d="M32.5 20H28.75C28.06 20 27.5 19.44 27.5 18.75V15C27.5 14.31 28.06 13.75 28.75 13.75H32.5C33.19 13.75 33.75 14.31 33.75 15V18.75C33.75 19.44 33.19 20 32.5 20Z" fill="#2395EC"/>
<path d="M32.5 12.5H28.75C28.06 12.5 27.5 11.94 27.5 11.25V7.5C27.5 6.81 28.06 6.25 28.75 6.25H32.5C33.19 6.25 33.75 6.81 33.75 7.5V11.25C33.75 11.94 33.19 12.5 32.5 12.5Z" fill="#2395EC"/>
<path d="M40 27.5H36.25C35.56 27.5 35 26.94 35 26.25V22.5C35 21.81 35.56 21.25 36.25 21.25H40C40.69 21.25 41.25 21.81 41.25 22.5V26.25C41.25 26.94 40.69 27.5 40 27.5Z" fill="#2395EC"/>
</g>
<defs>
<clipPath id="clip0_1616_2">
<rect width="60" height="60" fill="white"/>
</clipPath>
</defs>
</svg>
