<svg width="91" height="91" viewBox="0 0 91 91" fill="none" xmlns="http://www.w3.org/2000/svg">
<path d="M38.98 41.92C34.9748 41.92 31.4223 43.81 29.5141 47.885L25.0075 57.025L19.5899 44.685L19.5791 44.665C18.4579 42.37 15.5038 41.285 12.9433 42.345C10.3558 43.42 9.33155 46.26 10.4959 48.555L18.5603 65.42V65.425C19.2341 66.785 19.9619 67.925 20.9969 68.77C22.0373 69.615 23.4119 70.08 24.932 70.08C26.5438 70.08 27.94 69.57 28.9534 68.705C29.9723 67.84 30.6353 66.72 31.2983 65.445L31.3037 65.435L31.3091 65.415C31.3091 65.415 36.8291 54 37.4706 52.695C37.7509 52.125 38.1175 51.635 38.4894 51.325C38.8668 51.02 39.201 50.88 39.67 50.88C40.8128 50.88 41.74 51.74 41.74 52.8V65.44C41.74 67.93 43.8639 70.08 46.5969 70.08C49.3354 70.08 51.4 67.905 51.4 65.44V52.8C51.4 51.74 52.3272 50.88 53.47 50.88C54.6128 50.88 55.54 51.74 55.54 52.8V65.6C55.54 68.06 57.7178 70.08 60.37 70.08C63.0222 70.08 65.2 68.06 65.2 65.6V52.8C65.2 51.74 66.1272 50.88 67.27 50.88C68.4128 50.88 69.34 51.74 69.34 52.8V65.6C69.34 68.06 71.5178 70.08 74.17 70.08C76.8222 70.08 79 68.06 79 65.6V51.34C79 45.87 74.1646 41.92 68.5314 41.92C64.0949 41.92 61.5613 43.845 60.4616 44.79C58.6234 43.11 56.2138 41.925 52.6937 41.925C48.9958 41.925 46.8826 43.725 45.8476 44.74C43.8855 43.03 41.3626 41.92 38.98 41.92ZM15.0025 44.465C15.8973 44.425 16.652 44.89 17.0617 45.72L24.8566 63.48L32.0369 48.92L32.0423 48.905C33.6217 45.545 35.7887 44.48 38.98 44.48C40.7966 44.48 43.5189 45.575 44.845 47.18L45.9285 48.49L47.0282 47.185C47.0282 47.185 49.4162 44.485 52.6937 44.485C56.2354 44.485 57.9334 45.44 59.3781 47.18L60.3862 48.4L61.4966 47.26C61.4966 47.26 64.2135 44.48 68.5314 44.48C72.8223 44.48 76.24 47.235 76.24 51.34V65.6C76.24 66.66 75.3128 67.52 74.17 67.52C73.0272 67.52 72.1 66.66 72.1 65.6V52.8C72.1 50.34 69.9222 48.32 67.27 48.32C64.6178 48.32 62.44 50.34 62.44 52.8V65.6C62.44 66.66 61.5128 67.52 60.37 67.52C59.2272 67.52 58.3 66.66 58.3 65.6V52.8C58.3 50.34 56.1222 48.32 53.47 48.32C50.8178 48.32 48.64 50.34 48.64 52.8V65.44C48.64 66.675 47.8206 67.52 46.5969 67.52C45.3787 67.52 44.5 66.645 44.5 65.44V52.8C44.5 50.34 42.3222 48.32 39.67 48.32C38.4841 48.32 37.4275 48.78 36.6566 49.415C35.8912 50.045 35.3629 50.83 34.9694 51.625C34.2686 53.04 28.8241 64.305 28.8025 64.345C28.1934 65.515 27.6435 66.35 27.0883 66.82C26.533 67.3 26.0048 67.52 24.932 67.52C23.9401 67.52 23.3903 67.31 22.8189 66.845C22.2475 66.38 21.6653 65.56 21.0723 64.36L12.9972 47.475V47.46C12.4258 46.35 12.8139 45.205 14.0753 44.685C14.3934 44.55 14.706 44.48 15.0025 44.465Z" fill="#03B3FF"/>
<path d="M82 23.75H73.25V15C73.25 14.31 72.69 13.75 72 13.75C71.31 13.75 70.75 14.31 70.75 15V23.75H62C61.31 23.75 60.75 24.31 60.75 25C60.75 25.69 61.31 26.25 62 26.25H70.75V35C70.75 35.69 71.31 36.25 72 36.25C72.69 36.25 73.25 35.69 73.25 35V26.25H82C82.69 26.25 83.25 25.69 83.25 25C83.25 24.31 82.69 23.75 82 23.75Z" fill="#00C24E"/>
</svg>
