<svg width="85" height="74" viewBox="0 0 85 74" fill="none" xmlns="http://www.w3.org/2000/svg">
<path d="M80 13.75H71.25V5C71.25 4.31 70.69 3.75 70 3.75C69.31 3.75 68.75 4.31 68.75 5V13.75H60C59.31 13.75 58.75 14.31 58.75 15C58.75 15.69 59.31 16.25 60 16.25H68.75V25C68.75 25.69 69.31 26.25 70 26.25C70.69 26.25 71.25 25.69 71.25 25V16.25H80C80.69 16.25 81.25 15.69 81.25 15C81.25 14.31 80.69 13.75 80 13.75Z" fill="#00C24E"/>
<path d="M30 19.0578L29.4 19.4047L7.8 31.8734L7.2 32.2203V32.9117V39.8609V40.5523L7.20938 40.557L7.19766 40.5617L7.2 41.2555L7.21172 48.1789V48.5211L7.2 49.5313V56.4688V57.1602L7.8 57.507L29.4 69.9758L30 70.3227L30.6 69.9758L52.2 57.507L52.8 57.1602V56.4688V49.543V48.868V48.1766V41.2531V40.5617L52.7906 40.557L52.8 40.5523V39.8609V32.9117V32.2203L52.2 31.8734L30.6 19.4047L30 19.0578ZM30 20.7898L51 32.9117L30 45.0406L9 32.9117L30 20.7898ZM8.7 33.432L29.7 45.5586V51.8141L9.75 40.2969L8.7 39.6875V33.432ZM51.3 33.432V39.6875L50.25 40.2969C50.2411 40.3019 50.2325 40.3074 50.2242 40.3133L30.3 51.8188V45.5586L51.3 33.432ZM10.7766 36.7508C10.7015 36.7567 10.6315 36.7905 10.5802 36.8457C10.529 36.9008 10.5004 36.9732 10.5 37.0484V38.457C10.4999 38.5098 10.5138 38.5616 10.5401 38.6072C10.5664 38.6529 10.6043 38.6908 10.65 38.7172L21.45 44.9516C21.4956 44.9779 21.5474 44.9918 21.6001 44.9917C21.6528 44.9917 21.7045 44.9778 21.7501 44.9515C21.7957 44.9251 21.8336 44.8872 21.8599 44.8415C21.8862 44.7959 21.9001 44.7441 21.9 44.6914V43.3086C21.9001 43.2559 21.8862 43.2041 21.8599 43.1584C21.8336 43.1127 21.7957 43.0748 21.75 43.0484L10.95 36.7906C10.8975 36.7601 10.8371 36.7462 10.7766 36.7508ZM11.1 37.5688L21.3 43.4797V44.1734L11.1 38.2836V37.5688ZM9.6 40.9016L29.8547 52.5945C29.9003 52.6209 29.952 52.6347 30.0047 52.6347C30.0573 52.6347 30.1091 52.6209 30.1547 52.5945L50.4 40.9016L51.0023 41.2508L30.0047 53.3727L8.99766 41.2508L9.6 40.9016ZM8.7 41.7711L29.7047 53.893V60.1273L9.77813 48.6289C9.77735 48.6281 9.77657 48.6273 9.77578 48.6266L9.75234 48.6125H9.75L8.71172 48.0031L8.7 41.7711ZM51.3 41.7711V48.0031L50.25 48.6125C50.2411 48.6175 50.2325 48.623 50.2242 48.6289L30.3047 60.1273V53.893L51.3 41.7711ZM10.7766 45.0641C10.7011 45.07 10.6307 45.1042 10.5794 45.1598C10.5281 45.2154 10.4998 45.2884 10.5 45.3641V46.7703C10.4999 46.823 10.5138 46.8748 10.5401 46.9205C10.5664 46.9662 10.6043 47.0041 10.65 47.0305L21.45 53.2672C21.4956 53.2935 21.5474 53.3074 21.6001 53.3074C21.6528 53.3073 21.7045 53.2934 21.7501 53.2671C21.7957 53.2407 21.8336 53.2028 21.8599 53.1571C21.8862 53.1115 21.9001 53.0597 21.9 53.007V51.6219C21.9001 51.5692 21.8862 51.5174 21.8599 51.4717C21.8336 51.426 21.7957 51.3881 21.75 51.3617L10.95 45.1039C10.8975 45.0734 10.8371 45.0595 10.7766 45.0641ZM26.3766 45.7789C26.3011 45.7848 26.2307 45.819 26.1794 45.8747C26.1281 45.9303 26.0998 46.0032 26.1 46.0789V47.4641C26.0999 47.5168 26.1138 47.5686 26.1401 47.6143C26.1664 47.6599 26.2043 47.6979 26.25 47.7242L27.45 48.4156C27.4955 48.4419 27.547 48.4557 27.5995 48.4558C27.652 48.4559 27.7036 48.4422 27.7491 48.4161C27.7947 48.39 27.8326 48.3524 27.859 48.3071C27.8855 48.2618 27.8996 48.2103 27.9 48.1578V46.7703C27.9001 46.7176 27.8862 46.6658 27.8599 46.6201C27.8336 46.5744 27.7957 46.5365 27.75 46.5102L26.55 45.8188C26.4975 45.7882 26.4371 45.7743 26.3766 45.7789ZM11.1 45.882L21.3 51.793V52.4867L11.1 46.5969V45.882ZM26.7 46.5992L27.3 46.9438V47.6375L26.7 47.2906V46.5992ZM9.6 49.2195L29.8547 60.9078C29.9003 60.9341 29.952 60.948 30.0047 60.948C30.0573 60.948 30.1091 60.9341 30.1547 60.9078L50.4 49.2195L50.9883 49.557L30.0047 61.6625L9.02578 49.5477L9.6 49.2195ZM8.7 50.0516L29.7047 62.1828L29.7 68.4172L8.7 56.2953V50.0516ZM51.3 50.068V56.2953L30.3 68.4172L30.3047 62.1828L51.3 50.068ZM10.7766 53.3773C10.7011 53.3833 10.6307 53.4175 10.5794 53.4731C10.5281 53.5287 10.4998 53.6017 10.5 53.6773V55.0859C10.4999 55.1387 10.5138 55.1905 10.5401 55.2361C10.5664 55.2818 10.6043 55.3197 10.65 55.3461L21.45 61.5805C21.4956 61.6068 21.5474 61.6207 21.6001 61.6206C21.6528 61.6206 21.7045 61.6067 21.7501 61.5804C21.7957 61.554 21.8336 61.5161 21.8599 61.4704C21.8862 61.4248 21.9001 61.373 21.9 61.3203V59.9352C21.9001 59.8824 21.8862 59.8306 21.8599 59.785C21.8336 59.7393 21.7957 59.7014 21.75 59.675L10.95 53.4195C10.9067 53.3937 10.8575 53.3792 10.807 53.3773C10.7969 53.3768 10.7867 53.3768 10.7766 53.3773ZM26.3766 54.0922C26.3011 54.0981 26.2307 54.1323 26.1794 54.1879C26.1281 54.2436 26.0998 54.3165 26.1 54.3922V55.7773C26.0999 55.8301 26.1138 55.8819 26.1401 55.9275C26.1664 55.9732 26.2043 56.0111 26.25 56.0375L27.45 56.7313C27.4956 56.7576 27.5474 56.7714 27.6001 56.7714C27.6528 56.7714 27.7045 56.7575 27.7501 56.7311C27.7957 56.7048 27.8336 56.6669 27.8599 56.6212C27.8862 56.5756 27.9001 56.5238 27.9 56.4711V55.0859C27.9001 55.0332 27.8862 54.9814 27.8599 54.9357C27.8336 54.8901 27.7957 54.8521 27.75 54.8258L26.55 54.132C26.4975 54.1015 26.4371 54.0876 26.3766 54.0922ZM11.1 54.1977L21.3 60.1086V60.8L11.1 54.9125V54.1977ZM26.7 54.9125L27.3 55.2594V55.9508L26.7 55.6039V54.9125ZM26.3766 62.4055C26.3011 62.4114 26.2307 62.4456 26.1794 62.5012C26.1281 62.5569 26.0998 62.6298 26.1 62.7055V64.0906C26.0999 64.1433 26.1138 64.1952 26.1401 64.2408C26.1664 64.2865 26.2043 64.3244 26.25 64.3508L27.45 65.0445C27.4956 65.0709 27.5474 65.0847 27.6001 65.0847C27.6528 65.0847 27.7045 65.0708 27.7501 65.0444C27.7957 65.018 27.8336 64.9801 27.8599 64.9345C27.8862 64.8888 27.9001 64.8371 27.9 64.7844V63.3992C27.9001 63.3465 27.8862 63.2947 27.8599 63.249C27.8336 63.2034 27.7957 63.1654 27.75 63.1391L26.55 62.4453C26.4975 62.4148 26.4371 62.4009 26.3766 62.4055ZM26.7 63.2258L27.3 63.5727V64.2664L26.7 63.9195V63.2258Z" fill="#0669B1"/>
</svg>
