<svg width="79" height="61" viewBox="0 0 79 61" fill="none" xmlns="http://www.w3.org/2000/svg">
<path d="M74 13.75H65.25V5C65.25 4.31 64.69 3.75 64 3.75C63.31 3.75 62.75 4.31 62.75 5V13.75H54C53.31 13.75 52.75 14.31 52.75 15C52.75 15.69 53.31 16.25 54 16.25H62.75V25C62.75 25.69 63.31 26.25 64 26.25C64.69 26.25 65.25 25.69 65.25 25V16.25H74C74.69 16.25 75.25 15.69 75.25 15C75.25 14.31 74.69 13.75 74 13.75Z" fill="#00C24E"/>
<g clip-path="url(#clip0_1631_2)">
<path d="M59.4088 25.8088C59.2463 25.6813 57.7275 24.55 54.5238 24.55C53.6775 24.5538 52.8337 24.625 52 24.7638C51.38 20.5713 47.9763 18.6013 47.8188 18.51L46.9588 18.02L46.3925 18.825C45.6837 19.9075 45.0575 21.025 44.7538 22.2788C44.18 24.6725 44.5288 26.92 45.7613 28.8413C44.2713 29.66 41.7325 29.7325 41.25 29.75H1.9775C0.945001 29.7513 0.107501 30.575 0.101251 31.5925C0.055001 35.0088 0.542501 38.5338 1.73375 41.7413C3.095 45.2638 5.12125 47.8588 7.75625 49.4463C10.7088 51.23 15.5063 52.25 20.945 52.25C23.4013 52.2575 25.8538 52.0388 28.2688 51.595C31.6263 50.9863 34.8575 49.8288 37.8275 48.17C40.275 46.7713 42.4775 44.9925 44.3513 42.9013C47.4825 39.4038 49.3475 35.51 50.735 32.0488C50.9213 32.0488 51.1075 32.0488 51.2875 32.0488C54.7163 32.0488 56.8238 30.695 57.9863 29.5613C58.7588 28.8375 59.3625 27.9563 59.7538 26.98L60 26.27L59.4088 25.8088Z" fill="#2395EC"/>
<path d="M10 28.5H6.25C5.56 28.5 5 27.94 5 27.25V23.5C5 22.81 5.56 22.25 6.25 22.25H10C10.69 22.25 11.25 22.81 11.25 23.5V27.25C11.25 27.94 10.69 28.5 10 28.5Z" fill="#2395EC"/>
<path d="M17.5 28.5H13.75C13.06 28.5 12.5 27.94 12.5 27.25V23.5C12.5 22.81 13.06 22.25 13.75 22.25H17.5C18.19 22.25 18.75 22.81 18.75 23.5V27.25C18.75 27.94 18.19 28.5 17.5 28.5Z" fill="#2395EC"/>
<path d="M25 28.5H21.25C20.56 28.5 20 27.94 20 27.25V23.5C20 22.81 20.56 22.25 21.25 22.25H25C25.69 22.25 26.25 22.81 26.25 23.5V27.25C26.25 27.94 25.69 28.5 25 28.5Z" fill="#2395EC"/>
<path d="M32.5 28.5H28.75C28.06 28.5 27.5 27.94 27.5 27.25V23.5C27.5 22.81 28.06 22.25 28.75 22.25H32.5C33.19 22.25 33.75 22.81 33.75 23.5V27.25C33.75 27.94 33.19 28.5 32.5 28.5Z" fill="#2395EC"/>
<path d="M17.5 21H13.75C13.06 21 12.5 20.44 12.5 19.75V16C12.5 15.31 13.06 14.75 13.75 14.75H17.5C18.19 14.75 18.75 15.31 18.75 16V19.75C18.75 20.44 18.19 21 17.5 21Z" fill="#2395EC"/>
<path d="M25 21H21.25C20.56 21 20 20.44 20 19.75V16C20 15.31 20.56 14.75 21.25 14.75H25C25.69 14.75 26.25 15.31 26.25 16V19.75C26.25 20.44 25.69 21 25 21Z" fill="#2395EC"/>
<path d="M32.5 21H28.75C28.06 21 27.5 20.44 27.5 19.75V16C27.5 15.31 28.06 14.75 28.75 14.75H32.5C33.19 14.75 33.75 15.31 33.75 16V19.75C33.75 20.44 33.19 21 32.5 21Z" fill="#2395EC"/>
<path d="M32.5 13.5H28.75C28.06 13.5 27.5 12.94 27.5 12.25V8.5C27.5 7.81 28.06 7.25 28.75 7.25H32.5C33.19 7.25 33.75 7.81 33.75 8.5V12.25C33.75 12.94 33.19 13.5 32.5 13.5Z" fill="#2395EC"/>
<path d="M40 28.5H36.25C35.56 28.5 35 27.94 35 27.25V23.5C35 22.81 35.56 22.25 36.25 22.25H40C40.69 22.25 41.25 22.81 41.25 23.5V27.25C41.25 27.94 40.69 28.5 40 28.5Z" fill="#2395EC"/>
</g>
<defs>
<clipPath id="clip0_1631_2">
<rect width="60" height="60" fill="white" transform="translate(0 1)"/>
</clipPath>
</defs>
</svg>
