<svg width="90" height="60" viewBox="0 0 90 60" fill="none" xmlns="http://www.w3.org/2000/svg">
<path d="M85 13.75H76.25V5C76.25 4.31 75.69 3.75 75 3.75C74.31 3.75 73.75 4.31 73.75 5V13.75H65C64.31 13.75 63.75 14.31 63.75 15C63.75 15.69 64.31 16.25 65 16.25H73.75V25C73.75 25.69 74.31 26.25 75 26.25C75.69 26.25 76.25 25.69 76.25 25V16.25H85C85.69 16.25 86.25 15.69 86.25 15C86.25 14.31 85.69 13.75 85 13.75Z" fill="#00C24E"/>
<g clip-path="url(#clip0_1631_2)">
<path d="M25.2 16.8C21.7172 16.8 18.6281 18.5719 16.9688 22.3922L13.05 30.9609L8.33907 19.3922L8.32969 19.3734C7.35469 17.2219 4.78594 16.2047 2.55938 17.1984C0.309383 18.2063 -0.581242 20.8688 0.431258 23.0203L7.44376 38.8313V38.8359C8.02969 40.1109 8.66251 41.1797 9.56251 41.9719C10.4672 42.7641 11.6625 43.2 12.9844 43.2C14.3859 43.2 15.6 42.7219 16.4813 41.9109C17.3672 41.1 17.9438 40.05 18.5203 38.8547L18.525 38.8453L18.5297 38.8266C18.5297 38.8266 23.3297 28.125 23.8875 26.9016C24.1313 26.3672 24.45 25.9078 24.7734 25.6172C25.1016 25.3313 25.3922 25.2 25.8 25.2C26.7938 25.2 27.6 26.0063 27.6 27V38.85C27.6 41.1844 29.4469 43.2 31.8234 43.2C34.2047 43.2 36 41.1609 36 38.85V27C36 26.0063 36.8063 25.2 37.8 25.2C38.7938 25.2 39.6 26.0063 39.6 27V39C39.6 41.3063 41.4938 43.2 43.8 43.2C46.1063 43.2 48 41.3063 48 39V27C48 26.0063 48.8063 25.2 49.8 25.2C50.7938 25.2 51.6 26.0063 51.6 27V39C51.6 41.3063 53.4938 43.2 55.8 43.2C58.1063 43.2 60 41.3063 60 39V25.6313C60 20.5031 55.7953 16.8 50.8969 16.8C47.0391 16.8 44.8359 18.6047 43.8797 19.4906C42.2813 17.9156 40.1859 16.8047 37.125 16.8047C33.9094 16.8047 32.0719 18.4922 31.1719 19.4438C29.4656 17.8406 27.2719 16.8 25.2 16.8ZM4.35001 19.1859C5.12813 19.1484 5.78438 19.5844 6.14063 20.3625L12.9188 37.0125L19.1625 23.3625L19.1672 23.3484C20.5406 20.1984 22.425 19.2 25.2 19.2C26.7797 19.2 29.1469 20.2266 30.3 21.7313L31.2422 22.9594L32.1984 21.7359C32.1984 21.7359 34.275 19.2047 37.125 19.2047C40.2047 19.2047 41.6813 20.1 42.9375 21.7313L43.8141 22.875L44.7797 21.8063C44.7797 21.8063 47.1422 19.2 50.8969 19.2C54.6281 19.2 57.6 21.7828 57.6 25.6313V39C57.6 39.9938 56.7938 40.8 55.8 40.8C54.8063 40.8 54 39.9938 54 39V27C54 24.6938 52.1063 22.8 49.8 22.8C47.4938 22.8 45.6 24.6938 45.6 27V39C45.6 39.9938 44.7938 40.8 43.8 40.8C42.8063 40.8 42 39.9938 42 39V27C42 24.6938 40.1063 22.8 37.8 22.8C35.4938 22.8 33.6 24.6938 33.6 27V38.85C33.6 40.0078 32.8875 40.8 31.8234 40.8C30.7641 40.8 30 39.9797 30 38.85V27C30 24.6938 28.1063 22.8 25.8 22.8C24.7688 22.8 23.85 23.2313 23.1797 23.8266C22.5141 24.4172 22.0547 25.1531 21.7125 25.8984C21.1031 27.225 16.3688 37.7859 16.35 37.8234C15.8203 38.9203 15.3422 39.7031 14.8594 40.1438C14.3766 40.5938 13.9172 40.8 12.9844 40.8C12.1219 40.8 11.6438 40.6031 11.1469 40.1672C10.65 39.7313 10.1438 38.9625 9.62813 37.8375L2.60626 22.0078V21.9938C2.10938 20.9531 2.44688 19.8797 3.54376 19.3922C3.82032 19.2656 4.09219 19.2 4.35001 19.1859Z" fill="#03B3FF"/>
</g>
<defs>
<clipPath id="clip0_1631_2">
<rect width="60" height="60" fill="white"/>
</clipPath>
</defs>
</svg>
