<svg width="82" height="81" viewBox="0 0 82 81" fill="none" xmlns="http://www.w3.org/2000/svg">
<path d="M77 13.75H68.25V5C68.25 4.31 67.69 3.75 67 3.75C66.31 3.75 65.75 4.31 65.75 5V13.75H57C56.31 13.75 55.75 14.31 55.75 15C55.75 15.69 56.31 16.25 57 16.25H65.75V25C65.75 25.69 66.31 26.25 67 26.25C67.69 26.25 68.25 25.69 68.25 25V16.25H77C77.69 16.25 78.25 15.69 78.25 15C78.25 14.31 77.69 13.75 77 13.75Z" fill="#00C24E"/>
<path d="M44.25 63.75H56.25V78.75H44.25V63.75Z" fill="#4788C7"/>
<path d="M55.5 64.5V78H45V64.5H55.5ZM57 63H43.5V79.5H57V63Z" fill="#4788C7"/>
<path d="M2.25 63.75H14.25V78.75H2.25V63.75Z" fill="#4788C7"/>
<path d="M13.5 64.5V78H3V64.5H13.5ZM15 63H1.5V79.5H15V63Z" fill="#4788C7"/>
<path d="M23.25 63.75H35.25V78.75H23.25V63.75Z" fill="#4788C7"/>
<path d="M34.5 64.5V78H24V64.5H34.5ZM36 63H22.5V79.5H36V63Z" fill="#4788C7"/>
<path d="M18.75 23.25H39.75V38.25H18.75V23.25Z" fill="#4788C7"/>
<path d="M39 24V37.5H19.5V24H39ZM40.5 22.5H18V39H40.5V22.5Z" fill="#4788C7"/>
<path d="M9 63V51H49.5V63H51V49.5H7.5V63H9Z" fill="#4788C7"/>
<path d="M28.5 39H30V63H28.5V39Z" fill="#4788C7"/>
</svg>
