<svg width="83" height="60" viewBox="0 0 83 60" fill="none" xmlns="http://www.w3.org/2000/svg">
<path d="M78 13.75H69.25V5C69.25 4.31 68.69 3.75 68 3.75C67.31 3.75 66.75 4.31 66.75 5V13.75H58C57.31 13.75 56.75 14.31 56.75 15C56.75 15.69 57.31 16.25 58 16.25H66.75V25C66.75 25.69 67.31 26.25 68 26.25C68.69 26.25 69.25 25.69 69.25 25V16.25H78C78.69 16.25 79.25 15.69 79.25 15C79.25 14.31 78.69 13.75 78 13.75Z" fill="#00C24E"/>
<path d="M30 1.2C26.2071 1.2 23.038 1.88233 20.7117 3.0914C18.3855 4.30047 16.8 6.17412 16.8 8.4V15.6V20.4H19.2V19.9406C19.6561 20.2967 20.1616 20.6227 20.7117 20.9086C23.038 22.1177 26.2071 22.8 30 22.8C33.7929 22.8 36.962 22.1177 39.2883 20.9086C39.8384 20.6227 40.3439 20.2967 40.8 19.9406V20.4H43.2V15.6V8.4C43.2 6.17412 41.6145 4.30047 39.2883 3.0914C36.962 1.88233 33.7929 1.2 30 1.2ZM30 3.6C33.4983 3.6 36.3287 4.25984 38.1797 5.22187C40.0306 6.1839 40.8 7.31027 40.8 8.4C40.8 9.48972 40.0306 10.6161 38.1797 11.5781C36.3287 12.5402 33.4983 13.2 30 13.2C26.5017 13.2 23.6713 12.5402 21.8203 11.5781C19.9694 10.6161 19.2 9.48972 19.2 8.4C19.2 7.31027 19.9694 6.1839 21.8203 5.22187C23.6713 4.25984 26.5017 3.6 30 3.6ZM19.2 12.7406C19.6561 13.0967 20.1616 13.4227 20.7117 13.7086C23.038 14.9177 26.2071 15.6 30 15.6C33.7929 15.6 36.962 14.9177 39.2883 13.7086C39.8384 13.4227 40.3439 13.0967 40.8 12.7406V15.6C40.8 16.6897 40.0306 17.8161 38.1797 18.7781C36.3287 19.7401 33.4983 20.4 30 20.4C26.5017 20.4 23.6713 19.7401 21.8203 18.7781C19.9694 17.8161 19.2 16.6897 19.2 15.6V12.7406ZM15.6 22.8C11.8071 22.8 8.63797 23.4823 6.31171 24.6914C3.98546 25.9005 2.39999 27.7741 2.39999 30V37.2V51.6C2.39999 53.8259 3.98546 55.6995 6.31171 56.9086C8.63797 58.1177 11.8071 58.8 15.6 58.8C19.3929 58.8 22.562 58.1177 24.8883 56.9086C27.2145 55.6995 28.8 53.8259 28.8 51.6V37.2V30C28.8 27.7741 27.2145 25.9005 24.8883 24.6914C22.562 23.4823 19.3929 22.8 15.6 22.8ZM44.4 22.8C40.6071 22.8 37.438 23.4823 35.1117 24.6914C32.7855 25.9005 31.2 27.7741 31.2 30V37.2V51.6C31.2 53.8259 32.7855 55.6995 35.1117 56.9086C37.438 58.1177 40.6071 58.8 44.4 58.8C48.1929 58.8 51.362 58.1177 53.6883 56.9086C56.0145 55.6995 57.6 53.8259 57.6 51.6V37.2V30C57.6 27.7741 56.0145 25.9005 53.6883 24.6914C51.362 23.4823 48.1929 22.8 44.4 22.8ZM15.6 25.2C19.0983 25.2 21.9287 25.8598 23.7797 26.8219C25.6306 27.7839 26.4 28.9103 26.4 30C26.4 31.0897 25.6306 32.2161 23.7797 33.1781C21.9287 34.1401 19.0983 34.8 15.6 34.8C12.1017 34.8 9.27125 34.1401 7.42031 33.1781C5.56936 32.2161 4.79999 31.0897 4.79999 30C4.79999 28.9103 5.56936 27.7839 7.42031 26.8219C9.27125 25.8598 12.1017 25.2 15.6 25.2ZM44.4 25.2C47.8983 25.2 50.7287 25.8598 52.5797 26.8219C54.4306 27.7839 55.2 28.9103 55.2 30C55.2 31.0897 54.4306 32.2161 52.5797 33.1781C50.7287 34.1401 47.8983 34.8 44.4 34.8C40.9017 34.8 38.0713 34.1401 36.2203 33.1781C34.3694 32.2161 33.6 31.0897 33.6 30C33.6 28.9103 34.3694 27.7839 36.2203 26.8219C38.0713 25.8598 40.9017 25.2 44.4 25.2ZM4.79999 34.3406C5.25608 34.6967 5.7616 35.0227 6.31171 35.3086C8.63797 36.5177 11.8071 37.2 15.6 37.2C19.3929 37.2 22.562 36.5177 24.8883 35.3086C25.4384 35.0227 25.9439 34.6967 26.4 34.3406V37.2C26.4 38.2897 25.6306 39.4161 23.7797 40.3781C21.9287 41.3401 19.0983 42 15.6 42C12.1017 42 9.27125 41.3401 7.42031 40.3781C5.56936 39.4161 4.79999 38.2897 4.79999 37.2V34.3406ZM33.6 34.3406C34.0561 34.6967 34.5616 35.0227 35.1117 35.3086C37.438 36.5177 40.6071 37.2 44.4 37.2C48.1929 37.2 51.362 36.5177 53.6883 35.3086C54.2384 35.0227 54.7439 34.6967 55.2 34.3406V37.2C55.2 38.2897 54.4306 39.4161 52.5797 40.3781C50.7287 41.3401 47.8983 42 44.4 42C40.9017 42 38.0713 41.3401 36.2203 40.3781C34.3694 39.4161 33.6 38.2897 33.6 37.2V34.3406ZM4.79999 41.5406C5.25608 41.8967 5.7616 42.2227 6.31171 42.5086C8.63797 43.7177 11.8071 44.4 15.6 44.4C19.3929 44.4 22.562 43.7177 24.8883 42.5086C25.4384 42.2227 25.9439 41.8967 26.4 41.5406V44.4C26.4 45.4897 25.6306 46.6161 23.7797 47.5781C21.9287 48.5401 19.0983 49.2 15.6 49.2C12.1017 49.2 9.27125 48.5401 7.42031 47.5781C5.56936 46.6161 4.79999 45.4897 4.79999 44.4V41.5406ZM33.6 41.5406C34.0561 41.8967 34.5616 42.2227 35.1117 42.5086C37.438 43.7177 40.6071 44.4 44.4 44.4C48.1929 44.4 51.362 43.7177 53.6883 42.5086C54.2384 42.2227 54.7439 41.8967 55.2 41.5406V44.4C55.2 45.4897 54.4306 46.6161 52.5797 47.5781C50.7287 48.5401 47.8983 49.2 44.4 49.2C40.9017 49.2 38.0713 48.5401 36.2203 47.5781C34.3694 46.6161 33.6 45.4897 33.6 44.4V41.5406ZM4.79999 48.7406C5.25608 49.0967 5.7616 49.4227 6.31171 49.7086C8.63797 50.9177 11.8071 51.6 15.6 51.6C19.3929 51.6 22.562 50.9177 24.8883 49.7086C25.4384 49.4227 25.9439 49.0967 26.4 48.7406V51.6C26.4 52.6897 25.6306 53.8161 23.7797 54.7781C21.9287 55.7401 19.0983 56.4 15.6 56.4C12.1017 56.4 9.27125 55.7401 7.42031 54.7781C5.56936 53.8161 4.79999 52.6897 4.79999 51.6V48.7406ZM33.6 48.7406C34.0561 49.0967 34.5616 49.4227 35.1117 49.7086C37.438 50.9177 40.6071 51.6 44.4 51.6C48.1929 51.6 51.362 50.9177 53.6883 49.7086C54.2384 49.4227 54.7439 49.0967 55.2 48.7406V51.6C55.2 52.6897 54.4306 53.8161 52.5797 54.7781C50.7287 55.7401 47.8983 56.4 44.4 56.4C40.9017 56.4 38.0713 55.7401 36.2203 54.7781C34.3694 53.8161 33.6 52.6897 33.6 51.6V48.7406Z" fill="#BC5205"/>
</svg>
