<svg width="93" height="60" viewBox="0 0 93 60" fill="none" xmlns="http://www.w3.org/2000/svg">
<path d="M67.7727 19.0909C67.7727 19.0909 63.8018 19.0909 61.0909 19.0909C58.38 19.0909 56.1818 16.8927 56.1818 14.1818C56.1818 11.6367 58.1258 9.56837 60.6055 9.32182C60.5815 9.12437 60.5455 8.93127 60.5455 8.72727C60.5455 6.01637 62.7436 3.81818 65.4546 3.81818C67.0233 3.81818 68.4033 4.56655 69.3022 5.712C69.4549 2.83637 71.8135 0.545456 74.7273 0.545456C77.7393 0.545456 80.1818 2.988 80.1818 6C80.1818 6.48655 80.0978 6.94909 79.9778 7.39855C80.6782 6.55091 81.7233 6 82.9091 6C84.852 6 86.4371 7.45637 86.6782 9.33273C86.8756 9.30873 87.0687 9.27273 87.2727 9.27273C89.9836 9.27273 92.1818 11.4709 92.1818 14.1818C92.1818 16.8927 89.9836 19.0909 87.2727 19.0909C84.5618 19.0909 76.9091 19.0909 76.9091 19.0909H71.0455V19.6364H67.7727V19.0909Z" fill="#FDFCEF"/>
<path d="M74.7273 0C78.036 0 80.7273 2.69127 80.7273 6C80.7273 6.01745 80.7273 6.03382 80.7273 6.05127C81.384 5.664 82.1345 5.45455 82.9091 5.45455C84.9065 5.45455 86.6302 6.83018 87.1178 8.73273C87.1691 8.72945 87.2204 8.72727 87.2727 8.72727C90.2803 8.72727 92.7273 11.1742 92.7273 14.1818C92.7273 17.1895 90.2803 19.6364 87.2727 19.6364H71.0454C70.7444 19.6364 70.5 19.392 70.5 19.0909C70.5 18.7898 70.7444 18.5455 71.0454 18.5455H87.2727C89.6793 18.5455 91.6363 16.5884 91.6363 14.1818C91.6363 11.7753 89.6793 9.81818 87.2727 9.81818C87.1451 9.81818 87.0218 9.83673 86.8985 9.85309L86.7447 9.87382C86.7218 9.87709 86.7 9.87818 86.6771 9.87818C86.4087 9.87818 86.1731 9.67636 86.1371 9.40145C85.9287 7.77273 84.5411 6.54545 82.9091 6.54545C81.9436 6.54545 81.0294 6.98291 80.3989 7.74546C80.292 7.87418 80.136 7.944 79.9778 7.944C79.8927 7.944 79.8076 7.92436 79.7291 7.88291C79.5011 7.76618 79.3865 7.50545 79.452 7.25782C79.5774 6.78327 79.6364 6.384 79.6364 6C79.6364 3.29345 77.4338 1.09091 74.7273 1.09091C72.1298 1.09091 69.9851 3.13309 69.8465 5.74146C69.8345 5.96836 69.6829 6.16364 69.4658 6.23236C69.4113 6.24982 69.3556 6.25855 69.3 6.25855C69.1364 6.25855 68.9771 6.18327 68.8724 6.04909C68.0313 4.97782 66.7865 4.36364 65.4545 4.36364C63.048 4.36364 61.0909 6.32073 61.0909 8.72727C61.0909 8.85491 61.1094 8.97818 61.1258 9.10146L61.1465 9.25527C61.164 9.40145 61.1225 9.54764 61.0309 9.66218C60.9393 9.77673 60.8051 9.84982 60.66 9.864C58.4171 10.0876 56.7273 11.9444 56.7273 14.1818C56.7273 16.5884 58.6844 18.5455 61.0909 18.5455H67.7727C68.0738 18.5455 68.3182 18.7898 68.3182 19.0909C68.3182 19.392 68.0738 19.6364 67.7727 19.6364H61.0909C58.0833 19.6364 55.6364 17.1895 55.6364 14.1818C55.6364 11.5669 57.4789 9.36764 60.0033 8.86145C60.0011 8.81673 60 8.772 60 8.72727C60 5.71964 62.4469 3.27273 65.4545 3.27273C66.7374 3.27273 67.956 3.72655 68.9269 4.54255C69.5793 1.92 71.94 0 74.7273 0Z" fill="#472B29"/>
<path d="M76.3636 7.63637C77.8942 7.63637 79.2098 8.72619 79.5415 10.1902C79.9418 9.948 80.3989 9.81819 80.8636 9.81819C82.1749 9.81819 83.2615 10.7967 83.4305 12.0742C83.652 12.024 83.8626 12 84.0687 12C85.7367 12 87.1353 13.3091 87.252 14.9804C87.2618 15.1309 87.1484 15.2618 86.9989 15.2727C86.9924 15.2727 86.9858 15.2727 86.9793 15.2727C86.8375 15.2727 86.7175 15.1626 86.7076 15.0196C86.6106 13.6331 85.452 12.5455 84.0687 12.5455C83.8189 12.5455 83.556 12.5913 83.2636 12.684C83.2396 12.6916 83.2146 12.6949 83.1906 12.6949C83.1306 12.6949 83.0706 12.6731 83.0204 12.636C82.9506 12.5858 82.9091 12.4964 82.9091 12.4091C82.9091 11.2811 81.9916 10.3636 80.8636 10.3636C80.376 10.3636 79.8982 10.5469 79.5207 10.8796C79.4695 10.9244 79.4051 10.9484 79.3407 10.9484C79.3058 10.9484 79.272 10.9418 79.2393 10.9276C79.1433 10.8895 79.0778 10.8 79.0702 10.6964C78.9567 9.28582 77.7687 8.18182 76.3636 8.18182C76.1367 8.18182 75.9 8.21891 75.6196 8.29855C75.5946 8.30619 75.5684 8.30946 75.5433 8.30946C75.4244 8.30946 75.3175 8.22982 75.2826 8.11091C75.2411 7.96582 75.3251 7.81528 75.4702 7.77382C75.7996 7.68 76.0844 7.63637 76.3636 7.63637Z" fill="#472B29"/>
<path d="M61.2186 9.27272C62.6651 9.27272 63.9546 10.2513 64.3538 11.6531C64.3953 11.7982 64.3113 11.9487 64.1662 11.9902C64.14 11.9967 64.1149 12 64.0909 12C63.972 12 63.8629 11.9214 63.8291 11.8014C63.4964 10.6342 62.4229 9.81817 61.2186 9.81817C61.0909 9.81817 60.9677 9.83345 60.8455 9.84981C60.8324 9.85199 60.8204 9.85308 60.8073 9.85308C60.6753 9.85308 60.5575 9.75272 60.5389 9.61636C60.5182 9.4669 60.6229 9.32945 60.7724 9.30981C60.9186 9.29018 61.0669 9.27272 61.2186 9.27272Z" fill="#472B29"/>
<path d="M69.3 60H26.7C23.4011 60 20.7273 57.3262 20.7273 54.0273V20.1545C20.7273 16.8556 23.4011 14.1818 26.7 14.1818H69.2989C72.5989 14.1818 75.2727 16.8556 75.2727 20.1545V54.0262C75.2727 57.3262 72.5989 60 69.3 60Z" fill="#DFF0FE"/>
<path d="M75.2727 24H20.7273V53.4545H75.2727V24Z" fill="#4C4C4C"/>
<path d="M38.2484 48.0665L35.9334 45.7516L43.5044 38.1818L35.9334 30.612L38.2484 28.2971L48.132 38.1818L38.2484 48.0665Z" fill="#EDF7F5"/>
<path d="M61.6364 45.2269H48.5454V48.4996H61.6364V45.2269Z" fill="#EDF7F5"/>
<path d="M38.2484 48.3393C38.1786 48.3393 38.1087 48.3131 38.0553 48.2596L35.7415 45.9458C35.6346 45.8389 35.6346 45.6665 35.7415 45.5596L43.1182 38.1818L38.6389 33.7025C38.532 33.5956 38.532 33.4233 38.6389 33.3164C38.7458 33.2094 38.9182 33.2094 39.0251 33.3164L43.6975 37.9887C43.8044 38.0956 43.8044 38.268 43.6975 38.3749L36.3196 45.7527L38.2484 47.6814L40.2033 45.7265C40.3102 45.6196 40.4826 45.6196 40.5895 45.7265C40.6964 45.8334 40.6964 46.0058 40.5895 46.1127L38.4415 48.2607C38.3869 48.312 38.3182 48.3393 38.2484 48.3393Z" fill="#472B29"/>
<path d="M42.2029 44.3847C42.1331 44.3847 42.0633 44.3585 42.0098 44.3051C41.9029 44.1982 41.9029 44.0258 42.0098 43.9189L47.7469 38.1818L45.9305 36.3655C45.8236 36.2585 45.8236 36.0862 45.9305 35.9793C46.0374 35.8724 46.2098 35.8724 46.3167 35.9793L48.3262 37.9887C48.4331 38.0956 48.4331 38.268 48.3262 38.3749L42.396 44.3051C42.3414 44.3575 42.2727 44.3847 42.2029 44.3847Z" fill="#472B29"/>
<path d="M44.3498 34.6724C44.28 34.6724 44.2102 34.6462 44.1567 34.5927L38.2473 28.6833L36.3185 30.612L37.2851 31.5785C37.392 31.6854 37.392 31.8578 37.2851 31.9647C37.1782 32.0716 37.0058 32.0716 36.8989 31.9647L35.7393 30.8051C35.6324 30.6982 35.6324 30.5258 35.7393 30.4189L38.0531 28.1051C38.16 27.9982 38.3324 27.9982 38.4393 28.1051L44.5418 34.2076C44.6487 34.3145 44.6487 34.4869 44.5418 34.5938C44.4895 34.6462 44.4207 34.6724 44.3498 34.6724Z" fill="#472B29"/>
<path d="M57.6142 45.5455H53.1818C53.0313 45.5455 52.9091 45.4233 52.9091 45.2727C52.9091 45.1222 53.0313 45 53.1818 45H57.6142C57.7647 45 57.8869 45.1222 57.8869 45.2727C57.8869 45.4233 57.7636 45.5455 57.6142 45.5455Z" fill="#472B29"/>
<path d="M61.6364 48.8182H48.5455C48.3949 48.8182 48.2727 48.696 48.2727 48.5455V45.2727C48.2727 45.1222 48.3949 45 48.5455 45H50.796C50.9466 45 51.0687 45.1222 51.0687 45.2727C51.0687 45.4233 50.9466 45.5455 50.796 45.5455H48.8182V48.2727H61.3636V45.5455H59.7949C59.6444 45.5455 59.5222 45.4233 59.5222 45.2727C59.5222 45.1222 59.6444 45 59.7949 45H61.6364C61.7869 45 61.9091 45.1222 61.9091 45.2727V48.5455C61.9091 48.696 61.7869 48.8182 61.6364 48.8182Z" fill="#472B29"/>
<path d="M69.3 15.7091C71.7513 15.7091 73.7454 17.7044 73.7454 20.1556V54.0273C73.7454 56.4785 71.7513 58.4738 69.3 58.4738H26.7C24.2487 58.4738 22.2545 56.4785 22.2545 54.0273V20.1556C22.2545 17.7044 24.2487 15.7091 26.7 15.7091H69.3ZM69.3 14.1818H26.7C23.4011 14.1818 20.7273 16.8556 20.7273 20.1556V54.0273C20.7273 57.3262 23.4011 60 26.7 60H69.2989C72.5989 60 75.2727 57.3262 75.2727 54.0262V20.1556C75.2727 16.8556 72.5989 14.1818 69.3 14.1818Z" fill="#472B29"/>
<path d="M49.6364 25.0909H21.2727C20.9716 25.0909 20.7273 24.8465 20.7273 24.5455C20.7273 24.2444 20.9716 24 21.2727 24H49.6364C49.9374 24 50.1818 24.2444 50.1818 24.5455C50.1818 24.8465 49.9374 25.0909 49.6364 25.0909Z" fill="#472B29"/>
<path d="M58.3636 25.0909H52.9091C52.608 25.0909 52.3636 24.8465 52.3636 24.5455C52.3636 24.2444 52.608 24 52.9091 24H58.3636C58.6647 24 58.9091 24.2444 58.9091 24.5455C58.9091 24.8465 58.6647 25.0909 58.3636 25.0909Z" fill="#472B29"/>
<path d="M74.7273 25.0909H61.6364C61.3353 25.0909 61.0909 24.8465 61.0909 24.5455C61.0909 24.2444 61.3353 24 61.6364 24H74.7273C75.0284 24 75.2727 24.2444 75.2727 24.5455C75.2727 24.8465 75.0284 25.0909 74.7273 25.0909Z" fill="#472B29"/>
<path d="M74.7273 53.4545H61.6364C61.3353 53.4545 61.0909 53.2102 61.0909 52.9091C61.0909 52.608 61.3353 52.3636 61.6364 52.3636H74.7273C75.0284 52.3636 75.2727 52.608 75.2727 52.9091C75.2727 53.2102 75.0284 53.4545 74.7273 53.4545Z" fill="#472B29"/>
<path d="M57.2727 53.4545H22.3636C22.0625 53.4545 21.8182 53.2102 21.8182 52.9091C21.8182 52.608 22.0625 52.3636 22.3636 52.3636H57.2727C57.5738 52.3636 57.8182 52.608 57.8182 52.9091C57.8182 53.2102 57.5738 53.4545 57.2727 53.4545Z" fill="#472B29"/>
<path d="M28.9091 21.8182C29.8128 21.8182 30.5455 21.0856 30.5455 20.1818C30.5455 19.2781 29.8128 18.5455 28.9091 18.5455C28.0054 18.5455 27.2727 19.2781 27.2727 20.1818C27.2727 21.0856 28.0054 21.8182 28.9091 21.8182Z" fill="#EE3E54"/>
<path d="M28.9091 22.0909C27.8564 22.0909 27 21.2345 27 20.1818C27 19.1291 27.8564 18.2727 28.9091 18.2727C29.9618 18.2727 30.8182 19.1291 30.8182 20.1818C30.8182 21.2345 29.9618 22.0909 28.9091 22.0909ZM28.9091 18.8182C28.1575 18.8182 27.5455 19.4302 27.5455 20.1818C27.5455 20.9334 28.1575 21.5454 28.9091 21.5454C29.6607 21.5454 30.2727 20.9334 30.2727 20.1818C30.2727 19.4302 29.6607 18.8182 28.9091 18.8182Z" fill="#472B29"/>
<path d="M35.4545 21.8182C36.3583 21.8182 37.0909 21.0856 37.0909 20.1818C37.0909 19.2781 36.3583 18.5455 35.4545 18.5455C34.5508 18.5455 33.8182 19.2781 33.8182 20.1818C33.8182 21.0856 34.5508 21.8182 35.4545 21.8182Z" fill="#88AE45"/>
<path d="M35.4545 22.0909C34.4018 22.0909 33.5454 21.2345 33.5454 20.1818C33.5454 19.1291 34.4018 18.2727 35.4545 18.2727C36.5073 18.2727 37.3636 19.1291 37.3636 20.1818C37.3636 21.2345 36.5073 22.0909 35.4545 22.0909ZM35.4545 18.8182C34.7029 18.8182 34.0909 19.4302 34.0909 20.1818C34.0909 20.9334 34.7029 21.5454 35.4545 21.5454C36.2062 21.5454 36.8182 20.9334 36.8182 20.1818C36.8182 19.4302 36.2062 18.8182 35.4545 18.8182Z" fill="#472B29"/>
<path d="M8.1818 49.6364C8.1818 49.6364 6.47235 49.6364 4.36362 49.6364C2.2549 49.6364 0.545441 47.9269 0.545441 45.8182C0.545441 43.8753 2.0018 42.2902 3.87817 42.0491C3.84762 41.8538 3.81817 41.6585 3.81817 41.4545C3.81817 39.3458 5.52762 37.6364 7.63635 37.6364C8.76217 37.6364 9.76362 38.1327 10.4618 38.9073C10.8807 36.9349 12.6294 35.4545 14.7273 35.4545C17.1371 35.4545 19.0909 37.4084 19.0909 39.8182C19.0909 40.0265 19.0582 40.2262 19.0298 40.4269C19.4967 40.0516 20.0814 39.8182 20.7273 39.8182C22.0669 39.8182 23.1764 40.7858 23.4054 42.06C23.6007 42.0295 23.796 42 24 42C26.1087 42 27.8182 43.7095 27.8182 45.8182C27.8182 47.9269 26.1087 49.6364 24 49.6364C21.8913 49.6364 15.8182 49.6364 15.8182 49.6364V50.1818H8.1818V49.6364Z" fill="#FDFCEF"/>
<path d="M6.27272 44.7273C6.42327 44.7273 6.54545 44.6051 6.54545 44.4545C6.54545 43.1204 5.46 42.0349 4.12581 42.0349C4.08872 42.0447 3.32181 42.0338 2.76872 42.1833C2.62363 42.2225 2.53745 42.372 2.57672 42.5171C2.616 42.6633 2.76545 42.7495 2.91054 42.7091C3.3949 42.5782 4.11054 42.5782 4.12472 42.5804C5.1589 42.5804 6 43.4215 6 44.4545C6 44.6051 6.12218 44.7273 6.27272 44.7273Z" fill="#472B29"/>
<path d="M13.6364 50.1818C13.9376 50.1818 14.1818 49.9376 14.1818 49.6364C14.1818 49.3351 13.9376 49.0909 13.6364 49.0909C13.3351 49.0909 13.0909 49.3351 13.0909 49.6364C13.0909 49.9376 13.3351 50.1818 13.6364 50.1818Z" fill="#472B29"/>
<path d="M4.36364 50.1818H8.18182C8.48291 50.1818 8.72727 49.9375 8.72727 49.6364C8.72727 49.3353 8.48291 49.0909 8.18182 49.0909H4.36364C2.55927 49.0909 1.09091 47.6225 1.09091 45.8182C1.09091 44.1862 2.31818 42.7985 3.94691 42.5902C4.09309 42.5705 4.22509 42.4942 4.31346 42.3764C4.40182 42.2585 4.43891 42.1102 4.416 41.9651C4.39091 41.7971 4.36364 41.6291 4.36364 41.4545C4.36364 39.6502 5.832 38.1818 7.63636 38.1818C8.56364 38.1818 9.42327 38.5691 10.0571 39.2727C10.1935 39.4244 10.4073 39.4887 10.6025 39.4342C10.8011 39.3807 10.9527 39.2215 10.9953 39.0207C11.3673 37.2709 12.9371 36 14.7273 36C16.8327 36 18.5455 37.7127 18.5455 39.8182C18.5455 39.9742 18.5225 40.1236 18.5007 40.2742C18.4691 40.4956 18.5695 40.752 18.7647 40.8633C18.96 40.9745 19.1967 40.992 19.3713 40.8524C19.7695 40.5327 20.2375 40.3636 20.7273 40.3636C21.7811 40.3636 22.6822 41.1175 22.8687 42.1571C22.9211 42.4484 23.1916 42.6436 23.4895 42.5989C23.6575 42.5727 23.8255 42.5455 24 42.5455C25.8044 42.5455 27.2727 44.0138 27.2727 45.8182C27.2727 47.6225 25.8044 49.0909 24 49.0909H15.8182C15.5171 49.0909 15.2727 49.3353 15.2727 49.6364C15.2727 49.9375 15.5171 50.1818 15.8182 50.1818H24C26.4065 50.1818 28.3636 48.2247 28.3636 45.8182C28.3636 43.4116 26.4065 41.4545 24 41.4545C23.9356 41.4545 23.8735 41.4567 23.8102 41.4611C23.3585 40.1673 22.1335 39.2727 20.7273 39.2727C20.3465 39.2727 19.9756 39.3393 19.6244 39.4691C19.4444 36.924 17.3171 34.9091 14.7273 34.9091C12.7298 34.9091 10.9462 36.1385 10.1967 37.9353C9.45491 37.392 8.55818 37.0909 7.63636 37.0909C5.22982 37.0909 3.27273 39.048 3.27273 41.4545C3.27273 41.5069 3.27382 41.5582 3.27709 41.6095C1.37564 42.0982 0 43.8207 0 45.8182C0 48.2247 1.95709 50.1818 4.36364 50.1818Z" fill="#472B29"/>
<path d="M10.3636 49.0909C10.5371 49.0909 11.2811 49.0909 11.4545 49.0909C11.7556 49.0909 12 49.3353 12 49.6364C12 49.9375 11.7556 50.1818 11.4545 50.1818C11.2811 50.1818 10.5371 50.1818 10.3636 50.1818C10.0625 50.1818 9.81818 49.9375 9.81818 49.6364C9.81818 49.3353 10.0625 49.0909 10.3636 49.0909Z" fill="#472B29"/>
</svg>
