<svg width="50" height="50" viewBox="0 0 50 50" fill="none" xmlns="http://www.w3.org/2000/svg">
<path d="M23.125 3.75C22.0969 3.75 21.25 4.59689 21.25 5.625V6.25H15.2954C14.1131 6.25 13.029 6.92001 12.5 7.97729L11.8018 9.375H9.6875C8.48676 9.375 7.5 10.3618 7.5 11.5625C7.5 12.7632 8.48676 13.75 9.6875 13.75H10.05L12.3108 40.885C12.4455 42.4989 13.806 43.75 15.426 43.75H34.5752C36.1947 43.75 37.5545 42.4989 37.6892 40.885L39.95 13.75H40.3125C41.5132 13.75 42.5 12.7632 42.5 11.5625C42.5 10.3618 41.5132 9.375 40.3125 9.375H38.1982L37.5 7.97729C36.971 6.92001 35.8869 6.25 34.7046 6.25H28.75V5.625C28.75 4.59689 27.9031 3.75 26.875 3.75H23.125ZM23.125 5H26.875C27.2281 5 27.5 5.27186 27.5 5.625V6.25H22.5V5.625C22.5 5.27186 22.7719 5 23.125 5ZM15.2954 7.5H21.77C21.8375 7.51116 21.9064 7.51116 21.9739 7.5H28.02C28.0875 7.51116 28.1564 7.51116 28.2239 7.5H34.7046C35.416 7.5 36.0634 7.89991 36.3818 8.53638L37.4268 10.625H40.3125C40.838 10.625 41.25 11.037 41.25 11.5625C41.25 12.088 40.838 12.5 40.3125 12.5H40.0537H9.94629H9.6875C9.16199 12.5 8.75 12.088 8.75 11.5625C8.75 11.037 9.16199 10.625 9.6875 10.625H12.5732L13.6182 8.53638C13.9366 7.89991 14.584 7.5 15.2954 7.5ZM15 9.375C14.8342 9.375 14.6753 9.44085 14.5581 9.55806C14.4408 9.67527 14.375 9.83424 14.375 10C14.375 10.1658 14.4408 10.3247 14.5581 10.4419C14.6753 10.5592 14.8342 10.625 15 10.625C15.1658 10.625 15.3247 10.5592 15.4419 10.4419C15.5592 10.3247 15.625 10.1658 15.625 10C15.625 9.83424 15.5592 9.67527 15.4419 9.55806C15.3247 9.44085 15.1658 9.375 15 9.375ZM17.5 9.375C17.3342 9.375 17.1753 9.44085 17.0581 9.55806C16.9408 9.67527 16.875 9.83424 16.875 10C16.875 10.1658 16.9408 10.3247 17.0581 10.4419C17.1753 10.5592 17.3342 10.625 17.5 10.625C17.6658 10.625 17.8247 10.5592 17.9419 10.4419C18.0592 10.3247 18.125 10.1658 18.125 10C18.125 9.83424 18.0592 9.67527 17.9419 9.55806C17.8247 9.44085 17.6658 9.375 17.5 9.375ZM20 9.375C19.8342 9.375 19.6753 9.44085 19.5581 9.55806C19.4408 9.67527 19.375 9.83424 19.375 10C19.375 10.1658 19.4408 10.3247 19.5581 10.4419C19.6753 10.5592 19.8342 10.625 20 10.625C20.1658 10.625 20.3247 10.5592 20.4419 10.4419C20.5592 10.3247 20.625 10.1658 20.625 10C20.625 9.83424 20.5592 9.67527 20.4419 9.55806C20.3247 9.44085 20.1658 9.375 20 9.375ZM22.5 9.375C22.3342 9.375 22.1753 9.44085 22.0581 9.55806C21.9408 9.67527 21.875 9.83424 21.875 10C21.875 10.1658 21.9408 10.3247 22.0581 10.4419C22.1753 10.5592 22.3342 10.625 22.5 10.625C22.6658 10.625 22.8247 10.5592 22.9419 10.4419C23.0592 10.3247 23.125 10.1658 23.125 10C23.125 9.83424 23.0592 9.67527 22.9419 9.55806C22.8247 9.44085 22.6658 9.375 22.5 9.375ZM25 9.375C24.8342 9.375 24.6753 9.44085 24.5581 9.55806C24.4408 9.67527 24.375 9.83424 24.375 10C24.375 10.1658 24.4408 10.3247 24.5581 10.4419C24.6753 10.5592 24.8342 10.625 25 10.625C25.1658 10.625 25.3247 10.5592 25.4419 10.4419C25.5592 10.3247 25.625 10.1658 25.625 10C25.625 9.83424 25.5592 9.67527 25.4419 9.55806C25.3247 9.44085 25.1658 9.375 25 9.375ZM27.5 9.375C27.3342 9.375 27.1753 9.44085 27.0581 9.55806C26.9408 9.67527 26.875 9.83424 26.875 10C26.875 10.1658 26.9408 10.3247 27.0581 10.4419C27.1753 10.5592 27.3342 10.625 27.5 10.625C27.6658 10.625 27.8247 10.5592 27.9419 10.4419C28.0592 10.3247 28.125 10.1658 28.125 10C28.125 9.83424 28.0592 9.67527 27.9419 9.55806C27.8247 9.44085 27.6658 9.375 27.5 9.375ZM30 9.375C29.8342 9.375 29.6753 9.44085 29.5581 9.55806C29.4408 9.67527 29.375 9.83424 29.375 10C29.375 10.1658 29.4408 10.3247 29.5581 10.4419C29.6753 10.5592 29.8342 10.625 30 10.625C30.1658 10.625 30.3247 10.5592 30.4419 10.4419C30.5592 10.3247 30.625 10.1658 30.625 10C30.625 9.83424 30.5592 9.67527 30.4419 9.55806C30.3247 9.44085 30.1658 9.375 30 9.375ZM32.5 9.375C32.3342 9.375 32.1753 9.44085 32.0581 9.55806C31.9408 9.67527 31.875 9.83424 31.875 10C31.875 10.1658 31.9408 10.3247 32.0581 10.4419C32.1753 10.5592 32.3342 10.625 32.5 10.625C32.6658 10.625 32.8247 10.5592 32.9419 10.4419C33.0592 10.3247 33.125 10.1658 33.125 10C33.125 9.83424 33.0592 9.67527 32.9419 9.55806C32.8247 9.44085 32.6658 9.375 32.5 9.375ZM35 9.375C34.8342 9.375 34.6753 9.44085 34.5581 9.55806C34.4408 9.67527 34.375 9.83424 34.375 10C34.375 10.1658 34.4408 10.3247 34.5581 10.4419C34.6753 10.5592 34.8342 10.625 35 10.625C35.1658 10.625 35.3247 10.5592 35.4419 10.4419C35.5592 10.3247 35.625 10.1658 35.625 10C35.625 9.83424 35.5592 9.67527 35.4419 9.55806C35.3247 9.44085 35.1658 9.375 35 9.375ZM11.3037 13.75H38.6963L36.4429 40.78C36.3613 41.7574 35.5557 42.5 34.5752 42.5H15.426C14.4448 42.5 13.6387 41.7574 13.5571 40.78L11.3037 13.75ZM34.231 16.2671L33.8013 16.6272L33.7512 16.8408L33.7476 16.9031L33.9709 17.417L34.5166 17.5452L34.9451 17.1851L34.9951 16.9714L34.9988 16.9092L34.7754 16.3953L34.231 16.2671ZM24.823 16.2756L24.4141 16.6577L24.375 16.875V16.9373L24.6265 17.4377L25.177 17.5366L25.5859 17.1545L25.625 16.9373V16.875L25.3735 16.3745L24.823 16.2756ZM15.4163 16.2866L15.0281 16.6907L15.0012 16.9092L15.0049 16.9714L15.282 17.4573L15.8374 17.5269L16.2256 17.1228L16.2524 16.9031L16.2488 16.8408L15.9717 16.355L15.4163 16.2866ZM34.0918 18.8257L33.6633 19.1858L33.6121 19.4006L33.6096 19.4629L33.833 19.9756L34.3774 20.1038L34.8071 19.7449L34.8572 19.53L34.8608 19.4678L34.6375 18.9539L34.0918 18.8257ZM24.823 18.8379L24.4141 19.2212L24.375 19.4373V19.4995L24.6265 20.0012L25.177 20.0989L25.5859 19.7168L25.625 19.4995V19.4373L25.3735 18.9368L24.823 18.8379ZM15.5542 18.8452L15.166 19.2493L15.1392 19.4678L15.1428 19.53L15.4199 20.0159L15.9753 20.0854L16.3635 19.6814L16.3904 19.4629L16.3879 19.4006L16.1096 18.9136L15.5542 18.8452ZM33.9539 21.3843L33.5242 21.7444L33.4741 21.9592L33.4705 22.0215L33.6938 22.5342L34.2395 22.6636L34.6692 22.3035L34.7192 22.0886L34.7229 22.0264L34.4995 21.5125L33.9539 21.3843ZM24.823 21.4001L24.4141 21.7834L24.375 21.9995V22.063L24.6265 22.5635L25.177 22.6624L25.5859 22.2791L25.625 22.063V21.9995L25.3735 21.499L24.823 21.4001ZM15.6921 21.4038L15.3052 21.8079L15.2771 22.0264L15.2808 22.0886L15.5579 22.5745L16.1145 22.644L16.5015 22.24L16.5295 22.0215L16.5259 21.9592L16.2476 21.4722L15.6921 21.4038ZM33.8159 23.9429L33.3862 24.303L33.3362 24.5178L33.3325 24.5801L33.5559 25.094L34.1016 25.2222L34.53 24.8621L34.5813 24.6472L34.5837 24.585L34.3604 24.071L33.8159 23.9429ZM15.8301 23.9624L15.4431 24.3665L15.4163 24.585L15.4187 24.6472L15.697 25.1343L16.2524 25.2026L16.6406 24.7986L16.6675 24.5801L16.6638 24.5178L16.3867 24.0308L15.8301 23.9624ZM24.823 23.9636L24.4141 24.3457L24.375 24.563V24.6252L24.6265 25.1257L25.177 25.2246L25.5859 24.8413L25.625 24.6252V24.563L25.3735 24.0613L24.823 23.9636ZM33.6768 26.5015L33.2483 26.8616L33.1982 27.0764L33.1946 27.1387L33.418 27.6526L33.9624 27.7808L34.3921 27.4207L34.4421 27.2058L34.4458 27.1436L34.2224 26.6309L33.6768 26.5015ZM15.9692 26.521L15.5811 26.925L15.5542 27.1436L15.5579 27.2058L15.835 27.6929L16.3904 27.7612L16.7786 27.3572L16.8054 27.1387L16.8018 27.0764L16.5247 26.5894L15.9692 26.521ZM24.823 26.5259L24.4141 26.908L24.375 27.1252V27.1875L24.6265 27.688L25.177 27.7869L25.5859 27.4048L25.625 27.1875V27.1252L25.3735 26.6248L24.823 26.5259ZM33.5388 29.0613L33.1104 29.4202L33.0591 29.635L33.0554 29.6973L33.28 30.2112L33.8245 30.3394L34.2542 29.9792L34.3042 29.7644L34.3079 29.7021L34.0845 29.1895L33.5388 29.0613ZM16.1072 29.0796L15.719 29.4836L15.6921 29.7021L15.6958 29.7644L15.9729 30.2515L16.5295 30.3198L16.9165 29.9158L16.9446 29.6973L16.9409 29.635L16.6626 29.1492L16.1072 29.0796ZM24.823 29.0881L24.4141 29.4702L24.375 29.6875V29.7498L24.6265 30.2502L25.177 30.3491L25.5859 29.967L25.625 29.7498V29.6875L25.3735 29.187L24.823 29.0881ZM33.4009 31.6199L32.9712 31.98L32.9211 32.1936L32.9175 32.2559L33.1409 32.7698L33.6865 32.8979L34.115 32.5378L34.1663 32.3242L34.1687 32.2607L33.9453 31.748L33.4009 31.6199ZM16.2451 31.6382L15.8582 32.0422L15.8313 32.2607L15.8337 32.3242L16.1121 32.8101L16.6675 32.8784L17.0557 32.4744L17.0825 32.2559L17.0789 32.1936L16.8018 31.7078L16.2451 31.6382ZM24.823 31.6504L24.4141 32.0337L24.375 32.2498V32.312L24.6265 32.8137L25.177 32.9114L25.5859 32.5293L25.625 32.312V32.2498L25.3735 31.7493L24.823 31.6504ZM33.2617 34.1785L32.8333 34.5386L32.7832 34.7522L32.7795 34.8145L33.0029 35.3284L33.5486 35.4565L33.9771 35.0964L34.0271 34.8828L34.0308 34.8206L33.8074 34.3066L33.2617 34.1785ZM16.3843 34.198L15.9961 34.6021L15.9692 34.8206L15.9729 34.8828L16.25 35.3687L16.8054 35.4382L17.1936 35.0342L17.2205 34.8145L17.2168 34.7522L16.9397 34.2664L16.3843 34.198ZM24.823 34.2126L24.4141 34.5959L24.375 34.812V34.8755L24.6265 35.376L25.177 35.4749L25.5859 35.0916L25.625 34.8755V34.812L25.3735 34.3115L24.823 34.2126ZM33.1238 36.7371L32.6953 37.0972L32.644 37.3108L32.6416 37.3743L32.865 37.887L33.4094 38.0151L33.8391 37.6562L33.8892 37.4414L33.8928 37.3792L33.6694 36.8652L33.1238 36.7371ZM16.5222 36.7566L16.134 37.1606L16.1072 37.3792L16.1108 37.4414L16.3879 37.9272L16.9446 37.9968L17.3315 37.5928L17.3584 37.3743L17.356 37.3108L17.0776 36.825L16.5222 36.7566ZM24.823 36.7761L24.4141 37.1582L24.375 37.3755V37.4377L24.6265 37.9382L25.177 38.0371L25.5859 37.6538L25.625 37.4377V37.3755L25.3735 36.8738L24.823 36.7761ZM32.9858 39.2957L32.5562 39.6558L32.5061 39.8706L32.5024 39.9329L32.7258 40.4456L33.2715 40.575L33.7 40.2148L33.7512 40L33.7549 39.9377L33.5303 39.4238L32.9858 39.2957ZM16.6602 39.3152L16.2732 39.7192L16.2451 39.9377L16.2488 40L16.5271 40.4858L17.0825 40.5554L17.4707 40.1514L17.4976 39.9329L17.4939 39.8706L17.2168 39.3835L16.6602 39.3152ZM24.823 39.3384L24.4141 39.7205L24.375 39.9377V40L24.6265 40.5005L25.177 40.5994L25.5859 40.2173L25.625 40V39.9377L25.3735 39.4373L24.823 39.3384Z" fill="#BC5205"/>
</svg>
