<svg width="100" height="100" viewBox="0 0 100 100" fill="none" xmlns="http://www.w3.org/2000/svg">
<path d="M46 13C44.355 13 43 14.355 43 16V18H32.2656C30.5109 18 28.8795 18.9228 27.9766 20.4277L26.4336 23H23C20.8027 23 19 24.8027 19 27C19 29.1973 20.8027 31 23 31H24.0742L27.6484 77.459C27.8877 80.5758 30.5045 83 33.6309 83H66.3691C69.4955 83 72.1123 80.5758 72.3516 77.459L75.9258 31H77C79.1973 31 81 29.1973 81 27C81 24.8027 79.1973 23 77 23H73.5664L72.0234 20.4277C71.1205 18.9228 69.4891 18 67.7344 18H57V16C57 14.355 55.645 13 54 13H46ZM46 15H54C54.565 15 55 15.435 55 16V18H45V16C45 15.435 45.435 15 46 15ZM32.2656 20H43.832C43.94 20.0178 44.0502 20.0178 44.1582 20H55.832C55.94 20.0178 56.0502 20.0178 56.1582 20H67.7344C68.7897 20 69.7636 20.552 70.3066 21.457L71.834 24H68.5C68.4337 23.9991 68.368 24.0113 68.3065 24.036C68.245 24.0607 68.189 24.0974 68.1418 24.1439C68.0947 24.1904 68.0572 24.2459 68.0316 24.307C68.006 24.3681 67.9929 24.4337 67.9929 24.5C67.9929 24.5663 68.006 24.6319 68.0316 24.693C68.0572 24.7541 68.0947 24.8096 68.1418 24.8561C68.189 24.9026 68.245 24.9393 68.3065 24.964C68.368 24.9887 68.4337 25.0009 68.5 25H73.5H77C78.1167 25 79 25.8833 79 27C79 28.1167 78.1167 29 77 29H23C21.8833 29 21 28.1167 21 27C21 25.8833 21.8833 25 23 25H27H61.5C61.5663 25.0009 61.632 24.9887 61.6935 24.964C61.755 24.9393 61.811 24.9026 61.8582 24.8561C61.9053 24.8096 61.9428 24.7541 61.9684 24.693C61.994 24.6319 62.0071 24.5663 62.0071 24.5C62.0071 24.4337 61.994 24.3681 61.9684 24.307C61.9428 24.2459 61.9053 24.1904 61.8582 24.1439C61.811 24.0974 61.755 24.0607 61.6935 24.036C61.632 24.0113 61.5663 23.9991 61.5 24H28.166L29.6934 21.457C30.2364 20.552 31.2103 20 32.2656 20ZM64.5 24C64.4337 23.9991 64.368 24.0113 64.3065 24.036C64.245 24.0607 64.189 24.0974 64.1418 24.1439C64.0947 24.1904 64.0572 24.2459 64.0316 24.307C64.006 24.3681 63.9929 24.4337 63.9929 24.5C63.9929 24.5663 64.006 24.6319 64.0316 24.693C64.0572 24.7541 64.0947 24.8096 64.1418 24.8561C64.189 24.9026 64.245 24.9393 64.3065 24.964C64.368 24.9887 64.4337 25.0009 64.5 25H66.5C66.5663 25.0009 66.632 24.9887 66.6935 24.964C66.755 24.9393 66.811 24.9026 66.8582 24.8561C66.9053 24.8096 66.9428 24.7541 66.9684 24.693C66.994 24.6319 67.0071 24.5663 67.0071 24.5C67.0071 24.4337 66.994 24.3681 66.9684 24.307C66.9428 24.2459 66.9053 24.1904 66.8582 24.1439C66.811 24.0974 66.755 24.0607 66.6935 24.036C66.632 24.0113 66.5663 23.9991 66.5 24H64.5ZM26.0781 31H73.9219L70.3574 77.3066C70.1967 79.3998 68.4688 81 66.3691 81H33.6309C31.5312 81 29.8033 79.3998 29.6426 77.3066L26.0781 31ZM38 35C36.3489 35 35 36.3489 35 38V73C35 74.6511 36.3489 76 38 76C39.6511 76 41 74.6511 41 73V38C41 36.3489 39.6511 35 38 35ZM50 35C48.3489 35 47 36.3489 47 38V73C47 74.6511 48.3489 76 50 76C51.6511 76 53 74.6511 53 73V69.5C53.0009 69.4337 52.9887 69.368 52.964 69.3065C52.9393 69.245 52.9026 69.189 52.8561 69.1418C52.8096 69.0947 52.7541 69.0572 52.693 69.0316C52.6319 69.006 52.5663 68.9929 52.5 68.9929C52.4337 68.9929 52.3681 69.006 52.307 69.0316C52.2459 69.0572 52.1904 69.0947 52.1439 69.1418C52.0974 69.189 52.0607 69.245 52.036 69.3065C52.0113 69.368 51.9991 69.4337 52 69.5V73C52 74.1109 51.1109 75 50 75C48.8891 75 48 74.1109 48 73V38C48 36.8891 48.8891 36 50 36C51.1109 36 52 36.8891 52 38V63.5C51.9991 63.5663 52.0113 63.632 52.036 63.6935C52.0607 63.755 52.0974 63.811 52.1439 63.8582C52.1904 63.9053 52.2459 63.9428 52.307 63.9684C52.3681 63.994 52.4337 64.0071 52.5 64.0071C52.5663 64.0071 52.6319 63.994 52.693 63.9684C52.7541 63.9428 52.8096 63.9053 52.8561 63.8582C52.9026 63.811 52.9393 63.755 52.964 63.6935C52.9887 63.632 53.0009 63.5663 53 63.5V38C53 36.3489 51.6511 35 50 35ZM62 35C60.3489 35 59 36.3489 59 38V39.5C58.9991 39.5663 59.0113 39.632 59.036 39.6935C59.0607 39.755 59.0974 39.811 59.1439 39.8582C59.1904 39.9053 59.2459 39.9428 59.307 39.9684C59.3681 39.994 59.4337 40.0071 59.5 40.0071C59.5663 40.0071 59.6319 39.994 59.693 39.9684C59.7541 39.9428 59.8096 39.9053 59.8561 39.8582C59.9026 39.811 59.9393 39.755 59.964 39.6935C59.9887 39.632 60.0009 39.5663 60 39.5V38C60 36.8891 60.8891 36 62 36C63.1109 36 64 36.8891 64 38V73C64 74.1109 63.1109 75 62 75C60.8891 75 60 74.1109 60 73V47.5C60.0009 47.4337 59.9887 47.368 59.964 47.3065C59.9393 47.245 59.9026 47.189 59.8561 47.1418C59.8096 47.0947 59.7541 47.0572 59.693 47.0316C59.6319 47.006 59.5663 46.9929 59.5 46.9929C59.4337 46.9929 59.3681 47.006 59.307 47.0316C59.2459 47.0572 59.1904 47.0947 59.1439 47.1418C59.0974 47.189 59.0607 47.245 59.036 47.3065C59.0113 47.368 58.9991 47.4337 59 47.5V73C59 74.6511 60.3489 76 62 76C63.6511 76 65 74.6511 65 73V38C65 36.3489 63.6511 35 62 35ZM38 36C39.1109 36 40 36.8891 40 38V73C40 74.1109 39.1109 75 38 75C36.8891 75 36 74.1109 36 73V38C36 36.8891 36.8891 36 38 36ZM59.4922 41.9922C59.4265 41.9932 59.3617 42.0072 59.3014 42.0332C59.2412 42.0593 59.1866 42.097 59.1409 42.1442C59.0952 42.1913 59.0592 42.247 59.0351 42.3081C59.0109 42.3691 58.999 42.4343 59 42.5V44.5C58.9991 44.5663 59.0113 44.632 59.036 44.6935C59.0607 44.755 59.0974 44.811 59.1439 44.8582C59.1904 44.9053 59.2459 44.9428 59.307 44.9684C59.3681 44.994 59.4337 45.0071 59.5 45.0071C59.5663 45.0071 59.6319 44.994 59.693 44.9684C59.7541 44.9428 59.8096 44.9053 59.8561 44.8582C59.9026 44.811 59.9393 44.755 59.964 44.6935C59.9887 44.632 60.0009 44.5663 60 44.5V42.5C60.001 42.433 59.9886 42.3665 59.9635 42.3044C59.9383 42.2424 59.901 42.186 59.8536 42.1386C59.8062 42.0912 59.7498 42.0539 59.6878 42.0287C59.6257 42.0036 59.5592 41.9911 59.4922 41.9922Z" fill="#03B3FF"/>
</svg>
