<svg width="80" height="80" viewBox="0 0 80 80" fill="none" xmlns="http://www.w3.org/2000/svg">
<path d="M56.9062 30.8908C56.9062 27.9731 54.8408 25.5858 52.3164 25.5858H6.41854C3.89415 25.5858 1.82874 27.9731 1.82874 30.8908V72.2701C1.82874 75.1879 3.89415 77.5752 6.41854 77.5752H52.3164C54.8408 77.5752 56.9062 75.1879 56.9062 72.2701V30.8908Z" fill="#FFE1E1"/>
<path d="M15.5981 77.5752C20.601 56.6202 34.967 47.867 56.9062 52.9597V72.2701C56.9062 75.1879 54.8408 77.5752 52.3164 77.5752H15.5981Z" fill="#FFE1E1"/>
<path d="M56.6308 54.4982C56.7226 54.4982 56.8144 54.5513 56.9062 54.5513C57.6865 54.5513 58.2832 53.8616 58.2832 52.9597V30.8908C58.2832 27.0712 55.621 23.9943 52.3164 23.9943H6.41853C3.11388 23.9943 0.451805 27.0712 0.451805 30.8908V72.2701C0.451805 76.0897 3.11388 79.1666 6.41853 79.1666H52.3164C55.621 79.1666 58.2832 76.0897 58.2832 72.2701V63.5698C58.2832 62.668 57.6865 61.9783 56.9062 61.9783C56.126 61.9783 55.5292 62.668 55.5292 63.5698V72.2701C55.5292 74.339 54.1064 75.9836 52.3164 75.9836H17.434C22.7123 57.2038 36.2063 49.7767 56.6308 54.4982ZM14.5883 75.9836H6.41853C4.62851 75.9836 3.20567 74.339 3.20567 72.2701V30.8908C3.20567 28.8218 4.62851 27.1773 6.41853 27.1773H52.3164C54.1064 27.1773 55.5292 28.8218 55.5292 30.8908V50.9969C34.3703 46.7529 19.9125 55.5593 14.5883 75.9836Z" fill="#4788C7"/>
<path d="M20.6629 32.7158C18.6169 32.7158 16.802 33.7786 15.8272 36.0701L13.5249 41.2098L10.7573 34.2706L10.7518 34.2593C10.179 32.9688 8.66984 32.3586 7.36175 32.9548C6.03989 33.5593 5.51666 35.1562 6.11149 36.4468L10.2313 45.9306V45.9334C10.5755 46.6982 10.9473 47.3392 11.4761 47.8144C12.0075 48.2896 12.7098 48.5511 13.4864 48.5511C14.3098 48.5511 15.023 48.2643 15.5407 47.7778C16.0612 47.2914 16.4 46.6616 16.7387 45.9447L16.7414 45.939L16.7442 45.9278C16.7442 45.9278 19.5641 39.5088 19.8919 38.7749C20.0351 38.4544 20.2224 38.1789 20.4123 38.0045C20.6051 37.833 20.7759 37.7543 21.0154 37.7543C21.5992 37.7543 22.073 38.2379 22.073 38.8339V45.9419C22.073 47.3421 23.158 48.5511 24.5542 48.5511C25.9532 48.5511 27.0079 47.328 27.0079 45.9419V38.8339C27.0079 38.2379 27.4815 37.7543 28.0654 37.7543C28.6492 37.7543 29.1229 38.2379 29.1229 38.8339V46.0318C29.1229 47.4152 30.2354 48.5511 31.5904 48.5511C32.9453 48.5511 34.0578 47.4152 34.0578 46.0318V38.8339C34.0578 38.2379 34.5315 37.7543 35.1153 37.7543C35.6991 37.7543 36.1727 38.2379 36.1727 38.8339V46.0318C36.1727 47.4152 37.2853 48.5511 38.6402 48.5511C39.9952 48.5511 41.1077 47.4152 41.1077 46.0318V38.013C41.1077 34.9369 38.6375 32.7158 35.7597 32.7158C33.4932 32.7158 32.1989 33.7983 31.6371 34.3297C30.698 33.3849 29.4671 32.7185 27.6688 32.7185C25.7797 32.7185 24.7001 33.7308 24.1714 34.3015C23.169 33.34 21.8802 32.7158 20.6629 32.7158ZM8.41373 34.1469C8.87088 34.1244 9.25642 34.3858 9.46571 34.8526L13.4478 44.8396L17.116 36.6521L17.1188 36.6437C17.9256 34.7542 19.0327 34.1553 20.6629 34.1553C21.591 34.1553 22.9817 34.771 23.6592 35.6737L24.2127 36.4103L24.7745 35.6764C24.7745 35.6764 25.9944 34.1582 27.6688 34.1582C29.4781 34.1582 30.3455 34.6952 31.0836 35.6737L31.5986 36.3596L32.1659 35.7186C32.1659 35.7186 33.5538 34.1553 35.7597 34.1553C37.9518 34.1553 39.6977 35.7046 39.6977 38.013V46.0318C39.6977 46.6279 39.2241 47.1115 38.6402 47.1115C38.0564 47.1115 37.5827 46.6279 37.5827 46.0318V38.8339C37.5827 37.4506 36.4702 36.3147 35.1153 36.3147C33.7604 36.3147 32.6478 37.4506 32.6478 38.8339V46.0318C32.6478 46.6279 32.1742 47.1115 31.5904 47.1115C31.0065 47.1115 30.5328 46.6279 30.5328 46.0318V38.8339C30.5328 37.4506 29.4202 36.3147 28.0654 36.3147C26.7105 36.3147 25.5979 37.4506 25.5979 38.8339V45.9419C25.5979 46.6363 25.1793 47.1115 24.5542 47.1115C23.9318 47.1115 23.4829 46.6195 23.4829 45.9419V38.8339C23.4829 37.4506 22.3703 36.3147 21.0154 36.3147C20.4096 36.3147 19.8699 36.5733 19.4761 36.9304C19.085 37.2847 18.8151 37.7262 18.6141 38.1732C18.2561 38.9689 15.4747 45.3036 15.4636 45.3261C15.1525 45.984 14.8715 46.4536 14.588 46.7179C14.3043 46.9878 14.0344 47.1115 13.4864 47.1115C12.9797 47.1115 12.6988 46.9934 12.4068 46.732C12.1149 46.4704 11.8175 46.0093 11.5146 45.3345L7.38928 35.8395V35.8311C7.09738 35.2069 7.29566 34.563 7.94006 34.2706C8.10254 34.1947 8.26227 34.1553 8.41373 34.1469Z" fill="#4788C7"/>
<path d="M68.2759 4C67.7088 4 67.2414 4.42358 67.2414 4.9375V5.5625H61.0345C60.4674 5.5625 60 5.98608 60 6.5V6.8125H60.1441C60.2963 7.15796 60.6008 7.4375 61.0345 7.4375H61.3793V22.4375C61.3793 23.2969 62.1552 24 63.1034 24H76.8966C77.8448 24 78.6207 23.2969 78.6207 22.4375V7.4375H78.9655C79.3992 7.4375 79.7037 7.15796 79.8559 6.8125H80V6.5C80 5.98608 79.5326 5.5625 78.9655 5.5625H72.7586V4.9375C72.7586 4.42358 72.2912 4 71.7241 4H68.2759ZM68.2759 4.625H71.7241C71.9195 4.625 72.069 4.7605 72.069 4.9375V5.5625H67.931V4.9375C67.931 4.7605 68.0805 4.625 68.2759 4.625ZM61.0345 6.1875H78.9655C79.1608 6.1875 79.3103 6.323 79.3103 6.5C79.3103 6.677 79.1608 6.8125 78.9655 6.8125H61.0345C60.8392 6.8125 60.6897 6.677 60.6897 6.5C60.6897 6.323 60.8392 6.1875 61.0345 6.1875ZM62.069 7.4375H77.931V22.4375C77.931 22.9587 77.4717 23.375 76.8966 23.375H63.1034C62.5283 23.375 62.069 22.9587 62.069 22.4375V7.4375ZM63.7931 8.6875C63.6032 8.6875 63.4483 8.82788 63.4483 9C63.4483 9.17212 63.6032 9.3125 63.7931 9.3125C63.983 9.3125 64.1379 9.17212 64.1379 9C64.1379 8.82788 63.983 8.6875 63.7931 8.6875ZM66.8966 8.6875C66.7066 8.6875 66.5517 8.82788 66.5517 9C66.5517 9.17212 66.7066 9.3125 66.8966 9.3125C67.0865 9.3125 67.2414 9.17212 67.2414 9C67.2414 8.82788 67.0865 8.6875 66.8966 8.6875ZM73.1034 8.6875C72.9135 8.6875 72.7586 8.82788 72.7586 9C72.7586 9.17212 72.9135 9.3125 73.1034 9.3125C73.2934 9.3125 73.4483 9.17212 73.4483 9C73.4483 8.82788 73.2934 8.6875 73.1034 8.6875ZM76.2069 8.6875C76.017 8.6875 75.8621 8.82788 75.8621 9C75.8621 9.17212 76.017 9.3125 76.2069 9.3125C76.3968 9.3125 76.5517 9.17212 76.5517 9C76.5517 8.82788 76.3968 8.6875 76.2069 8.6875ZM63.7931 9.9375C63.6032 9.9375 63.4483 10.0779 63.4483 10.25C63.4483 10.4221 63.6032 10.5625 63.7931 10.5625C63.983 10.5625 64.1379 10.4221 64.1379 10.25C64.1379 10.0779 63.983 9.9375 63.7931 9.9375ZM66.8966 9.9375C66.7066 9.9375 66.5517 10.0779 66.5517 10.25C66.5517 10.4221 66.7066 10.5625 66.8966 10.5625C67.0865 10.5625 67.2414 10.4221 67.2414 10.25C67.2414 10.0779 67.0865 9.9375 66.8966 9.9375ZM73.1034 9.9375C72.9135 9.9375 72.7586 10.0779 72.7586 10.25C72.7586 10.4221 72.9135 10.5625 73.1034 10.5625C73.2934 10.5625 73.4483 10.4221 73.4483 10.25C73.4483 10.0779 73.2934 9.9375 73.1034 9.9375ZM76.2069 9.9375C76.017 9.9375 75.8621 10.0779 75.8621 10.25C75.8621 10.4221 76.017 10.5625 76.2069 10.5625C76.3968 10.5625 76.5517 10.4221 76.5517 10.25C76.5517 10.0779 76.3968 9.9375 76.2069 9.9375ZM63.7931 11.1875C63.6032 11.1875 63.4483 11.3279 63.4483 11.5C63.4483 11.6721 63.6032 11.8125 63.7931 11.8125C63.983 11.8125 64.1379 11.6721 64.1379 11.5C64.1379 11.3279 63.983 11.1875 63.7931 11.1875ZM66.8966 11.1875C66.7066 11.1875 66.5517 11.3279 66.5517 11.5C66.5517 11.6721 66.7066 11.8125 66.8966 11.8125C67.0865 11.8125 67.2414 11.6721 67.2414 11.5C67.2414 11.3279 67.0865 11.1875 66.8966 11.1875ZM73.1034 11.1875C72.9135 11.1875 72.7586 11.3279 72.7586 11.5C72.7586 11.6721 72.9135 11.8125 73.1034 11.8125C73.2934 11.8125 73.4483 11.6721 73.4483 11.5C73.4483 11.3279 73.2934 11.1875 73.1034 11.1875ZM76.2069 11.1875C76.017 11.1875 75.8621 11.3279 75.8621 11.5C75.8621 11.6721 76.017 11.8125 76.2069 11.8125C76.3968 11.8125 76.5517 11.6721 76.5517 11.5C76.5517 11.3279 76.3968 11.1875 76.2069 11.1875ZM63.7931 12.4375C63.6032 12.4375 63.4483 12.5779 63.4483 12.75C63.4483 12.9221 63.6032 13.0625 63.7931 13.0625C63.983 13.0625 64.1379 12.9221 64.1379 12.75C64.1379 12.5779 63.983 12.4375 63.7931 12.4375ZM66.8966 12.4375C66.7066 12.4375 66.5517 12.5779 66.5517 12.75C66.5517 12.9221 66.7066 13.0625 66.8966 13.0625C67.0865 13.0625 67.2414 12.9221 67.2414 12.75C67.2414 12.5779 67.0865 12.4375 66.8966 12.4375ZM73.1034 12.4375C72.9135 12.4375 72.7586 12.5779 72.7586 12.75C72.7586 12.9221 72.9135 13.0625 73.1034 13.0625C73.2934 13.0625 73.4483 12.9221 73.4483 12.75C73.4483 12.5779 73.2934 12.4375 73.1034 12.4375ZM76.2069 12.4375C76.017 12.4375 75.8621 12.5779 75.8621 12.75C75.8621 12.9221 76.017 13.0625 76.2069 13.0625C76.3968 13.0625 76.5517 12.9221 76.5517 12.75C76.5517 12.5779 76.3968 12.4375 76.2069 12.4375ZM63.7931 13.6875C63.6032 13.6875 63.4483 13.8279 63.4483 14C63.4483 14.1721 63.6032 14.3125 63.7931 14.3125C63.983 14.3125 64.1379 14.1721 64.1379 14C64.1379 13.8279 63.983 13.6875 63.7931 13.6875ZM66.8966 13.6875C66.7066 13.6875 66.5517 13.8279 66.5517 14C66.5517 14.1721 66.7066 14.3125 66.8966 14.3125C67.0865 14.3125 67.2414 14.1721 67.2414 14C67.2414 13.8279 67.0865 13.6875 66.8966 13.6875ZM73.1034 13.6875C72.9135 13.6875 72.7586 13.8279 72.7586 14C72.7586 14.1721 72.9135 14.3125 73.1034 14.3125C73.2934 14.3125 73.4483 14.1721 73.4483 14C73.4483 13.8279 73.2934 13.6875 73.1034 13.6875ZM76.2069 13.6875C76.017 13.6875 75.8621 13.8279 75.8621 14C75.8621 14.1721 76.017 14.3125 76.2069 14.3125C76.3968 14.3125 76.5517 14.1721 76.5517 14C76.5517 13.8279 76.3968 13.6875 76.2069 13.6875ZM63.7931 14.9375C63.6032 14.9375 63.4483 15.0779 63.4483 15.25C63.4483 15.4221 63.6032 15.5625 63.7931 15.5625C63.983 15.5625 64.1379 15.4221 64.1379 15.25C64.1379 15.0779 63.983 14.9375 63.7931 14.9375ZM66.8966 14.9375C66.7066 14.9375 66.5517 15.0779 66.5517 15.25C66.5517 15.4221 66.7066 15.5625 66.8966 15.5625C67.0865 15.5625 67.2414 15.4221 67.2414 15.25C67.2414 15.0779 67.0865 14.9375 66.8966 14.9375ZM73.1034 14.9375C72.9135 14.9375 72.7586 15.0779 72.7586 15.25C72.7586 15.4221 72.9135 15.5625 73.1034 15.5625C73.2934 15.5625 73.4483 15.4221 73.4483 15.25C73.4483 15.0779 73.2934 14.9375 73.1034 14.9375ZM76.2069 14.9375C76.017 14.9375 75.8621 15.0779 75.8621 15.25C75.8621 15.4221 76.017 15.5625 76.2069 15.5625C76.3968 15.5625 76.5517 15.4221 76.5517 15.25C76.5517 15.0779 76.3968 14.9375 76.2069 14.9375ZM63.7931 16.1875C63.6032 16.1875 63.4483 16.3279 63.4483 16.5C63.4483 16.6721 63.6032 16.8125 63.7931 16.8125C63.983 16.8125 64.1379 16.6721 64.1379 16.5C64.1379 16.3279 63.983 16.1875 63.7931 16.1875ZM66.8966 16.1875C66.7066 16.1875 66.5517 16.3279 66.5517 16.5C66.5517 16.6721 66.7066 16.8125 66.8966 16.8125C67.0865 16.8125 67.2414 16.6721 67.2414 16.5C67.2414 16.3279 67.0865 16.1875 66.8966 16.1875ZM73.1034 16.1875C72.9135 16.1875 72.7586 16.3279 72.7586 16.5C72.7586 16.6721 72.9135 16.8125 73.1034 16.8125C73.2934 16.8125 73.4483 16.6721 73.4483 16.5C73.4483 16.3279 73.2934 16.1875 73.1034 16.1875ZM76.2069 16.1875C76.017 16.1875 75.8621 16.3279 75.8621 16.5C75.8621 16.6721 76.017 16.8125 76.2069 16.8125C76.3968 16.8125 76.5517 16.6721 76.5517 16.5C76.5517 16.3279 76.3968 16.1875 76.2069 16.1875ZM63.7931 17.4375C63.6032 17.4375 63.4483 17.5779 63.4483 17.75C63.4483 17.9221 63.6032 18.0625 63.7931 18.0625C63.983 18.0625 64.1379 17.9221 64.1379 17.75C64.1379 17.5779 63.983 17.4375 63.7931 17.4375ZM66.8966 17.4375C66.7066 17.4375 66.5517 17.5779 66.5517 17.75C66.5517 17.9221 66.7066 18.0625 66.8966 18.0625C67.0865 18.0625 67.2414 17.9221 67.2414 17.75C67.2414 17.5779 67.0865 17.4375 66.8966 17.4375ZM73.1034 17.4375C72.9135 17.4375 72.7586 17.5779 72.7586 17.75C72.7586 17.9221 72.9135 18.0625 73.1034 18.0625C73.2934 18.0625 73.4483 17.9221 73.4483 17.75C73.4483 17.5779 73.2934 17.4375 73.1034 17.4375ZM76.2069 17.4375C76.017 17.4375 75.8621 17.5779 75.8621 17.75C75.8621 17.9221 76.017 18.0625 76.2069 18.0625C76.3968 18.0625 76.5517 17.9221 76.5517 17.75C76.5517 17.5779 76.3968 17.4375 76.2069 17.4375ZM63.7931 18.6875C63.6032 18.6875 63.4483 18.8279 63.4483 19C63.4483 19.1721 63.6032 19.3125 63.7931 19.3125C63.983 19.3125 64.1379 19.1721 64.1379 19C64.1379 18.8279 63.983 18.6875 63.7931 18.6875ZM66.8966 18.6875C66.7066 18.6875 66.5517 18.8279 66.5517 19C66.5517 19.1721 66.7066 19.3125 66.8966 19.3125C67.0865 19.3125 67.2414 19.1721 67.2414 19C67.2414 18.8279 67.0865 18.6875 66.8966 18.6875ZM73.1034 18.6875C72.9135 18.6875 72.7586 18.8279 72.7586 19C72.7586 19.1721 72.9135 19.3125 73.1034 19.3125C73.2934 19.3125 73.4483 19.1721 73.4483 19C73.4483 18.8279 73.2934 18.6875 73.1034 18.6875ZM76.2069 18.6875C76.017 18.6875 75.8621 18.8279 75.8621 19C75.8621 19.1721 76.017 19.3125 76.2069 19.3125C76.3968 19.3125 76.5517 19.1721 76.5517 19C76.5517 18.8279 76.3968 18.6875 76.2069 18.6875ZM63.7931 19.9375C63.6032 19.9375 63.4483 20.0779 63.4483 20.25C63.4483 20.4221 63.6032 20.5625 63.7931 20.5625C63.983 20.5625 64.1379 20.4221 64.1379 20.25C64.1379 20.0779 63.983 19.9375 63.7931 19.9375ZM66.8966 19.9375C66.7066 19.9375 66.5517 20.0779 66.5517 20.25C66.5517 20.4221 66.7066 20.5625 66.8966 20.5625C67.0865 20.5625 67.2414 20.4221 67.2414 20.25C67.2414 20.0779 67.0865 19.9375 66.8966 19.9375ZM73.1034 19.9375C72.9135 19.9375 72.7586 20.0779 72.7586 20.25C72.7586 20.4221 72.9135 20.5625 73.1034 20.5625C73.2934 20.5625 73.4483 20.4221 73.4483 20.25C73.4483 20.0779 73.2934 19.9375 73.1034 19.9375ZM76.2069 19.9375C76.017 19.9375 75.8621 20.0779 75.8621 20.25C75.8621 20.4221 76.017 20.5625 76.2069 20.5625C76.3968 20.5625 76.5517 20.4221 76.5517 20.25C76.5517 20.0779 76.3968 19.9375 76.2069 19.9375ZM63.7931 21.1875C63.6032 21.1875 63.4483 21.3279 63.4483 21.5C63.4483 21.6721 63.6032 21.8125 63.7931 21.8125C63.983 21.8125 64.1379 21.6721 64.1379 21.5C64.1379 21.3279 63.983 21.1875 63.7931 21.1875ZM66.8966 21.1875C66.7066 21.1875 66.5517 21.3279 66.5517 21.5C66.5517 21.6721 66.7066 21.8125 66.8966 21.8125C67.0865 21.8125 67.2414 21.6721 67.2414 21.5C67.2414 21.3279 67.0865 21.1875 66.8966 21.1875ZM73.1034 21.1875C72.9135 21.1875 72.7586 21.3279 72.7586 21.5C72.7586 21.6721 72.9135 21.8125 73.1034 21.8125C73.2934 21.8125 73.4483 21.6721 73.4483 21.5C73.4483 21.3279 73.2934 21.1875 73.1034 21.1875ZM76.2069 21.1875C76.017 21.1875 75.8621 21.3279 75.8621 21.5C75.8621 21.6721 76.017 21.8125 76.2069 21.8125C76.3968 21.8125 76.5517 21.6721 76.5517 21.5C76.5517 21.3279 76.3968 21.1875 76.2069 21.1875Z" fill="#EB1111"/>
</svg>
