<svg width="40" height="40" viewBox="0 0 40 40" fill="none" xmlns="http://www.w3.org/2000/svg">
<path d="M6.5 1.5H33.5V38.5H6.5V1.5Z" fill="#B6DCFE"/>
<path d="M33 2V38H7V2H33ZM34 1H6V39H34V1Z" fill="#4788C7"/>
<path d="M22 5H30V19H22V5ZM10 5H18V19H10V5ZM22 23H30V35H22V23ZM10 23H18V35H10V23Z" fill="#DFF0FE"/>
<path d="M30 20C29.7348 20 29.4804 20.1054 29.2929 20.2929C29.1054 20.4804 29 20.7348 29 21C29 21.2652 29.1054 21.5196 29.2929 21.7071C29.4804 21.8946 29.7348 22 30 22C30.2652 22 30.5196 21.8946 30.7071 21.7071C30.8946 21.5196 31 21.2652 31 21C31 20.7348 30.8946 20.4804 30.7071 20.2929C30.5196 20.1054 30.2652 20 30 20Z" fill="#4788C7"/>
</svg>
