<svg width="409" height="166" viewBox="0 0 409 166" fill="none" xmlns="http://www.w3.org/2000/svg">
<path fill-rule="evenodd" clip-rule="evenodd" d="M156.249 6.43731C167.299 11.5953 176.645 19.5513 183.443 29.3793H233.322V49.3793H199.322C199.322 49.3793 191.322 49.3793 191.322 58.8793C191.322 68.3793 199.322 68.3793 199.322 68.3793H253.322V88.3793H196.322C196.322 88.3793 188.322 88.3793 188.322 97.8793C188.322 107.379 196.322 107.379 196.322 107.379H214.322V127.379H188.322C188.322 127.379 180.322 127.379 180.322 136.879C180.322 141.893 182.551 144.261 184.656 145.379H233.322V165.379H48.3224V165.176C33.3254 162.799 19.8884 154.529 10.9594 142.178C2.01542 129.807 -1.67261 114.354 0.70539 99.2194C3.08339 84.0854 11.3334 70.5083 23.6404 61.4763C34.4254 53.5613 47.5504 49.7043 60.7444 50.4603C61.7954 46.6453 63.1844 42.9023 64.9094 39.2753C72.6984 22.8943 86.6974 10.2323 103.827 4.07433C120.957 -2.08367 139.814 -1.23369 156.249 6.43731ZM272.322 108.379H233.322V128.379H272.322V108.379ZM291.322 107.379H379.322V127.379H291.322V107.379ZM351.322 68.3793H272.322V88.3793H351.322V68.3793ZM253.322 29.3793H312.322V49.3793H253.322V29.3793ZM351.322 29.3793H330.322V49.3793H351.322V29.3793ZM368.322 68.3793H408.322V88.3793H368.322V68.3793ZM340.322 145.379H253.322V165.379H340.322V145.379Z" fill="#4C4C4C"/>
</svg>
