<svg width="79" height="73" viewBox="0 0 79 73" fill="none" xmlns="http://www.w3.org/2000/svg">
<g clip-path="url(#clip0_1740_81)">
<path d="M25.2 29.8C21.7172 29.8 18.6281 31.5719 16.9687 35.3922L13.05 43.9609L8.33906 32.3922L8.32969 32.3734C7.35469 30.2219 4.78594 29.2047 2.55938 30.1984C0.309375 31.2063 -0.58125 33.8688 0.43125 36.0203L7.44375 51.8313V51.8359C8.02969 53.1109 8.6625 54.1797 9.5625 54.9719C10.4672 55.7641 11.6625 56.2 12.9844 56.2C14.3859 56.2 15.6 55.7219 16.4812 54.9109C17.3672 54.1 17.9437 53.05 18.5203 51.8547L18.525 51.8453L18.5297 51.8266C18.5297 51.8266 23.3297 41.125 23.8875 39.9016C24.1312 39.3672 24.45 38.9078 24.7734 38.6172C25.1016 38.3313 25.3922 38.2 25.8 38.2C26.7937 38.2 27.6 39.0063 27.6 40V51.85C27.6 54.1844 29.4469 56.2 31.8234 56.2C34.2047 56.2 36 54.1609 36 51.85V40C36 39.0063 36.8062 38.2 37.8 38.2C38.7937 38.2 39.6 39.0063 39.6 40V52C39.6 54.3063 41.4937 56.2 43.8 56.2C46.1062 56.2 48 54.3063 48 52V40C48 39.0063 48.8062 38.2 49.8 38.2C50.7937 38.2 51.6 39.0063 51.6 40V52C51.6 54.3063 53.4937 56.2 55.8 56.2C58.1062 56.2 60 54.3063 60 52V38.6313C60 33.5031 55.7953 29.8 50.8969 29.8C47.0391 29.8 44.8359 31.6047 43.8797 32.4906C42.2812 30.9156 40.1859 29.8047 37.125 29.8047C33.9094 29.8047 32.0719 31.4922 31.1719 32.4438C29.4656 30.8406 27.2719 29.8 25.2 29.8ZM4.35 32.1859C5.12813 32.1484 5.78438 32.5844 6.14063 33.3625L12.9187 50.0125L19.1625 36.3625L19.1672 36.3484C20.5406 33.1984 22.425 32.2 25.2 32.2C26.7797 32.2 29.1469 33.2266 30.3 34.7313L31.2422 35.9594L32.1984 34.7359C32.1984 34.7359 34.275 32.2047 37.125 32.2047C40.2047 32.2047 41.6812 33.1 42.9375 34.7313L43.8141 35.875L44.7797 34.8063C44.7797 34.8063 47.1422 32.2 50.8969 32.2C54.6281 32.2 57.6 34.7828 57.6 38.6313V52C57.6 52.9938 56.7937 53.8 55.8 53.8C54.8062 53.8 54 52.9938 54 52V40C54 37.6938 52.1062 35.8 49.8 35.8C47.4937 35.8 45.6 37.6938 45.6 40V52C45.6 52.9938 44.7937 53.8 43.8 53.8C42.8062 53.8 42 52.9938 42 52V40C42 37.6938 40.1062 35.8 37.8 35.8C35.4937 35.8 33.6 37.6938 33.6 40V51.85C33.6 53.0078 32.8875 53.8 31.8234 53.8C30.7641 53.8 30 52.9797 30 51.85V40C30 37.6938 28.1062 35.8 25.8 35.8C24.7687 35.8 23.85 36.2313 23.1797 36.8266C22.5141 37.4172 22.0547 38.1531 21.7125 38.8984C21.1031 40.225 16.3687 50.7859 16.35 50.8234C15.8203 51.9203 15.3422 52.7031 14.8594 53.1438C14.3766 53.5938 13.9172 53.8 12.9844 53.8C12.1219 53.8 11.6438 53.6031 11.1469 53.1672C10.65 52.7313 10.1438 51.9625 9.62813 50.8375L2.60625 35.0078V34.9938C2.10938 33.9531 2.44688 32.8797 3.54375 32.3922C3.82031 32.2656 4.09219 32.2 4.35 32.1859Z" fill="#03B3FF"/>
</g>
<path d="M60.25 6.5625C55.5972 6.5625 51.8125 10.3481 51.8125 15C51.8125 19.6519 55.5972 23.4375 60.25 23.4375C63.9156 23.4375 67.0334 21.0844 68.1949 17.8125H66.1698C65.1142 20.0259 62.8609 21.5625 60.25 21.5625C56.6322 21.5625 53.6875 18.6187 53.6875 15C53.6875 11.3813 56.6322 8.4375 60.25 8.4375C62.8609 8.4375 65.1132 9.97406 66.1698 12.1875H68.1949C67.0334 8.91562 63.9156 6.5625 60.25 6.5625ZM72.1628 10.5872L70.8372 11.9128L72.9868 14.0625H62.125V15.9375H72.9868L70.8372 18.0872L72.1628 19.4128L76.5757 15L72.1628 10.5872Z" fill="#03B3FF"/>
<defs>
<clipPath id="clip0_1740_81">
<rect width="60" height="60" fill="white" transform="translate(0 13)"/>
</clipPath>
</defs>
</svg>
