<svg width="30" height="30" viewBox="0 0 30 30" fill="none" xmlns="http://www.w3.org/2000/svg">
<path d="M15 2.52891L14.7 2.70234L3.89999 8.93672L3.59999 9.11016V9.45586V12.9305V13.2762L3.60468 13.2785L3.59882 13.2809L3.59999 13.6277L3.60585 17.0895V17.2605L3.59999 17.7656V21.2344V21.5801L3.89999 21.7535L14.7 27.9879L15 28.1613L15.3 27.9879L26.1 21.7535L26.4 21.5801V21.2344V17.7715V17.434V17.0883V13.6266V13.2809L26.3953 13.2785L26.4 13.2762V12.9305V9.45586V9.11016L26.1 8.93672L15.3 2.70234L15 2.52891ZM15 3.39492L25.5 9.45586L15 15.5203L4.49999 9.45586L15 3.39492ZM4.34999 9.71601L14.85 15.7793V18.907L4.87499 13.1484L4.34999 12.8437V9.71601ZM25.65 9.71601V12.8437L25.125 13.1484C25.1206 13.151 25.1163 13.1537 25.1121 13.1566L15.15 18.9094V15.7793L25.65 9.71601ZM5.38827 11.3754C5.35075 11.3783 5.31572 11.3953 5.2901 11.4228C5.26449 11.4504 5.25017 11.4866 5.24999 11.5242V12.2285C5.24996 12.2549 5.25688 12.2808 5.27004 12.3036C5.28321 12.3264 5.30216 12.3454 5.32499 12.3586L10.725 15.4758C10.7478 15.4889 10.7737 15.4959 10.8 15.4959C10.8264 15.4959 10.8522 15.4889 10.8751 15.4757C10.8979 15.4625 10.9168 15.4436 10.9299 15.4208C10.9431 15.3979 10.95 15.372 10.95 15.3457V14.6543C10.95 14.6279 10.9431 14.602 10.9299 14.5792C10.9168 14.5564 10.8978 14.5374 10.875 14.5242L5.47499 11.3953C5.44876 11.3801 5.41852 11.3731 5.38827 11.3754ZM5.54999 11.7844L10.65 14.7398V15.0867L5.54999 12.1418V11.7844ZM4.79999 13.4508L14.9273 19.2973C14.9501 19.3104 14.976 19.3174 15.0023 19.3174C15.0287 19.3174 15.0545 19.3104 15.0773 19.2973L25.2 13.4508L25.5012 13.6254L15.0023 19.6863L4.49882 13.6254L4.79999 13.4508ZM4.34999 13.8855L14.8523 19.9465V23.0637L4.88905 17.3145C4.88866 17.3141 4.88827 17.3137 4.88788 17.3133L4.87616 17.3062H4.87499L4.35585 17.0016L4.34999 13.8855ZM25.65 13.8855V17.0016L25.125 17.3062C25.1206 17.3088 25.1163 17.3115 25.1121 17.3145L15.1523 23.0637V19.9465L25.65 13.8855ZM5.38827 15.532C5.35055 15.535 5.31535 15.5521 5.2897 15.5799C5.26406 15.6077 5.24988 15.6442 5.24999 15.682V16.3852C5.24996 16.4115 5.25688 16.4374 5.27004 16.4603C5.28321 16.4831 5.30216 16.5021 5.32499 16.5152L10.725 19.6336C10.7478 19.6468 10.7737 19.6537 10.8 19.6537C10.8264 19.6537 10.8522 19.6467 10.8751 19.6335C10.8979 19.6203 10.9168 19.6014 10.9299 19.5786C10.9431 19.5557 10.95 19.5299 10.95 19.5035V18.8109C10.95 18.7846 10.9431 18.7587 10.9299 18.7358C10.9168 18.713 10.8978 18.694 10.875 18.6809L5.47499 15.552C5.44876 15.5367 5.41852 15.5297 5.38827 15.532ZM13.1883 15.8895C13.1506 15.8924 13.1153 15.9095 13.0897 15.9373C13.0641 15.9651 13.0499 16.0016 13.05 16.0395V16.732C13.05 16.7584 13.0569 16.7843 13.07 16.8071C13.0832 16.83 13.1022 16.8489 13.125 16.8621L13.725 17.2078C13.7477 17.2209 13.7735 17.2279 13.7997 17.2279C13.826 17.2279 13.8518 17.2211 13.8746 17.208C13.8973 17.195 13.9163 17.1762 13.9295 17.1535C13.9427 17.1309 13.9498 17.1051 13.95 17.0789V16.3852C13.95 16.3588 13.9431 16.3329 13.9299 16.3101C13.9168 16.2872 13.8978 16.2683 13.875 16.2551L13.275 15.9094C13.2488 15.8941 13.2185 15.8872 13.1883 15.8895ZM5.54999 15.941L10.65 18.8965V19.2434L5.54999 16.2984V15.941ZM13.35 16.2996L13.65 16.4719V16.8187L13.35 16.6453V16.2996ZM4.79999 17.6098L14.9273 23.4539C14.9501 23.4671 14.976 23.474 15.0023 23.474C15.0287 23.474 15.0545 23.4671 15.0773 23.4539L25.2 17.6098L25.4941 17.7785L15.0023 23.8312L4.51288 17.7738L4.79999 17.6098ZM4.34999 18.0258L14.8523 24.0914L14.85 27.2086L4.34999 21.1477V18.0258ZM25.65 18.034V21.1477L15.15 27.2086L15.1523 24.0914L25.65 18.034ZM5.38827 19.6887C5.35055 19.6916 5.31535 19.7087 5.2897 19.7365C5.26406 19.7644 5.24988 19.8008 5.24999 19.8387V20.543C5.24996 20.5693 5.25688 20.5952 5.27004 20.6181C5.28321 20.6409 5.30216 20.6599 5.32499 20.673L10.725 23.7902C10.7478 23.8034 10.7737 23.8103 10.8 23.8103C10.8264 23.8103 10.8522 23.8034 10.8751 23.7902C10.8979 23.777 10.9168 23.758 10.9299 23.7352C10.9431 23.7124 10.95 23.6865 10.95 23.6602V22.9676C10.95 22.9412 10.9431 22.9153 10.9299 22.8925C10.9168 22.8696 10.8978 22.8507 10.875 22.8375L5.47499 19.7098C5.45331 19.6968 5.42873 19.6896 5.4035 19.6887C5.39843 19.6884 5.39334 19.6884 5.38827 19.6887ZM13.1883 20.0461C13.1506 20.0491 13.1153 20.0662 13.0897 20.094C13.0641 20.1218 13.0499 20.1583 13.05 20.1961V20.8887C13.05 20.915 13.0569 20.9409 13.07 20.9638C13.0832 20.9866 13.1022 21.0056 13.125 21.0187L13.725 21.3656C13.7478 21.3788 13.7737 21.3857 13.8 21.3857C13.8264 21.3857 13.8522 21.3788 13.8751 21.3656C13.8979 21.3524 13.9168 21.3334 13.9299 21.3106C13.9431 21.2878 13.95 21.2619 13.95 21.2355V20.543C13.95 20.5166 13.9431 20.4907 13.9299 20.4679C13.9168 20.445 13.8978 20.4261 13.875 20.4129L13.275 20.066C13.2488 20.0508 13.2185 20.0438 13.1883 20.0461ZM5.54999 20.0988L10.65 23.0543V23.4L5.54999 20.4562V20.0988ZM13.35 20.4562L13.65 20.6297V20.9754L13.35 20.802V20.4562ZM13.1883 24.2027C13.1506 24.2057 13.1153 24.2228 13.0897 24.2506C13.0641 24.2784 13.0499 24.3149 13.05 24.3527V25.0453C13.05 25.0717 13.0569 25.0976 13.07 25.1204C13.0832 25.1432 13.1022 25.1622 13.125 25.1754L13.725 25.5223C13.7478 25.5354 13.7737 25.5424 13.8 25.5423C13.8264 25.5423 13.8522 25.5354 13.8751 25.5222C13.8979 25.509 13.9168 25.4901 13.9299 25.4672C13.9431 25.4444 13.95 25.4185 13.95 25.3922V24.6996C13.95 24.6732 13.9431 24.6473 13.9299 24.6245C13.9168 24.6017 13.8978 24.5827 13.875 24.5695L13.275 24.2227C13.2488 24.2074 13.2185 24.2005 13.1883 24.2027ZM13.35 24.6129L13.65 24.7863V25.1332L13.35 24.9598V24.6129Z" fill="#0669B1"/>
</svg>
