<svg width="50" height="50" viewBox="0 0 50 50" fill="none" xmlns="http://www.w3.org/2000/svg">
<path d="M24.9902 4.36523C24.646 4.37256 24.3701 4.65576 24.375 5V25C24.3726 25.2246 24.4897 25.4346 24.6851 25.5493C24.8804 25.6616 25.1196 25.6616 25.3149 25.5493C25.5103 25.4346 25.6274 25.2246 25.625 25V5C25.6274 4.83154 25.5615 4.66797 25.4419 4.54834C25.3223 4.42871 25.1587 4.36279 24.9902 4.36523ZM19.375 5.16113C10.7275 7.61718 4.375 15.5786 4.375 25C4.375 36.3721 13.6279 45.625 25 45.625C36.3721 45.625 45.625 36.3721 45.625 25C45.625 15.5786 39.2725 7.61718 30.625 5.16113V6.4624C38.5742 8.87695 44.375 16.272 44.375 25C44.375 35.6836 35.6836 44.375 25 44.375C14.3164 44.375 5.625 35.6836 5.625 25C5.625 16.272 11.4258 8.87695 19.375 6.4624V5.16113ZM18.5474 8.78418C18.4644 8.78418 18.3813 8.79883 18.3032 8.83056C17.9834 8.96484 17.832 9.32861 17.9663 9.64843C18.0981 9.96826 18.4619 10.1196 18.7817 9.98779C19.1016 9.85351 19.2529 9.48974 19.1211 9.16992C19.0234 8.93798 18.7988 8.78662 18.5474 8.78418ZM31.4722 8.78418C31.2134 8.77929 30.979 8.93066 30.8789 9.16992C30.7471 9.48974 30.8984 9.85351 31.2183 9.98779C31.5381 10.1196 31.9019 9.96826 32.0337 9.64843C32.168 9.32861 32.0166 8.96484 31.6968 8.83056C31.626 8.80127 31.5479 8.78662 31.4722 8.78418ZM15.6323 10.3418C15.5054 10.3418 15.3809 10.3784 15.2759 10.4492C14.9902 10.6396 14.9121 11.0278 15.105 11.3159C15.2954 11.6016 15.6836 11.6797 15.9717 11.4868C16.2598 11.2964 16.3354 10.9082 16.145 10.6226C16.0303 10.4492 15.8374 10.3442 15.6323 10.3418ZM34.3848 10.3418C34.1724 10.3394 33.9722 10.4443 33.855 10.6226C33.6621 10.9082 33.7402 11.2964 34.0259 11.4868C34.314 11.6797 34.7021 11.6016 34.8926 11.3159C34.9854 11.1792 35.0195 11.0083 34.9878 10.8472C34.9561 10.6836 34.8608 10.5395 34.7217 10.4492C34.6216 10.3809 34.5068 10.3442 34.3848 10.3418ZM13.0762 12.4414C12.9077 12.4414 12.7441 12.5073 12.627 12.627C12.3828 12.8686 12.3828 13.2666 12.627 13.5083C12.8687 13.7524 13.2666 13.7524 13.5083 13.5083C13.7524 13.2666 13.7524 12.8686 13.5083 12.627C13.3936 12.5098 13.2397 12.4438 13.0762 12.4414ZM36.9409 12.4414C36.7725 12.4414 36.6089 12.5073 36.4917 12.627C36.2476 12.8686 36.2476 13.2666 36.4917 13.5083C36.7334 13.7524 37.1313 13.7524 37.373 13.5083C37.6172 13.2666 37.6172 12.8686 37.373 12.627C37.2583 12.5098 37.1045 12.4438 36.9409 12.4414ZM39.0381 15C38.9111 14.9976 38.7891 15.0342 38.6841 15.105C38.3984 15.2954 38.3203 15.6836 38.5132 15.9692C38.7036 16.2573 39.0918 16.3354 39.3774 16.1426C39.6655 15.9497 39.7437 15.564 39.5508 15.2759C39.436 15.105 39.2432 15 39.0381 15ZM10.979 15C10.7666 14.9951 10.5664 15.1001 10.4492 15.2759C10.2588 15.564 10.3345 15.9521 10.6226 16.1426C10.9106 16.3354 11.2964 16.2573 11.4893 15.9717C11.6797 15.6836 11.604 15.2954 11.3159 15.105C11.2158 15.0391 11.1011 15.0024 10.979 15ZM40.5957 17.9175C40.5127 17.915 40.4297 17.9321 40.3516 17.9639C40.0317 18.0957 39.8804 18.4619 40.0122 18.7793C40.1465 19.0991 40.5103 19.2505 40.8301 19.1186C41.1499 18.9868 41.3013 18.6206 41.1694 18.3008C41.0718 18.0713 40.8472 17.9175 40.5957 17.9175ZM9.42383 17.9175C9.16504 17.9126 8.93066 18.064 8.83301 18.3032C8.70117 18.623 8.85254 18.9868 9.16992 19.1211C9.48975 19.2529 9.85596 19.1016 9.98779 18.7817C10.1196 18.4619 9.96826 18.0981 9.64844 17.9663C9.57764 17.9346 9.50195 17.9199 9.42383 17.9175ZM41.5527 21.084C41.5112 21.0815 41.4697 21.0864 41.4282 21.0937C41.0913 21.1621 40.8716 21.4917 40.9375 21.8286C41.0059 22.168 41.3354 22.3877 41.6724 22.3218C42.0117 22.2534 42.2314 21.9238 42.1655 21.5845C42.1069 21.2939 41.8506 21.084 41.5527 21.084ZM8.4668 21.084C8.16162 21.0767 7.89795 21.2866 7.83691 21.5845C7.80518 21.748 7.83691 21.9189 7.92969 22.0557C8.02246 22.1948 8.1665 22.29 8.33008 22.3218C8.49121 22.3535 8.65967 22.3193 8.79883 22.229C8.93555 22.1362 9.03076 21.9922 9.0625 21.8286C9.13086 21.4917 8.91113 21.1621 8.57422 21.0937C8.5376 21.0889 8.50342 21.084 8.4668 21.084ZM8.125 24.375C7.78076 24.375 7.5 24.6558 7.5 25C7.5 25.3442 7.78076 25.625 8.125 25.625C8.46924 25.625 8.75 25.3442 8.75 25C8.75 24.6558 8.46924 24.375 8.125 24.375ZM41.875 24.375C41.5308 24.375 41.25 24.6558 41.25 25C41.25 25.3442 41.5308 25.625 41.875 25.625C42.2192 25.625 42.5 25.3442 42.5 25C42.5 24.6558 42.2192 24.375 41.875 24.375ZM8.45215 27.666C8.41064 27.666 8.36914 27.6709 8.32764 27.6782C7.98828 27.7466 7.76856 28.0762 7.83691 28.4155C7.90527 28.7524 8.23242 28.9722 8.57178 28.9062C8.91113 28.8379 9.13086 28.5083 9.0625 28.1714C9.00391 27.8784 8.75 27.6685 8.45215 27.666ZM41.5674 27.666C41.2622 27.6587 40.9985 27.8711 40.9375 28.1714C40.8716 28.5083 41.0913 28.8379 41.4282 28.9062C41.7676 28.9722 42.0972 28.7524 42.1655 28.4155C42.2314 28.0762 42.0117 27.7466 41.6724 27.6782C41.6382 27.6733 41.604 27.6685 41.5674 27.666ZM40.6055 30.8301C40.3467 30.8252 40.1123 30.979 40.0122 31.2183C39.8804 31.5356 40.0317 31.9019 40.3516 32.0337C40.6714 32.1655 41.0352 32.0142 41.1694 31.6968C41.3013 31.3769 41.1499 31.0107 40.8301 30.8789C40.7593 30.8496 40.6812 30.8325 40.6055 30.8301ZM9.41406 30.8325C9.33106 30.8325 9.24805 30.8472 9.16992 30.8789C9.01856 30.9424 8.89648 31.0644 8.83301 31.2183C8.76953 31.3721 8.76953 31.543 8.83057 31.6968C8.96484 32.0166 9.32861 32.168 9.64844 32.0337C9.80225 31.9727 9.92432 31.8506 9.98779 31.6968C10.0513 31.543 10.0513 31.3721 9.98779 31.2183C9.89258 30.9863 9.66553 30.835 9.41406 30.8325ZM39.043 33.75C38.8306 33.7451 38.6304 33.8501 38.5132 34.0259C38.3203 34.314 38.3984 34.6997 38.6841 34.8926C38.8208 34.9853 38.9917 35.0195 39.1528 34.9853C39.3164 34.9536 39.4604 34.8584 39.5508 34.7192C39.7437 34.4336 39.6655 34.0454 39.3774 33.855C39.2798 33.7866 39.1626 33.75 39.043 33.75ZM10.9766 33.75C10.8496 33.7476 10.7275 33.7842 10.6226 33.855C10.3369 34.0478 10.2588 34.4336 10.4492 34.7217C10.6421 35.0073 11.0303 35.0854 11.3184 34.8926C11.604 34.7021 11.6821 34.314 11.4893 34.0259C11.3745 33.855 11.1816 33.7524 10.9766 33.75ZM13.0762 36.3086C12.9077 36.3061 12.7441 36.3721 12.627 36.4917C12.3828 36.7334 12.3828 37.1313 12.627 37.373C12.8687 37.6172 13.2666 37.6172 13.5083 37.373C13.7524 37.1313 13.7524 36.7334 13.5083 36.4917C13.3936 36.3745 13.2397 36.3086 13.0762 36.3086ZM36.9409 36.3086C36.7725 36.3061 36.6089 36.3721 36.4917 36.4917C36.2476 36.7334 36.2476 37.1313 36.4917 37.373C36.7334 37.6172 37.1313 37.6172 37.373 37.373C37.6172 37.1313 37.6172 36.7334 37.373 36.4917C37.2583 36.3745 37.1045 36.3086 36.9409 36.3086ZM15.6372 38.4058C15.4248 38.4009 15.2246 38.5059 15.1074 38.6816C14.9146 38.9697 14.9927 39.3579 15.2808 39.5508C15.5664 39.7412 15.9546 39.6631 16.145 39.3774C16.3379 39.0894 16.2598 38.7036 15.9741 38.5107C15.874 38.4448 15.7568 38.4058 15.6372 38.4058ZM34.3823 38.4058C34.2554 38.4033 34.1333 38.4399 34.0283 38.5083C33.8892 38.6011 33.7939 38.7451 33.7622 38.9087C33.7305 39.0698 33.7646 39.2407 33.8574 39.3774C34.0479 39.6631 34.436 39.7412 34.7241 39.5508C35.0098 39.3579 35.0879 38.9697 34.895 38.6816C34.7827 38.5107 34.5898 38.4058 34.3823 38.4058ZM18.5571 39.9634C18.2983 39.9585 18.064 40.1123 17.9663 40.3516C17.8345 40.6689 17.9858 41.0352 18.3032 41.167C18.623 41.2988 18.9893 41.1475 19.1211 40.8301C19.2529 40.5103 19.1016 40.144 18.7817 40.0122C18.7109 39.9829 18.6353 39.9658 18.5571 39.9634ZM31.4624 39.9634C31.3794 39.9634 31.2964 39.9805 31.2207 40.0122C31.0669 40.0757 30.9448 40.1978 30.8813 40.3491C30.8179 40.5029 30.8179 40.6763 30.8789 40.8301C31.0132 41.1475 31.377 41.2988 31.6968 41.167C31.8506 41.1035 31.9727 40.9814 32.0361 40.8301C32.0996 40.6763 32.0996 40.5029 32.0361 40.3516C31.9409 40.1172 31.7139 39.9658 31.4624 39.9634ZM21.7261 40.9253C21.4209 40.918 21.1548 41.1304 21.0962 41.4282C21.0278 41.7676 21.2476 42.0947 21.5869 42.1631C21.9263 42.2314 22.2534 42.0117 22.3218 41.6724C22.3901 41.333 22.1704 41.0059 21.8311 40.9375C21.7969 40.9302 21.7603 40.9253 21.7261 40.9253ZM28.2935 40.9277C28.252 40.9253 28.2104 40.9302 28.1714 40.9375C27.832 41.0059 27.6123 41.333 27.6782 41.6724C27.7124 41.8359 27.8076 41.9775 27.9443 42.0703C28.0835 42.1631 28.252 42.1973 28.4155 42.1655C28.5767 42.1313 28.7207 42.0361 28.8135 41.8994C28.9038 41.7603 28.938 41.5918 28.9062 41.4282C28.8477 41.1377 28.5913 40.9277 28.2935 40.9277ZM25 41.25C24.6558 41.25 24.375 41.5308 24.375 41.875C24.375 42.2192 24.6558 42.5 25 42.5C25.3442 42.5 25.625 42.2192 25.625 41.875C25.625 41.5308 25.3442 41.25 25 41.25Z" fill="#BC5205"/>
</svg>
