<svg width="100" height="100" viewBox="0 0 100 100" fill="none" xmlns="http://www.w3.org/2000/svg">
<path d="M50 91.4062C27.1875 91.4062 8.59375 72.8125 8.59375 50C8.59375 27.1875 27.1875 8.59375 50 8.59375C72.8125 8.59375 91.4062 27.1875 91.4062 50C91.4062 72.8125 72.8125 91.4062 50 91.4062ZM50 13.2812C29.7656 13.2812 13.2812 29.7656 13.2812 50C13.2812 70.2344 29.7656 86.7188 50 86.7188C70.2344 86.7188 86.7188 70.2344 86.7188 50C86.7188 29.7656 70.2344 13.2812 50 13.2812Z" fill="#03B3FF"/>
<path d="M50 75.7812C35.7812 75.7812 24.2188 64.2188 24.2188 50C24.2188 40.7813 29.1406 32.2656 37.1094 27.6563C38.2031 27.0313 39.6875 27.4219 40.3125 28.5156C40.9375 29.6094 40.5469 31.0937 39.4531 31.7187C32.9687 35.4687 28.9062 42.5 28.9062 50C28.9062 61.6406 38.3594 71.0937 50 71.0937C61.6406 71.0937 71.0938 61.6406 71.0938 50C71.0938 42.5 67.0313 35.4687 60.5469 31.7187C59.4531 31.0937 59.0625 29.6094 59.6875 28.5156C60.3125 27.4219 61.7969 27.0313 62.8906 27.6563C70.8594 32.2656 75.7812 40.7813 75.7812 50C75.7812 64.2188 64.2188 75.7812 50 75.7812Z" fill="#03B3FF"/>
<path d="M50 40.625C48.6719 40.625 47.6562 39.6094 47.6562 38.2812V22.6562C47.6562 21.3281 48.6719 20.3125 50 20.3125C51.3281 20.3125 52.3438 21.3281 52.3438 22.6562V38.2812C52.3438 39.6094 51.3281 40.625 50 40.625Z" fill="#03B3FF"/>
</svg>
