<svg width="50" height="50" viewBox="0 0 50 50" fill="none" xmlns="http://www.w3.org/2000/svg">
<path d="M12.9848 4.5C8.30582 4.5 4.5 8.30582 4.5 12.9848V36.0152C4.5 40.6942 8.30582 44.5 12.9848 44.5H36.0152C40.6942 44.5 44.5 40.6942 44.5 36.0152V12.9848C44.5 8.30582 40.6942 4.5 36.0152 4.5H12.9848ZM12.9848 5.71212H36.0152C40.0392 5.71212 43.2879 8.96084 43.2879 12.9848V36.0152C43.2879 40.0392 40.0392 43.2879 36.0152 43.2879H12.9848C8.96084 43.2879 5.71212 40.0392 5.71212 36.0152V12.9848C5.71212 8.96084 8.96084 5.71212 12.9848 5.71212ZM14.5 7.5303C10.6544 7.5303 7.5303 10.6544 7.5303 14.5V34.5C7.5303 38.3456 10.6544 41.4697 14.5 41.4697H34.5C38.3456 41.4697 41.4697 38.3456 41.4697 34.5V24.197C41.4703 24.1568 41.4628 24.1169 41.4479 24.0797C41.4329 24.0424 41.4107 24.0085 41.3825 23.9799C41.3543 23.9513 41.3207 23.9286 41.2836 23.9131C41.2466 23.8976 41.2068 23.8896 41.1667 23.8896C41.1265 23.8896 41.0868 23.8976 41.0497 23.9131C41.0127 23.9286 40.9791 23.9513 40.9509 23.9799C40.9227 24.0085 40.9004 24.0424 40.8855 24.0797C40.8705 24.1169 40.8631 24.1568 40.8636 24.197V34.5C40.8636 38.018 38.018 40.8636 34.5 40.8636H14.5C10.982 40.8636 8.13636 38.018 8.13636 34.5V14.5C8.13636 10.982 10.982 8.13636 14.5 8.13636H34.5C34.6923 8.13636 34.8844 8.14828 35.0788 8.16596C35.1185 8.16954 35.1584 8.16527 35.1964 8.15341C35.2344 8.14155 35.2697 8.12232 35.3003 8.09682C35.3308 8.07131 35.3561 8.04004 35.3745 8.00479C35.393 7.96953 35.4044 7.93098 35.4079 7.89134C35.4115 7.8517 35.4073 7.81174 35.3954 7.77375C35.3835 7.73575 35.3643 7.70047 35.3388 7.66991C35.3133 7.63935 35.282 7.61412 35.2467 7.59565C35.2115 7.57718 35.1729 7.56583 35.1333 7.56226C34.9277 7.54358 34.7174 7.5303 34.5 7.5303H14.5ZM27.5303 14.197C26.8641 14.197 26.3182 14.7436 26.3182 15.4091C26.3182 16.0746 26.8641 16.6212 27.5303 16.6212H30.6648L16.6212 30.6648V27.5303C16.6212 26.8648 16.0753 26.3182 15.4091 26.3182C14.7429 26.3182 14.197 26.8648 14.197 27.5303V33.5909C14.197 33.7501 14.2307 33.8998 14.2834 34.0336C14.2841 34.0364 14.2849 34.0392 14.2857 34.0419C14.2701 34.0053 14.2805 34.0298 14.2893 34.0514C14.4123 34.3509 14.6503 34.5873 14.9486 34.7107C14.9778 34.7226 14.9779 34.7217 14.9664 34.7166C15.1 34.7696 15.2499 34.803 15.4091 34.803H21.4697C22.1359 34.803 22.6818 34.2564 22.6818 33.5909C22.6818 32.9254 22.1359 32.3788 21.4697 32.3788H18.3352L32.3788 18.3352V21.4697C32.3788 22.1352 32.9247 22.6818 33.5909 22.6818C34.2571 22.6818 34.803 22.1352 34.803 21.4697V15.4091C34.803 15.2499 34.7693 15.1002 34.7166 14.9664C34.7159 14.9636 34.7151 14.9608 34.7143 14.9581C34.7299 14.9947 34.7196 14.9702 34.7107 14.9486C34.5877 14.6491 34.3497 14.4127 34.0514 14.2893C34.0222 14.2774 34.0221 14.2784 34.0336 14.2834C33.9 14.2304 33.7501 14.197 33.5909 14.197H27.5303ZM27.5303 14.803H33.5909C33.6668 14.803 33.7387 14.8186 33.8099 14.8468C33.8119 14.8472 33.8138 14.8476 33.8158 14.848C33.8174 14.8484 33.819 14.8488 33.8206 14.8492C33.9707 14.9113 34.0896 15.0305 34.1508 15.1795C34.1512 15.181 34.1516 15.1826 34.152 15.1842C34.1445 15.1666 34.1552 15.1931 34.1532 15.1889C34.1816 15.2612 34.197 15.3332 34.197 15.4091V21.4697C34.197 21.8078 33.9296 22.0758 33.5909 22.0758C33.2522 22.0758 32.9848 21.8078 32.9848 21.4697V17.6037C32.9848 17.5438 32.967 17.4852 32.9337 17.4354C32.9004 17.3856 32.8531 17.3467 32.7978 17.3238C32.7424 17.3009 32.6815 17.2949 32.6227 17.3066C32.5639 17.3182 32.51 17.3471 32.4676 17.3894L17.3894 32.4676C17.3471 32.51 17.3182 32.5639 17.3066 32.6227C17.2949 32.6815 17.3009 32.7424 17.3238 32.7978C17.3467 32.8531 17.3856 32.9004 17.4354 32.9337C17.4852 32.967 17.5438 32.9848 17.6037 32.9848H21.4697C21.8084 32.9848 22.0758 33.2528 22.0758 33.5909C22.0758 33.929 21.8084 34.197 21.4697 34.197H15.4091C15.3332 34.197 15.2613 34.1814 15.1901 34.1532C15.1881 34.1528 15.1862 34.1524 15.1842 34.152C15.1826 34.1516 15.181 34.1512 15.1795 34.1508C15.0293 34.0887 14.9104 33.9695 14.8492 33.8206C14.8488 33.819 14.8484 33.8174 14.848 33.8158C14.8555 33.8334 14.8448 33.8069 14.8468 33.8111C14.8184 33.7388 14.803 33.6668 14.803 33.5909V27.5303C14.803 27.1922 15.0704 26.9242 15.4091 26.9242C15.7478 26.9242 16.0152 27.1922 16.0152 27.5303V31.3963C16.0152 31.4562 16.033 31.5148 16.0663 31.5646C16.0996 31.6144 16.1469 31.6533 16.2022 31.6762C16.2576 31.6991 16.3185 31.7051 16.3773 31.6934C16.4361 31.6818 16.49 31.6529 16.5324 31.6106L31.6106 16.5324C31.6529 16.49 31.6818 16.4361 31.6934 16.3773C31.7051 16.3185 31.6991 16.2576 31.6762 16.2022C31.6533 16.1469 31.6144 16.0996 31.5646 16.0663C31.5148 16.033 31.4562 16.0152 31.3963 16.0152H27.5303C27.1916 16.0152 26.9242 15.7472 26.9242 15.4091C26.9242 15.071 27.1916 14.803 27.5303 14.803ZM41.1619 16.6165C41.1221 16.6171 41.0829 16.6256 41.0463 16.6414C41.0098 16.6572 40.9767 16.68 40.949 16.7086C40.9213 16.7372 40.8995 16.7709 40.8849 16.8079C40.8702 16.8449 40.863 16.8844 40.8636 16.9242V18.1364C40.8631 18.1765 40.8705 18.2164 40.8855 18.2537C40.9004 18.2909 40.9227 18.3248 40.9509 18.3534C40.9791 18.382 41.0127 18.4047 41.0497 18.4202C41.0868 18.4357 41.1265 18.4437 41.1667 18.4437C41.2068 18.4437 41.2466 18.4357 41.2836 18.4202C41.3207 18.4047 41.3543 18.382 41.3825 18.3534C41.4107 18.3248 41.4329 18.2909 41.4479 18.2537C41.4628 18.2164 41.4703 18.1765 41.4697 18.1364V16.9242C41.4703 16.8837 41.4628 16.8433 41.4476 16.8057C41.4323 16.7681 41.4097 16.7339 41.381 16.7052C41.3523 16.6765 41.3181 16.6539 41.2805 16.6386C41.2428 16.6234 41.2025 16.6158 41.1619 16.6165ZM41.1619 19.6468C41.1221 19.6474 41.0829 19.6559 41.0463 19.6717C41.0098 19.6875 40.9767 19.7103 40.949 19.7389C40.9213 19.7675 40.8995 19.8012 40.8849 19.8382C40.8702 19.8752 40.863 19.9148 40.8636 19.9545V22.3788C40.8631 22.4189 40.8705 22.4588 40.8855 22.4961C40.9004 22.5333 40.9227 22.5673 40.9509 22.5958C40.9791 22.6244 41.0127 22.6472 41.0497 22.6627C41.0868 22.6782 41.1265 22.6861 41.1667 22.6861C41.2068 22.6861 41.2466 22.6782 41.2836 22.6627C41.3207 22.6472 41.3543 22.6244 41.3825 22.5958C41.4107 22.5673 41.4329 22.5333 41.4479 22.4961C41.4628 22.4588 41.4703 22.4189 41.4697 22.3788V19.9545C41.4703 19.914 41.4628 19.8736 41.4476 19.836C41.4323 19.7984 41.4097 19.7642 41.381 19.7355C41.3523 19.7068 41.3181 19.6842 41.2805 19.6689C41.2428 19.6537 41.2025 19.6461 41.1619 19.6468Z" fill="#BC5205"/>
</svg>
