<svg width="100" height="100" viewBox="0 0 100 100" fill="none" xmlns="http://www.w3.org/2000/svg">
<path d="M20.8333 10.4167C15.1052 10.4167 10.4167 15.1052 10.4167 20.8333V50H8.33333C8.05727 49.9961 7.78318 50.0471 7.52699 50.15C7.27081 50.253 7.03764 50.4058 6.84104 50.5997C6.64443 50.7935 6.48832 51.0245 6.38176 51.2792C6.2752 51.5339 6.22033 51.8072 6.22033 52.0833C6.22033 52.3594 6.2752 52.6328 6.38176 52.8875C6.48832 53.1422 6.64443 53.3732 6.84104 53.567C7.03764 53.7608 7.27081 53.9137 7.52699 54.0166C7.78318 54.1196 8.05727 54.1706 8.33333 54.1667H12.1501C12.375 54.2039 12.6046 54.2039 12.8296 54.1667H41.6667C43.9931 54.1667 45.8333 56.0069 45.8333 58.3333V87.1501C45.7961 87.375 45.7961 87.6046 45.8333 87.8296V91.6667C45.8294 91.9427 45.8804 92.2168 45.9834 92.473C46.0863 92.7292 46.2392 92.9624 46.433 93.159C46.6268 93.3556 46.8578 93.5117 47.1125 93.6182C47.3672 93.7248 47.6406 93.7797 47.9167 93.7797C48.1928 93.7797 48.4661 93.7248 48.7208 93.6182C48.9755 93.5117 49.2065 93.3556 49.4003 93.159C49.5942 92.9624 49.747 92.7292 49.85 92.473C49.9529 92.2168 50.0039 91.9427 50 91.6667V89.5833H79.1667C84.8948 89.5833 89.5833 84.8948 89.5833 79.1667V20.8333C89.5833 15.1052 84.8948 10.4167 79.1667 10.4167H20.8333ZM20.8333 14.5833H79.1667C82.6427 14.5833 85.4167 17.3573 85.4167 20.8333V79.1667C85.4167 82.6427 82.6427 85.4167 79.1667 85.4167H50V58.3333C50 53.7556 46.2444 50 41.6667 50H14.5833V20.8333C14.5833 17.3573 17.3573 14.5833 20.8333 14.5833ZM60.4167 22.9167C60.1406 22.9128 59.8665 22.9638 59.6103 23.0667C59.3541 23.1697 59.121 23.3225 58.9244 23.5163C58.7278 23.7102 58.5716 23.9412 58.4651 24.1959C58.3585 24.4506 58.3037 24.7239 58.3037 25C58.3037 25.2761 58.3585 25.5494 58.4651 25.8041C58.5716 26.0588 58.7278 26.2898 58.9244 26.4837C59.121 26.6775 59.3541 26.8303 59.6103 26.9333C59.8665 27.0362 60.1406 27.0872 60.4167 27.0833H69.9707L52.6937 44.3604C52.4937 44.5523 52.3341 44.7823 52.2241 45.0367C52.1142 45.2911 52.0561 45.5649 52.0532 45.8421C52.0504 46.1193 52.1029 46.3942 52.2077 46.6509C52.3125 46.9075 52.4674 47.1406 52.6634 47.3366C52.8594 47.5326 53.0925 47.6875 53.3491 47.7923C53.6058 47.8971 53.8807 47.9496 54.1579 47.9468C54.4351 47.9439 54.7089 47.8858 54.9633 47.7759C55.2177 47.6659 55.4477 47.5063 55.6396 47.3063L72.9167 30.0293V39.5833C72.9128 39.8594 72.9638 40.1335 73.0667 40.3897C73.1697 40.6459 73.3225 40.879 73.5163 41.0756C73.7102 41.2722 73.9412 41.4284 74.1959 41.5349C74.4506 41.6415 74.7239 41.6963 75 41.6963C75.2761 41.6963 75.5494 41.6415 75.8041 41.5349C76.0588 41.4284 76.2898 41.2722 76.4837 41.0756C76.6775 40.879 76.8303 40.6459 76.9333 40.3897C77.0362 40.1335 77.0872 39.8594 77.0833 39.5833V25C77.0833 24.4475 76.8638 23.9176 76.4731 23.5269C76.0824 23.1362 75.5525 22.9167 75 22.9167H60.4167ZM12.4674 58.3048C11.9156 58.3135 11.3898 58.5407 11.0053 58.9366C10.6208 59.3325 10.4091 59.8648 10.4167 60.4167V83.3333C10.4167 86.7604 13.2396 89.5833 16.6667 89.5833H39.5833C39.8594 89.5872 40.1335 89.5362 40.3897 89.4333C40.6459 89.3303 40.879 89.1775 41.0756 88.9837C41.2722 88.7898 41.4284 88.5588 41.5349 88.3041C41.6415 88.0494 41.6963 87.7761 41.6963 87.5C41.6963 87.2239 41.6415 86.9506 41.5349 86.6959C41.4284 86.4412 41.2722 86.2102 41.0756 86.0163C40.879 85.8225 40.6459 85.6697 40.3897 85.5667C40.1335 85.4638 39.8594 85.4128 39.5833 85.4167H16.6667C15.4895 85.4167 14.5833 84.5105 14.5833 83.3333V60.4167C14.5872 60.1379 14.535 59.8613 14.43 59.6031C14.3249 59.3449 14.1692 59.1104 13.9719 58.9134C13.7746 58.7165 13.5397 58.5612 13.2813 58.4567C13.0229 58.3521 12.7462 58.3005 12.4674 58.3048Z" fill="#03B3FF"/>
</svg>
