<?xml version="1.0" encoding="UTF-8"?>
<svg version="1.1" xmlns="http://www.w3.org/2000/svg" width="50" height="50">
<path d="M0 0 C4.3099837 2.48625506 7.93428046 5.48340347 11.5625 8.875 C11.23438277 11.95506815 10.90721471 13.51253175 8.7421875 15.7890625 C-0.51263805 22.65959401 -7.76008844 25.2534027 -19.4375 23.875 C-26.20981728 21.72767989 -31.30832736 17.66966138 -36.4375 12.875 C-36.10938277 9.79493185 -35.78221471 8.23746825 -33.6171875 5.9609375 C-23.41279217 -1.61452887 -12.35743151 -5.85749812 0 0 Z M-20.28125 2.15625 C-21.93120034 4.60887888 -21.97202176 6.9703836 -21.84375 9.8671875 C-21.1099433 13.49388598 -19.44230151 14.871799 -16.4375 16.875 C-13.5978136 17.57347125 -11.2771864 17.57347125 -8.4375 16.875 C-5.43269849 14.871799 -3.7650567 13.49388598 -3.03125 9.8671875 C-2.90297824 6.9703836 -2.94379966 4.60887888 -4.59375 2.15625 C-7.23085533 0.32368528 -9.25622184 0.47660825 -12.4375 0.5 C-13.489375 0.49226562 -14.54125 0.48453125 -15.625 0.4765625 C-18.41922826 0.65732187 -18.41922826 0.65732187 -20.28125 2.15625 Z M-0.4375 3.875 C-0.46328125 4.46667969 -0.4890625 5.05835938 -0.515625 5.66796875 C-0.89295193 10.92481899 -1.49552993 14.05248357 -5.4375 17.875 C-9.15579839 19.73414919 -13.37918736 19.30319992 -17.4375 18.875 C-20.4375 17.5 -20.4375 17.5 -22.4375 14.875 C-23.41564653 11.57310854 -24.00113002 8.28780404 -24.4375 4.875 C-27.81253669 6.0608237 -30.08472731 7.15073689 -32.4375 9.875 C-30.99116256 13.47911654 -29.24613332 14.98902568 -26 17.0625 C-25.21753906 17.57167969 -24.43507813 18.08085938 -23.62890625 18.60546875 C-18.2427666 21.72578138 -12.48524257 21.42828776 -6.4375 20.875 C-0.89294137 19.18312805 3.31043681 15.70185688 7.5625 11.875 C6.06026416 7.66873966 3.27699966 6.13599979 -0.4375 3.875 Z " fill="#BC5004" transform="translate(37.4375,14.125)"/>
<path d="M0 0 C3 0.25 3 0.25 5 2.25 C5.25 5.25 5.25 5.25 5 8.25 C3 10.25 3 10.25 0 10.5 C-3 10.25 -3 10.25 -5 8.25 C-5.25 5.25 -5.25 5.25 -5 2.25 C-3 0.25 -3 0.25 0 0 Z " fill="#BB5104" transform="translate(25,16.75)"/>
</svg>
