<?xml version="1.0" encoding="utf-8"?>
<!DOCTYPE svg PUBLIC "-//W3C//DTD SVG 1.1//EN" "http://www.w3.org/Graphics/SVG/1.1/DTD/svg11.dtd">
<svg version="1.1" xmlns="http://www.w3.org/2000/svg" xmlns:xlink="http://www.w3.org/1999/xlink" x="0px" y="0px" viewBox="0 0 1000 1000" enable-background="new 0 0 1000 1000" xml:space="preserve">
<g><path fill="#ffffff" stroke="#ffffff" d="M962.5,314.9L764.9,117.3c-36.7-36.7-96.2-36.7-132.8,0L500,249.4L367.9,117.3c-36.7-36.7-96.1-36.7-132.8,0L37.5,314.9c-36.7,36.7-36.7,96.2,0,132.8L500,910.2l462.5-462.5C999.2,411,999.2,351.6,962.5,314.9z M500,778.3L136.4,414.7c-18.5-18.5-18.5-48.4,0-66.9L268,216.3c18.5-18.5,48.5-18.5,66.9-0.1l363.6,363.5L500,778.3z M863.5,414.7l-99.1,99.1L566,315.3l99.1-99.1c18.5-18.5,48.4-18.5,66.9,0l131.6,131.6C882,366.3,882,396.3,863.5,414.7z"/></g>
</svg>