<svg width="30" height="30" viewBox="0 0 30 30" fill="none" xmlns="http://www.w3.org/2000/svg">
<g clip-path="url(#clip0_1631_20)">
<path d="M12.6 8.39999C10.8586 8.39999 9.31405 9.28593 8.48436 11.1961L6.52499 15.4805L4.16952 9.69609L4.16483 9.68671C3.67733 8.61093 2.39296 8.10234 1.27968 8.59921C0.154676 9.10312 -0.290636 10.4344 0.215614 11.5101L3.72186 19.4156V19.418C4.01483 20.0555 4.33124 20.5898 4.78124 20.9859C5.23358 21.382 5.83124 21.6 6.49218 21.6C7.19296 21.6 7.79999 21.3609 8.24061 20.9555C8.68358 20.55 8.97186 20.025 9.26014 19.4273L9.26249 19.4226L9.26483 19.4133C9.26483 19.4133 11.6648 14.0625 11.9437 13.4508C12.0656 13.1836 12.225 12.9539 12.3867 12.8086C12.5508 12.6656 12.6961 12.6 12.9 12.6C13.3969 12.6 13.8 13.0031 13.8 13.5V19.425C13.8 20.5922 14.7234 21.6 15.9117 21.6C17.1023 21.6 18 20.5805 18 19.425V13.5C18 13.0031 18.4031 12.6 18.9 12.6C19.3969 12.6 19.8 13.0031 19.8 13.5V19.5C19.8 20.6531 20.7469 21.6 21.9 21.6C23.0531 21.6 24 20.6531 24 19.5V13.5C24 13.0031 24.4031 12.6 24.9 12.6C25.3969 12.6 25.8 13.0031 25.8 13.5V19.5C25.8 20.6531 26.7469 21.6 27.9 21.6C29.0531 21.6 30 20.6531 30 19.5V12.8156C30 10.2516 27.8976 8.39999 25.4484 8.39999C23.5195 8.39999 22.418 9.30234 21.9398 9.74531C21.1406 8.95781 20.093 8.40234 18.5625 8.40234C16.9547 8.40234 16.0359 9.24609 15.5859 9.72187C14.7328 8.92031 13.6359 8.39999 12.6 8.39999ZM2.17499 9.59296C2.56405 9.57421 2.89218 9.79218 3.0703 10.1812L6.45936 18.5062L9.58124 11.6812L9.58358 11.6742C10.2703 10.0992 11.2125 9.59999 12.6 9.59999C13.3898 9.59999 14.5734 10.1133 15.15 10.8656L15.6211 11.4797L16.0992 10.868C16.0992 10.868 17.1375 9.60234 18.5625 9.60234C20.1023 9.60234 20.8406 10.05 21.4687 10.8656L21.907 11.4375L22.3898 10.9031C22.3898 10.9031 23.5711 9.59999 25.4484 9.59999C27.3141 9.59999 28.8 10.8914 28.8 12.8156V19.5C28.8 19.9969 28.3969 20.4 27.9 20.4C27.4031 20.4 27 19.9969 27 19.5V13.5C27 12.3469 26.0531 11.4 24.9 11.4C23.7469 11.4 22.8 12.3469 22.8 13.5V19.5C22.8 19.9969 22.3969 20.4 21.9 20.4C21.4031 20.4 21 19.9969 21 19.5V13.5C21 12.3469 20.0531 11.4 18.9 11.4C17.7469 11.4 16.8 12.3469 16.8 13.5V19.425C16.8 20.0039 16.4437 20.4 15.9117 20.4C15.382 20.4 15 19.9898 15 19.425V13.5C15 12.3469 14.0531 11.4 12.9 11.4C12.3844 11.4 11.925 11.6156 11.5898 11.9133C11.257 12.2086 11.0273 12.5766 10.8562 12.9492C10.5516 13.6125 8.18436 18.893 8.17499 18.9117C7.91014 19.4601 7.67108 19.8516 7.42968 20.0719C7.18827 20.2969 6.95858 20.4 6.49218 20.4C6.06093 20.4 5.82186 20.3016 5.57343 20.0836C5.32499 19.8656 5.07186 19.4812 4.81405 18.9187L1.30311 11.0039V10.9969C1.05468 10.4766 1.22343 9.93984 1.77186 9.69609C1.91014 9.63281 2.04608 9.59999 2.17499 9.59296Z" fill="#03B3FF"/>
</g>
<defs>
<clipPath id="clip0_1631_20">
<rect width="30" height="30" fill="white"/>
</clipPath>
</defs>
</svg>
