<svg width="50" height="50" viewBox="0 0 50 50" fill="none" xmlns="http://www.w3.org/2000/svg">
<path d="M25 48.4375C12.0763 48.4375 1.5625 37.9237 1.5625 25C1.5625 12.0763 12.0763 1.5625 25 1.5625C37.9237 1.5625 48.4375 12.0763 48.4375 25C48.4375 37.9237 37.9237 48.4375 25 48.4375Z" fill="#F78F8F"/>
<path d="M25 1.875C37.7513 1.875 48.125 12.2487 48.125 25C48.125 37.7513 37.7513 48.125 25 48.125C12.2487 48.125 1.875 37.7513 1.875 25C1.875 12.2487 12.2487 1.875 25 1.875ZM25 1.25C11.8831 1.25 1.25 11.8831 1.25 25C1.25 38.1169 11.8831 48.75 25 48.75C38.1169 48.75 48.75 38.1169 48.75 25C48.75 11.8831 38.1169 1.25 25 1.25Z" fill="#C74343"/>
<path d="M17.4868 35.1645L14.8352 32.5128L32.5132 14.8355L35.1648 17.4872L17.4868 35.1645Z" fill="white"/>
<path d="M14.8352 17.4872L17.4868 14.8355L35.1648 32.5128L32.5132 35.1645L14.8352 17.4872Z" fill="white"/>
</svg>
