<svg width="25" height="25" viewBox="0 0 25 25" fill="none" xmlns="http://www.w3.org/2000/svg">
<g clip-path="url(#clip0_1697_93)">
<path d="M12.5 24.0625C6.12437 24.0625 0.9375 18.8756 0.9375 12.5C0.9375 6.12437 6.12437 0.9375 12.5 0.9375C18.8756 0.9375 24.0625 6.12437 24.0625 12.5C24.0625 18.8756 18.8756 24.0625 12.5 24.0625Z" fill="#27712C"/>
<path d="M12.5 1.25C18.7031 1.25 23.75 6.29687 23.75 12.5C23.75 18.7031 18.7031 23.75 12.5 23.75C6.29687 23.75 1.25 18.7031 1.25 12.5C1.25 6.29687 6.29687 1.25 12.5 1.25ZM12.5 0.625C5.94187 0.625 0.625 5.94187 0.625 12.5C0.625 19.0581 5.94187 24.375 12.5 24.375C19.0581 24.375 24.375 19.0581 24.375 12.5C24.375 5.94187 19.0581 0.625 12.5 0.625Z" fill="#4B5950"/>
<path d="M12.5 6.25C12.1685 6.25 11.8505 6.3817 11.6161 6.61612C11.3817 6.85054 11.25 7.16848 11.25 7.5C11.25 7.83152 11.3817 8.14946 11.6161 8.38388C11.8505 8.6183 12.1685 8.75 12.5 8.75C12.8315 8.75 13.1495 8.6183 13.3839 8.38388C13.6183 8.14946 13.75 7.83152 13.75 7.5C13.75 7.16848 13.6183 6.85054 13.3839 6.61612C13.1495 6.3817 12.8315 6.25 12.5 6.25Z" fill="white"/>
<path d="M13.75 18.125V10.625H10.625V11.25H11.25V18.125H10.625V18.75H14.375V18.125H13.75Z" fill="white"/>
</g>
<defs>
<clipPath id="clip0_1697_93">
<rect width="25" height="25" fill="white"/>
</clipPath>
</defs>
</svg>
