<svg width="24" height="24" viewBox="0 0 24 24" fill="none" xmlns="http://www.w3.org/2000/svg">
<g clip-path="url(#clip0_1804_3)">
<path d="M22.29 -0.0149852C22.2094 -0.0187352 22.1269 -0.0112352 22.05 1.47917e-05C21.7275 0.0450148 21.45 0.202515 21.255 0.495015L21.24 0.525015L21.225 0.540015L17.115 8.26501C16.6519 8.09251 16.1925 7.99126 15.765 7.98001C15.3038 7.96876 14.8688 8.04001 14.475 8.20501C13.7156 8.52189 13.1419 9.14251 12.765 9.93001C12.7481 9.95439 12.7331 9.97876 12.72 10.005C12.7181 10.0088 12.7219 10.0163 12.72 10.02C12.7144 10.0294 12.7088 10.0406 12.705 10.05C12.6994 10.0688 12.6938 10.0894 12.69 10.11C12.4294 10.7606 12.1294 11.3456 11.79 11.865C11.7863 11.8706 11.7788 11.8744 11.775 11.88C11.7319 11.9175 11.6963 11.9644 11.67 12.015C11.6681 12.0188 11.6719 12.0263 11.67 12.03C11.6531 12.0544 11.6381 12.0788 11.625 12.105C10.4794 13.7456 8.98688 14.7338 7.575 15.345C5.65125 16.1775 3.81 16.2656 3.405 16.23C3.21188 16.2113 3.02625 16.3088 2.93437 16.4794C2.84437 16.65 2.86313 16.86 2.985 17.01C8.45438 23.76 16.5 24 16.5 24C16.5956 24.0019 16.6894 23.9756 16.77 23.925C16.77 23.925 17.7638 23.295 18.96 21.795C19.8581 20.6681 20.8819 19.0388 21.765 16.785C21.7706 16.7794 21.7744 16.7756 21.78 16.77C21.8906 16.6669 21.9469 16.5169 21.93 16.365C21.93 16.3594 21.93 16.3556 21.93 16.35C22.1625 15.7219 22.3875 15.0619 22.59 14.34C22.5975 14.31 22.6031 14.28 22.605 14.25C22.605 14.2444 22.605 14.2406 22.605 14.235C23.2444 12.585 22.5319 10.7681 21 9.97501L23.97 1.74001V1.72501L23.985 1.71001C24.0825 1.36876 23.97 1.04064 23.79 0.780015C23.6194 0.53439 23.37 0.341265 23.07 0.210015V0.195015C23.0606 0.191265 23.0494 0.198765 23.04 0.195015C23.0344 0.19314 23.0306 0.18189 23.025 0.180015C22.7906 0.0693897 22.5338 -0.00561023 22.29 -0.0149852ZM22.23 0.990015C22.3388 0.97314 22.4813 0.97314 22.635 1.05001L22.65 1.06501H22.665C22.8206 1.12689 22.95 1.23189 23.01 1.32001C23.07 1.40814 23.0531 1.46064 23.055 1.45501L20.13 9.57001C19.7775 9.41064 19.5338 9.29814 19.035 9.07501C18.6638 8.90814 18.3113 8.74689 18 8.61001L22.05 1.03501C22.0463 1.03877 22.1213 1.00689 22.23 0.990015ZM1.92 3.84001C0.864375 3.84001 0 4.70439 0 5.76001C0 6.81564 0.864375 7.68001 1.92 7.68001C2.97563 7.68001 3.84 6.81564 3.84 5.76001C3.84 4.70439 2.97563 3.84001 1.92 3.84001ZM1.92 4.80001C2.45625 4.80001 2.88 5.22376 2.88 5.76001C2.88 6.29626 2.45625 6.72001 1.92 6.72001C1.38375 6.72001 0.96 6.29626 0.96 5.76001C0.96 5.22376 1.38375 4.80001 1.92 4.80001ZM6.24 5.28001C5.70938 5.28001 5.28 5.70939 5.28 6.24001C5.28 6.77064 5.70938 7.20001 6.24 7.20001C6.77063 7.20001 7.2 6.77064 7.2 6.24001C7.2 5.70939 6.77063 5.28001 6.24 5.28001ZM5.52 8.64001C4.06688 8.64001 2.88 9.82689 2.88 11.28C2.88 12.7331 4.06688 13.92 5.52 13.92C6.97313 13.92 8.16 12.7331 8.16 11.28C8.16 9.82689 6.97313 8.64001 5.52 8.64001ZM15.75 8.94001C16.0838 8.94939 16.4494 9.01689 16.86 9.18001C16.8694 9.18564 16.8806 9.19126 16.89 9.19501C16.9988 9.36564 17.2031 9.45001 17.4 9.40501C17.4544 9.42751 17.4488 9.42564 17.505 9.45001C17.8294 9.59064 18.2381 9.76314 18.645 9.94501C19.2413 10.2113 19.6181 10.3744 19.965 10.53C19.9744 10.5413 19.9838 10.5506 19.995 10.56C20.0981 10.7025 20.2706 10.7775 20.445 10.755C20.4506 10.755 20.4544 10.755 20.46 10.755C21.6075 11.28 22.1138 12.5306 21.72 13.74C21.5306 13.7344 21.3863 13.7438 21.03 13.665C20.7638 13.6069 20.505 13.5131 20.31 13.395C20.115 13.2769 20.0025 13.1606 19.95 13.005C19.9088 12.87 19.8094 12.7613 19.6781 12.7069C19.5488 12.6506 19.4006 12.6563 19.275 12.72C19.1138 12.8006 18.7069 12.7706 18.345 12.585C18.165 12.4931 18.0038 12.3638 17.895 12.255C17.7863 12.1463 17.7563 12.0431 17.76 12.06C17.7338 11.9194 17.6475 11.7975 17.5219 11.7281C17.3981 11.6588 17.2481 11.6494 17.115 11.7C17.1019 11.7056 16.9425 11.7206 16.755 11.685C16.5675 11.6494 16.35 11.5725 16.14 11.475C15.93 11.3775 15.7369 11.2594 15.615 11.16C15.4931 11.0606 15.4819 10.9575 15.495 11.085C15.4631 10.8319 15.24 10.6463 14.985 10.665C14.5031 10.71 14.0513 10.3556 13.785 10.125C14.0663 9.65064 14.415 9.27189 14.85 9.09001C15.1163 8.97939 15.4163 8.93064 15.75 8.94001ZM5.52 9.60001C6.45375 9.60001 7.2 10.3463 7.2 11.28C7.2 12.2138 6.45375 12.96 5.52 12.96C4.58625 12.96 3.84 12.2138 3.84 11.28C3.84 10.3463 4.58625 9.60001 5.52 9.60001ZM13.35 11.025C13.6838 11.265 14.1469 11.5144 14.7 11.565C14.7881 11.6944 14.8838 11.7994 15 11.895C15.2081 12.0675 15.465 12.2194 15.735 12.345C16.005 12.4706 16.2881 12.5756 16.575 12.63C16.7231 12.6581 16.875 12.6019 17.025 12.6C17.0963 12.7088 17.1281 12.8531 17.22 12.945C17.415 13.14 17.6475 13.305 17.91 13.44C18.3 13.6406 18.7688 13.71 19.23 13.65C19.3875 13.8863 19.5769 14.085 19.8 14.22C20.1281 14.4169 20.4863 14.5369 20.82 14.61C21.0544 14.6606 21.2681 14.6831 21.465 14.7C21.3319 15.1313 21.1875 15.5363 21.045 15.93C20.8725 15.9244 20.6606 15.915 20.43 15.87C19.905 15.7688 19.4081 15.5363 19.2 15.135C19.0875 14.925 18.8381 14.8294 18.615 14.91C18.3769 14.9944 17.9456 14.9588 17.58 14.79C17.2144 14.6213 16.9369 14.3288 16.875 14.115C16.8356 13.9856 16.7419 13.8788 16.6181 13.8225C16.4963 13.7644 16.3556 13.7625 16.23 13.815C16.1138 13.8638 15.66 13.8506 15.285 13.68C14.91 13.5094 14.6681 13.2225 14.64 13.065C14.6156 12.9319 14.5369 12.8175 14.4225 12.7463C14.3081 12.675 14.1694 12.6544 14.04 12.69C13.5863 12.8119 13.2319 12.6506 12.945 12.435C12.8456 12.3619 12.7725 12.2813 12.705 12.21C12.9375 11.8406 13.1531 11.4488 13.35 11.025ZM12.15 13.005C12.2213 13.0706 12.2888 13.1344 12.375 13.2C12.7294 13.4663 13.275 13.6556 13.89 13.62C14.1131 14.0381 14.475 14.3588 14.895 14.55C15.3094 14.7394 15.7519 14.7994 16.185 14.745C16.425 15.1369 16.7588 15.4688 17.175 15.66C17.6194 15.8644 18.1181 15.9169 18.6 15.84C19.0481 16.4006 19.6856 16.7063 20.25 16.815C20.4 16.8431 20.5481 16.8619 20.685 16.875C19.8863 18.8044 18.9919 20.2163 18.21 21.195C17.2088 22.4494 16.5319 22.9238 16.38 23.025C16.2094 23.0175 14.9588 22.9294 13.2 22.44C13.3444 22.3463 13.5 22.2488 13.665 22.125C14.4656 21.525 15.5138 20.5463 16.53 19.035C16.6369 18.8794 16.6444 18.6769 16.5469 18.5156C16.4494 18.3525 16.2675 18.2625 16.08 18.285C15.9394 18.3 15.8138 18.3769 15.735 18.495C14.7825 19.9125 13.8019 20.82 13.08 21.36C12.3938 21.8738 11.9963 22.0331 11.955 22.05C10.875 21.6694 9.67875 21.1481 8.46 20.415C8.63625 20.3569 8.82375 20.28 9.03 20.19C9.94125 19.7925 11.16 19.05 12.405 17.655C12.555 17.505 12.5888 17.2744 12.4894 17.0888C12.3881 16.9013 12.1781 16.8019 11.97 16.845C11.8594 16.8638 11.7581 16.9238 11.685 17.01C10.53 18.3019 9.44813 18.9581 8.655 19.305C7.86188 19.6519 7.41 19.68 7.41 19.68C7.38938 19.6838 7.36875 19.6894 7.35 19.695C6.35438 18.9938 5.36063 18.1406 4.425 17.115C5.33813 17.0438 6.51375 16.8581 7.965 16.23C9.3975 15.6094 10.9256 14.5969 12.15 13.005Z" fill="white"/>
</g>
<defs>
<clipPath id="clip0_1804_3">
<rect width="24" height="24" fill="white"/>
</clipPath>
</defs>
</svg>
